<svg width="25" height="25" viewBox="0 0 25 25" fill="none" xmlns="http://www.w3.org/2000/svg">
<path d="M23.1646 12.4165C23.1646 18.2154 18.4635 22.9165 12.6646 22.9165C6.86569 22.9165 2.16455 18.2154 2.16455 12.4165C2.16455 6.61764 6.86569 1.9165 12.6646 1.9165C18.4635 1.9165 23.1646 6.61764 23.1646 12.4165Z" fill="#F1EFFF"/>
<path d="M12.6646 15.5578C12.2554 15.5578 11.8772 15.7761 11.6726 16.1305C11.468 16.4849 11.468 16.9216 11.6726 17.276C11.8772 17.6304 12.2554 17.8487 12.6646 17.8487C13.2972 17.8487 13.81 17.3359 13.81 16.7033C13.81 16.0707 13.2972 15.5578 12.6646 15.5578ZM12.6646 13.9513C12.1901 13.9513 11.8055 13.5667 11.8055 13.0922V8.31954C11.8055 7.84507 12.1901 7.46045 12.6646 7.46045C13.1391 7.46045 13.5237 7.84507 13.5237 8.31954V13.0922C13.5237 13.5667 13.1391 13.9513 12.6646 13.9513Z" fill="#6341F0"/>
</svg>
