<svg width="36" height="36" viewBox="0 0 36 36" fill="none" xmlns="http://www.w3.org/2000/svg">
<path fill-rule="evenodd" clip-rule="evenodd" d="M16.4925 3.54593C11.7532 7.02429 4.5 13.7075 4.5 19.3631C4.5 27.2381 10.125 32.8631 18 32.8631C25.875 32.8631 31.5 26.1131 31.5 21.6131C31.5 14.6395 27.4473 11.043 22.4822 6.63683C21.4591 5.72887 20.3972 4.78651 19.324 3.77314C18.5442 3.03678 17.3571 2.91134 16.4925 3.54593ZM16.6213 16.3172C14.2894 17.9406 11.25 20.6245 11.25 22.9256C11.25 26.4256 14.0625 28.9256 18 28.9256C21.9375 28.9256 24.75 25.9256 24.75 23.9256C24.75 20.8262 22.7237 19.2278 20.2411 17.2695C19.9192 17.0155 19.5896 16.7555 19.2557 16.4854C18.4947 15.8697 17.4247 15.7579 16.6213 16.3172Z" fill="#6A5DFD"/>
</svg>
