<svg width="20" height="20" viewBox="0 0 20 20" fill="none" xmlns="http://www.w3.org/2000/svg">
<path d="M17.14 10.9404C17.18 10.6404 17.2 10.3304 17.2 10.0004C17.2 9.68039 17.18 9.36039 17.13 9.06039L19.16 7.48039C19.34 7.34039 19.39 7.07039 19.28 6.87039L17.36 3.55039C17.24 3.33039 16.99 3.26039 16.77 3.33039L14.38 4.29039C13.88 3.91039 13.35 3.59039 12.76 3.35039L12.4 0.81039C12.36 0.57039 12.16 0.400391 11.92 0.400391H8.07999C7.83999 0.400391 7.64999 0.57039 7.60999 0.81039L7.24999 3.35039C6.65999 3.59039 6.11999 3.92039 5.62999 4.29039L3.23999 3.33039C3.01999 3.25039 2.76999 3.33039 2.64999 3.55039L0.739988 6.87039C0.619988 7.08039 0.659988 7.34039 0.859988 7.48039L2.88999 9.06039C2.83999 9.36039 2.79999 9.69039 2.79999 10.0004C2.79999 10.3104 2.81999 10.6404 2.86999 10.9404L0.839988 12.5204C0.659988 12.6604 0.609988 12.9304 0.719988 13.1304L2.63999 16.4504C2.75999 16.6704 3.00999 16.7404 3.22999 16.6704L5.61999 15.7104C6.11999 16.0904 6.64999 16.4104 7.23999 16.6504L7.59999 19.1904C7.64999 19.4304 7.83999 19.6004 8.07999 19.6004H11.92C12.16 19.6004 12.36 19.4304 12.39 19.1904L12.75 16.6504C13.34 16.4104 13.88 16.0904 14.37 15.7104L16.76 16.6704C16.98 16.7504 17.23 16.6704 17.35 16.4504L19.27 13.1304C19.39 12.9104 19.34 12.6604 19.15 12.5204L17.14 10.9404ZM9.99999 13.6004C8.01999 13.6004 6.39999 11.9804 6.39999 10.0004C6.39999 8.02039 8.01999 6.40039 9.99999 6.40039C11.98 6.40039 13.6 8.02039 13.6 10.0004C13.6 11.9804 11.98 13.6004 9.99999 13.6004Z" fill="#52515F"/>
</svg>
