<svg width="19" height="20" viewBox="0 0 19 20" fill="none" xmlns="http://www.w3.org/2000/svg">
<path fill-rule="evenodd" clip-rule="evenodd" d="M9.125 10C11.8864 10 14.125 7.76142 14.125 5C14.125 2.23858 11.8864 0 9.125 0C6.36358 0 4.125 2.23858 4.125 5C4.125 7.76142 6.36358 10 9.125 10ZM18.125 17.0167C18.125 14.17 13.9504 12 9.125 12L8.83628 12.0026C4.13426 12.0871 0.125 14.227 0.125 17.0167C0.125 18.1141 1.60965 18.9485 3.77809 19.4521L4.25293 19.5549L4.83367 19.6623L5.43792 19.7553L5.68558 19.7885L6.19012 19.8477L6.70574 19.8974L6.96726 19.9187L7.4968 19.9539L8.16908 19.984L8.85023 19.9986L9.12455 20L9.80954 19.9924L10.4866 19.969L11.0206 19.9392L11.2846 19.9205L11.9343 19.8634L12.5671 19.7912L13.0593 19.7228L13.5374 19.6452L13.7931 19.5986C16.3261 19.1198 18.125 18.229 18.125 17.0167Z" fill="#1F1E2B"/>
</svg>
