<svg width="40" height="40" viewBox="0 0 40 40" fill="none" xmlns="http://www.w3.org/2000/svg">
<path d="M36.0124 7.63286C24.5452 5.29181 20.075 0.0423867 20.0392 0C20.0033 0.0423867 15.5331 5.29507 4.06591 7.63612C4.06591 7.63612 2.07047 29.3642 20.0392 38.5262C38.0079 29.3642 36.0124 7.63286 36.0124 7.63286Z" fill="#5D78A0"/>
<path d="M20.3493 40C25.7911 32.853 33.649 33.6714 33.7142 33.6811L35.7683 30.5641C33.2479 29.9316 25.2858 29.1849 20.3363 34.2811C16.0716 29.436 7.42467 29.9316 4.9043 30.5641L6.95842 33.6811C7.02363 33.6714 14.9304 33.4236 20.3233 40" fill="#FF675D"/>
<path d="M29.0001 18.153H25.7406L22.3514 24.9189L17.8325 11.3872L14.4433 18.153H11.1838" stroke="#B3C6E3" stroke-width="2.3" stroke-linecap="round" stroke-linejoin="round"/>
</svg>
