<svg width="20" height="20" viewBox="0 0 20 20" fill="none" xmlns="http://www.w3.org/2000/svg">
<mask id="path-1-outside-1_6485_41370" maskUnits="userSpaceOnUse" x="0.939209" y="0.939453" width="18" height="18" fill="black">
<rect fill="white" x="0.939209" y="0.939453" width="18" height="18"/>
<path fill-rule="evenodd" clip-rule="evenodd" d="M18.1761 9.688L18.188 9.84717L18.1918 10.0034C18.1916 10.1886 18.1746 10.3732 18.1411 10.5551L18.0994 10.7464L16.8504 15.7424C16.5227 17.0532 15.377 17.9877 14.04 18.0566L13.8778 18.0607H8.33315C7.60004 18.0607 6.99891 17.4946 6.9434 16.7758L6.93921 16.6617V9.56017C6.93921 9.27374 6.99445 8.99057 7.10131 8.72601L7.17671 8.55939L8.18429 6.54479L8.21837 6.46859L7.96941 6.35724L8.22703 6.44677L8.25081 6.37911L9.10653 3.52672C9.37529 2.63086 10.1727 2.00344 11.096 1.94407L11.2441 1.93945H11.6665C12.6948 1.93945 13.5284 2.77305 13.5284 3.80135C13.5284 3.90105 13.5204 4.00049 13.5045 4.09874L13.4714 4.25834L12.8014 6.93945H15.1312C16.7161 6.93945 18.02 8.14439 18.1761 9.688ZM4.43921 16.9395V9.72733H3.06042V16.9395H4.43921ZM11.7754 3.06856L11.6775 3.06067H11.2399C10.7957 3.06067 10.3996 3.32547 10.2257 3.72521L10.2225 3.73265L10.1828 3.84115L9.32811 6.69003C9.30397 6.7705 9.27531 6.84951 9.24227 6.92667L9.18515 7.04961L8.17719 9.06553C8.1196 9.18072 8.08271 9.30477 8.06787 9.43204L8.06695 9.43991L8.06042 9.55225V16.9395H13.8812C14.7188 16.9395 15.4554 16.403 15.7191 15.62L15.7601 15.481L17.0127 10.4704C17.0512 10.3166 17.0706 10.1586 17.0706 10.0001C17.0706 8.97753 16.2795 8.13985 15.2757 8.06579L15.1412 8.06067H12.0831C11.7426 8.06067 11.4861 7.7613 11.5263 7.43377L11.5411 7.3568L12.3851 3.981C12.3997 3.92224 12.4072 3.86191 12.4072 3.80135C12.4072 3.43293 12.1384 3.12779 11.7863 3.07035L11.7754 3.06856ZM4.16648 8.60612C4.89959 8.60612 5.50072 9.17223 5.55623 9.89094L5.56042 10.0051V16.6667C5.56042 17.3998 4.99431 18.001 4.27559 18.0565L4.16151 18.0607H3.33315C2.60004 18.0607 1.99891 17.4946 1.9434 16.7758L1.93921 16.6617V10.0001C1.93921 9.26695 2.50532 8.66582 3.22403 8.61031L3.33815 8.60612H4.16648Z"/>
</mask>
<path fill-rule="evenodd" clip-rule="evenodd" d="M18.1761 9.688L18.188 9.84717L18.1918 10.0034C18.1916 10.1886 18.1746 10.3732 18.1411 10.5551L18.0994 10.7464L16.8504 15.7424C16.5227 17.0532 15.377 17.9877 14.04 18.0566L13.8778 18.0607H8.33315C7.60004 18.0607 6.99891 17.4946 6.9434 16.7758L6.93921 16.6617V9.56017C6.93921 9.27374 6.99445 8.99057 7.10131 8.72601L7.17671 8.55939L8.18429 6.54479L8.21837 6.46859L7.96941 6.35724L8.22703 6.44677L8.25081 6.37911L9.10653 3.52672C9.37529 2.63086 10.1727 2.00344 11.096 1.94407L11.2441 1.93945H11.6665C12.6948 1.93945 13.5284 2.77305 13.5284 3.80135C13.5284 3.90105 13.5204 4.00049 13.5045 4.09874L13.4714 4.25834L12.8014 6.93945H15.1312C16.7161 6.93945 18.02 8.14439 18.1761 9.688ZM4.43921 16.9395V9.72733H3.06042V16.9395H4.43921ZM11.7754 3.06856L11.6775 3.06067H11.2399C10.7957 3.06067 10.3996 3.32547 10.2257 3.72521L10.2225 3.73265L10.1828 3.84115L9.32811 6.69003C9.30397 6.7705 9.27531 6.84951 9.24227 6.92667L9.18515 7.04961L8.17719 9.06553C8.1196 9.18072 8.08271 9.30477 8.06787 9.43204L8.06695 9.43991L8.06042 9.55225V16.9395H13.8812C14.7188 16.9395 15.4554 16.403 15.7191 15.62L15.7601 15.481L17.0127 10.4704C17.0512 10.3166 17.0706 10.1586 17.0706 10.0001C17.0706 8.97753 16.2795 8.13985 15.2757 8.06579L15.1412 8.06067H12.0831C11.7426 8.06067 11.4861 7.7613 11.5263 7.43377L11.5411 7.3568L12.3851 3.981C12.3997 3.92224 12.4072 3.86191 12.4072 3.80135C12.4072 3.43293 12.1384 3.12779 11.7863 3.07035L11.7754 3.06856ZM4.16648 8.60612C4.89959 8.60612 5.50072 9.17223 5.55623 9.89094L5.56042 10.0051V16.6667C5.56042 17.3998 4.99431 18.001 4.27559 18.0565L4.16151 18.0607H3.33315C2.60004 18.0607 1.99891 17.4946 1.9434 16.7758L1.93921 16.6617V10.0001C1.93921 9.26695 2.50532 8.66582 3.22403 8.61031L3.33815 8.60612H4.16648Z" fill="#949399"/>
<path d="M18.188 9.84717L18.3245 9.84382L18.324 9.83703L18.188 9.84717ZM18.1761 9.688L18.3122 9.67786L18.3118 9.67427L18.1761 9.688ZM18.1918 10.0034L18.3282 10.0035L18.3281 10L18.1918 10.0034ZM18.1411 10.5551L18.2744 10.5842L18.2752 10.5799L18.1411 10.5551ZM18.0994 10.7464L18.2318 10.7795L18.2327 10.7754L18.0994 10.7464ZM16.8504 15.7424L16.7181 15.7093L16.8504 15.7424ZM14.04 18.0566L14.0434 18.193L14.047 18.1928L14.04 18.0566ZM13.8778 18.0607V18.1971L13.8812 18.197L13.8778 18.0607ZM6.9434 16.7758L6.80702 16.7809L6.80745 16.7863L6.9434 16.7758ZM6.93921 16.6617H6.80275L6.80294 16.6667L6.93921 16.6617ZM7.10131 8.72601L6.97697 8.66975L6.97487 8.67494L7.10131 8.72601ZM7.17671 8.55939L7.05465 8.49835L7.05247 8.50318L7.17671 8.55939ZM8.18429 6.54479L8.30636 6.60584L8.30877 6.60047L8.18429 6.54479ZM8.21837 6.46859L8.34285 6.52427L8.39853 6.3998L8.27405 6.34412L8.21837 6.46859ZM7.96941 6.35724L8.01418 6.22843L7.91374 6.48172L7.96941 6.35724ZM8.22703 6.44677L8.18226 6.57558L8.31061 6.62019L8.35567 6.492L8.22703 6.44677ZM8.25081 6.37911L8.3796 6.42438L8.38142 6.41829L8.25081 6.37911ZM9.10653 3.52672L9.23714 3.56591L9.10653 3.52672ZM11.096 1.94407L11.0917 1.8077L11.0872 1.80799L11.096 1.94407ZM11.2441 1.93945V1.80302L11.2399 1.80316L11.2441 1.93945ZM13.5045 4.09874L13.6381 4.12641L13.6391 4.12052L13.5045 4.09874ZM13.4714 4.25834L13.6038 4.29143L13.605 4.28599L13.4714 4.25834ZM12.8014 6.93945L12.6691 6.90639L12.6267 7.07582H12.8014V6.93945ZM4.43921 9.72733H4.57557V9.59097H4.43921V9.72733ZM4.43921 16.9395V17.0758H4.57557V16.9395H4.43921ZM3.06042 9.72733V9.59097H2.92406V9.72733H3.06042ZM3.06042 16.9395H2.92406V17.0758H3.06042V16.9395ZM11.6775 3.06067L11.6885 2.9243H11.6775V3.06067ZM11.7754 3.06856L11.7974 2.93353L11.7863 2.93264L11.7754 3.06856ZM10.2257 3.72521L10.3508 3.7796L10.3508 3.7796L10.2257 3.72521ZM10.2225 3.73265L10.0972 3.67817L10.0944 3.6858L10.2225 3.73265ZM10.1828 3.84115L10.0545 3.79421L10.0522 3.80197L10.1828 3.84115ZM9.32811 6.69003L9.1975 6.65085L9.1975 6.65085L9.32811 6.69003ZM9.24227 6.92667L9.36599 6.98416L9.36763 6.98035L9.24227 6.92667ZM9.18515 7.04961L9.30717 7.11062L9.30882 7.10707L9.18515 7.04961ZM8.17719 9.06553L8.05522 9.00454L8.17719 9.06553ZM8.06787 9.43204L7.93242 9.41624L7.93242 9.41625L8.06787 9.43204ZM8.06695 9.43991L7.93128 9.42409L7.93082 9.43199L8.06695 9.43991ZM8.06042 9.55225L7.92406 9.54433V9.55225H8.06042ZM8.06042 16.9395H7.92406V17.0758H8.06042V16.9395ZM15.7191 15.62L15.8485 15.6635L15.8499 15.6585L15.7191 15.62ZM15.7601 15.481L15.891 15.5195L15.8923 15.5141L15.7601 15.481ZM17.0127 10.4704L17.145 10.5035V10.5035L17.0127 10.4704ZM15.2757 8.06579L15.2857 7.92971L15.2809 7.92953L15.2757 8.06579ZM15.1412 8.06067L15.1464 7.9243H15.1412V8.06067ZM11.5263 7.43377L11.3921 7.40798L11.391 7.41717L11.5263 7.43377ZM11.5411 7.3568L11.4086 7.32368L11.4072 7.33106L11.5411 7.3568ZM12.3851 3.981L12.5173 4.01407L12.5173 4.01407L12.3851 3.981ZM11.7863 3.07035L11.7643 3.20493L11.7643 3.20493L11.7863 3.07035ZM5.55623 9.89094L5.69261 9.88593L5.69219 9.88044L5.55623 9.89094ZM5.56042 10.0051H5.69688L5.69669 10.0001L5.56042 10.0051ZM4.27559 18.0565L4.2806 18.1929L4.28609 18.1924L4.27559 18.0565ZM4.16151 18.0607V18.1971L4.16652 18.1969L4.16151 18.0607ZM1.9434 16.7758L1.80702 16.7809L1.80744 16.7863L1.9434 16.7758ZM1.93921 16.6617H1.80275L1.80294 16.6667L1.93921 16.6617ZM3.22403 8.61031L3.21902 8.47393L3.21353 8.47436L3.22403 8.61031ZM3.33815 8.60612V8.46966L3.33314 8.46985L3.33815 8.60612ZM18.324 9.83703L18.3121 9.67786L18.0401 9.69813L18.052 9.8573L18.324 9.83703ZM18.3281 10L18.3243 9.84382L18.0517 9.85051L18.0555 10.0067L18.3281 10ZM18.2752 10.5799C18.3102 10.3899 18.328 10.197 18.3282 10.0035L18.0555 10.0032C18.0553 10.1802 18.039 10.3566 18.007 10.5304L18.2752 10.5799ZM18.2327 10.7754L18.2743 10.5841L18.0078 10.5261L17.9662 10.7174L18.2327 10.7754ZM16.9827 15.7754L18.2317 10.7795L17.9671 10.7134L16.7181 15.7093L16.9827 15.7754ZM14.047 18.1928C15.4437 18.1208 16.6404 17.1447 16.9827 15.7754L16.7181 15.7093C16.405 16.9617 15.3104 17.8546 14.033 17.9204L14.047 18.1928ZM13.8812 18.197L14.0434 18.1929L14.0365 17.9203L13.8744 17.9243L13.8812 18.197ZM8.33315 18.197H13.8778V17.9243H8.33315V18.197ZM6.80745 16.7863C6.86839 17.5756 7.52828 18.197 8.33315 18.197V17.9243C7.67181 17.9243 7.12942 17.4136 7.07936 16.7653L6.80745 16.7863ZM6.80294 16.6667L6.80713 16.7809L7.07968 16.7708L7.07548 16.6567L6.80294 16.6667ZM6.80285 9.56017V16.6617H7.07557V9.56017H6.80285ZM6.97487 8.67494C6.86147 8.9557 6.80285 9.25621 6.80285 9.56017H7.07557C7.07557 9.29128 7.12743 9.02545 7.22775 8.77708L6.97487 8.67494ZM7.05247 8.50318L6.97708 8.6698L7.22555 8.78223L7.30094 8.6156L7.05247 8.50318ZM8.06233 6.48379L7.05475 8.49839L7.29867 8.62039L8.30625 6.60579L8.06233 6.48379ZM8.09389 6.41292L8.05981 6.48911L8.30877 6.60047L8.34285 6.52427L8.09389 6.41292ZM7.91374 6.48172L8.16269 6.59307L8.27405 6.34412L8.02509 6.23276L7.91374 6.48172ZM8.27179 6.31797L8.01418 6.22843L7.92465 6.48604L8.18226 6.57558L8.27179 6.31797ZM8.12216 6.33389L8.09838 6.40155L8.35567 6.492L8.37946 6.42433L8.12216 6.33389ZM8.97591 3.48754L8.1202 6.33992L8.38142 6.41829L9.23714 3.56591L8.97591 3.48754ZM11.0872 1.80799C10.1073 1.87099 9.26113 2.53681 8.97591 3.48754L9.23714 3.56591C9.48944 2.72491 10.238 2.13588 11.1047 2.08015L11.0872 1.80799ZM11.2399 1.80316L11.0917 1.80777L11.1002 2.08037L11.2484 2.07575L11.2399 1.80316ZM11.6665 1.80309H11.2441V2.07582H11.6665V1.80309ZM13.6647 3.80135C13.6647 2.69774 12.7701 1.80309 11.6665 1.80309V2.07582C12.6195 2.07582 13.392 2.84837 13.392 3.80135H13.6647ZM13.6391 4.12052C13.6562 4.01508 13.6647 3.90835 13.6647 3.80135H13.392C13.392 3.89374 13.3846 3.98591 13.3699 4.07696L13.6391 4.12052ZM13.605 4.28599L13.638 4.12639L13.3709 4.0711L13.3379 4.2307L13.605 4.28599ZM12.9337 6.97252L13.6037 4.29141L13.3391 4.22528L12.6691 6.90639L12.9337 6.97252ZM15.1312 6.80309H12.8014V7.07582H15.1312V6.80309ZM18.3118 9.67427C18.1487 8.06171 16.7868 6.80309 15.1312 6.80309V7.07582C16.6454 7.07582 17.8913 8.22706 18.0404 9.70172L18.3118 9.67427ZM4.30285 9.72733V16.9395H4.57557V9.72733H4.30285ZM3.06042 9.8637H4.43921V9.59097H3.06042V9.8637ZM3.19679 16.9395V9.72733H2.92406V16.9395H3.19679ZM4.43921 16.8031H3.06042V17.0758H4.43921V16.8031ZM11.6665 3.19659L11.7644 3.20449L11.7863 2.93264L11.6884 2.92474L11.6665 3.19659ZM11.2399 3.19703H11.6775V2.9243H11.2399V3.19703ZM10.3508 3.7796C10.5032 3.42916 10.8505 3.19703 11.2399 3.19703V2.9243C10.7409 2.9243 10.296 3.22178 10.1007 3.67082L10.3508 3.7796ZM10.3475 3.78704L10.3508 3.7796L10.1007 3.67082L10.0974 3.67826L10.3475 3.78704ZM10.3108 3.88801L10.3505 3.77951L10.0944 3.6858L10.0547 3.7943L10.3108 3.88801ZM9.45873 6.72922L10.3134 3.88034L10.0522 3.80197L9.1975 6.65085L9.45873 6.72922ZM9.36763 6.98035C9.40269 6.89846 9.43311 6.81461 9.45873 6.72922L9.1975 6.65085C9.17484 6.72639 9.14793 6.80056 9.11691 6.873L9.36763 6.98035ZM9.30882 7.10707L9.36594 6.98413L9.1186 6.86922L9.06148 6.99215L9.30882 7.10707ZM8.29916 9.12651L9.30712 7.1106L9.06318 6.98863L8.05522 9.00454L8.29916 9.12651ZM8.20331 9.44784C8.21633 9.33626 8.24867 9.2275 8.29916 9.12651L8.05522 9.00454C7.99053 9.13393 7.9491 9.27329 7.93242 9.41624L8.20331 9.44784ZM8.2024 9.4557L8.20331 9.44783L7.93242 9.41625L7.93151 9.42411L8.2024 9.4557ZM8.19656 9.56017L8.20309 9.44782L7.93082 9.43199L7.92429 9.54434L8.19656 9.56017ZM8.19678 16.9395V9.55225H7.92406V16.9395H8.19678ZM13.8812 16.8031H8.06042V17.0758H13.8812V16.8031ZM15.5899 15.5765C15.3447 16.3044 14.6599 16.8031 13.8812 16.8031V17.0758C14.7778 17.0758 15.5661 16.5017 15.8484 15.6635L15.5899 15.5765ZM15.6292 15.4425L15.5883 15.5815L15.8499 15.6585L15.8909 15.5195L15.6292 15.4425ZM16.8804 10.4374L15.6278 15.4479L15.8923 15.5141L17.145 10.5035L16.8804 10.4374ZM16.9342 10.0001C16.9342 10.1475 16.9162 10.2943 16.8804 10.4374L17.145 10.5035C17.1862 10.3389 17.207 10.1698 17.207 10.0001H16.9342ZM15.2656 8.20178C16.1987 8.27062 16.9342 9.04948 16.9342 10.0001H17.207C17.207 8.90558 16.3602 8.00907 15.2857 7.9298L15.2656 8.20178ZM15.136 8.19693L15.2705 8.20205L15.2809 7.92953L15.1464 7.9244L15.136 8.19693ZM12.0831 8.19703H15.1412V7.9243H12.0831V8.19703ZM11.391 7.41717C11.3409 7.82496 11.6597 8.19703 12.0831 8.19703V7.9243C11.8255 7.9243 11.6313 7.69765 11.6617 7.45038L11.391 7.41717ZM11.4072 7.33106L11.3924 7.40804L11.6602 7.45951L11.675 7.38254L11.4072 7.33106ZM12.2528 3.94792L11.4088 7.32373L11.6734 7.38987L12.5173 4.01407L12.2528 3.94792ZM12.2708 3.80135C12.2708 3.85076 12.2647 3.89999 12.2528 3.94793L12.5173 4.01407C12.5347 3.9445 12.5435 3.87306 12.5435 3.80135H12.2708ZM11.7643 3.20493C12.0517 3.2518 12.2708 3.50093 12.2708 3.80135H12.5435C12.5435 3.36492 12.2252 3.00377 11.8082 2.93576L11.7643 3.20493ZM11.7534 3.20315L11.7643 3.20493L11.8082 2.93576L11.7973 2.93398L11.7534 3.20315ZM5.69219 9.88044C5.63124 9.09123 4.97135 8.46976 4.16648 8.46976V8.74248C4.82782 8.74248 5.37021 9.25323 5.42027 9.90144L5.69219 9.88044ZM5.69669 10.0001L5.6925 9.88593L5.41996 9.89595L5.42415 10.0101L5.69669 10.0001ZM5.69679 16.6667V10.0051H5.42406V16.6667H5.69679ZM4.28609 18.1924C5.07531 18.1315 5.69679 17.4716 5.69679 16.6667H5.42406C5.42406 17.3281 4.91331 17.8705 4.26509 17.9205L4.28609 18.1924ZM4.16652 18.1969L4.2806 18.1927L4.27058 17.9202L4.1565 17.9244L4.16652 18.1969ZM3.33315 18.197H4.16151V17.9243H3.33315V18.197ZM1.80744 16.7863C1.86839 17.5756 2.52828 18.197 3.33315 18.197V17.9243C2.67181 17.9243 2.12942 17.4136 2.07936 16.7653L1.80744 16.7863ZM1.80294 16.6667L1.80713 16.7808L2.07968 16.7708L2.07548 16.6567L1.80294 16.6667ZM1.80285 10.0001V16.6617H2.07557V10.0001H1.80285ZM3.21353 8.47436C2.42432 8.5353 1.80285 9.19519 1.80285 10.0001H2.07557C2.07557 9.33872 2.58632 8.79633 3.23453 8.74627L3.21353 8.47436ZM3.33314 8.46985L3.21902 8.47404L3.22904 8.74659L3.34316 8.74239L3.33314 8.46985ZM4.16648 8.46976H3.33815V8.74248H4.16648V8.46976Z" fill="#949399" mask="url(#path-1-outside-1_6485_41370)"/>
</svg>
