<svg width="23" height="22" viewBox="0 0 23 22" fill="none" xmlns="http://www.w3.org/2000/svg">
<mask id="path-1-outside-1_9959_13537" maskUnits="userSpaceOnUse" x="1.60205" y="1.1333" width="20" height="19" fill="black">
<rect fill="white" x="1.60205" y="1.1333" width="20" height="19"/>
<path fill-rule="evenodd" clip-rule="evenodd" d="M20.4627 10.6567L20.4757 10.8318L20.4799 11.0036C20.4797 11.2073 20.461 11.4105 20.4241 11.6106L20.3783 11.821L19.0044 17.3165C18.6439 18.7585 17.3836 19.7864 15.9129 19.8621L15.7345 19.8666H9.63538C8.82897 19.8666 8.16772 19.2439 8.10666 18.4533L8.10205 18.3278V10.5161C8.10205 10.201 8.16282 9.88953 8.28037 9.59852L8.3633 9.41523L9.47164 7.19917L9.50913 7.11536L9.23528 6.99286L9.51865 7.09135L9.54481 7.01692L10.4861 3.8793C10.7817 2.89385 11.6588 2.20368 12.6745 2.13838L12.8374 2.1333H13.3021C14.4332 2.1333 15.3501 3.05026 15.3501 4.18139C15.3501 4.29105 15.3413 4.40044 15.3238 4.50852L15.2875 4.68408L14.5504 7.6333H17.1132C18.8567 7.6333 20.2909 8.95873 20.4627 10.6567ZM5.35205 18.6333V10.7H3.83538V18.6333H5.35205ZM13.4218 3.37532L13.3141 3.36663H12.8328C12.3442 3.36663 11.9085 3.65792 11.7172 4.09763L11.7136 4.10582L11.67 4.22517L10.7298 7.35894C10.7033 7.44746 10.6718 7.53436 10.6354 7.61924L10.5726 7.75448L9.46383 9.97198C9.40048 10.0987 9.3599 10.2352 9.34358 10.3751L9.34257 10.3838L9.33538 10.5074V18.6333H15.7382C16.6597 18.6333 17.4699 18.0432 17.76 17.1819L17.805 17.029L19.1829 11.5174C19.2252 11.3482 19.2466 11.1744 19.2466 11C19.2466 9.87518 18.3763 8.95373 17.2722 8.87227L17.1243 8.86663H13.7604C13.3858 8.86663 13.1036 8.53734 13.1479 8.17706L13.1641 8.09238L14.0925 4.379C14.1086 4.31437 14.1168 4.24801 14.1168 4.18139C14.1168 3.77612 13.8212 3.44047 13.4338 3.37728L13.4218 3.37532ZM5.05205 9.46663C5.85847 9.46663 6.51972 10.0894 6.58077 10.8799L6.58538 11.0055V18.3333C6.58538 19.1397 5.96266 19.801 5.17207 19.862L5.04658 19.8666H4.13538C3.32897 19.8666 2.66772 19.2439 2.60666 18.4533L2.60205 18.3278V11C2.60205 10.1936 3.22477 9.5323 4.01536 9.47125L4.14089 9.46663H5.05205Z"/>
</mask>
<path fill-rule="evenodd" clip-rule="evenodd" d="M20.4627 10.6567L20.4757 10.8318L20.4799 11.0036C20.4797 11.2073 20.461 11.4105 20.4241 11.6106L20.3783 11.821L19.0044 17.3165C18.6439 18.7585 17.3836 19.7864 15.9129 19.8621L15.7345 19.8666H9.63538C8.82897 19.8666 8.16772 19.2439 8.10666 18.4533L8.10205 18.3278V10.5161C8.10205 10.201 8.16282 9.88953 8.28037 9.59852L8.3633 9.41523L9.47164 7.19917L9.50913 7.11536L9.23528 6.99286L9.51865 7.09135L9.54481 7.01692L10.4861 3.8793C10.7817 2.89385 11.6588 2.20368 12.6745 2.13838L12.8374 2.1333H13.3021C14.4332 2.1333 15.3501 3.05026 15.3501 4.18139C15.3501 4.29105 15.3413 4.40044 15.3238 4.50852L15.2875 4.68408L14.5504 7.6333H17.1132C18.8567 7.6333 20.2909 8.95873 20.4627 10.6567ZM5.35205 18.6333V10.7H3.83538V18.6333H5.35205ZM13.4218 3.37532L13.3141 3.36663H12.8328C12.3442 3.36663 11.9085 3.65792 11.7172 4.09763L11.7136 4.10582L11.67 4.22517L10.7298 7.35894C10.7033 7.44746 10.6718 7.53436 10.6354 7.61924L10.5726 7.75448L9.46383 9.97198C9.40048 10.0987 9.3599 10.2352 9.34358 10.3751L9.34257 10.3838L9.33538 10.5074V18.6333H15.7382C16.6597 18.6333 17.4699 18.0432 17.76 17.1819L17.805 17.029L19.1829 11.5174C19.2252 11.3482 19.2466 11.1744 19.2466 11C19.2466 9.87518 18.3763 8.95373 17.2722 8.87227L17.1243 8.86663H13.7604C13.3858 8.86663 13.1036 8.53734 13.1479 8.17706L13.1641 8.09238L14.0925 4.379C14.1086 4.31437 14.1168 4.24801 14.1168 4.18139C14.1168 3.77612 13.8212 3.44047 13.4338 3.37728L13.4218 3.37532ZM5.05205 9.46663C5.85847 9.46663 6.51972 10.0894 6.58077 10.8799L6.58538 11.0055V18.3333C6.58538 19.1397 5.96266 19.801 5.17207 19.862L5.04658 19.8666H4.13538C3.32897 19.8666 2.66772 19.2439 2.60666 18.4533L2.60205 18.3278V11C2.60205 10.1936 3.22477 9.5323 4.01536 9.47125L4.14089 9.46663H5.05205Z" fill="#AEADB3"/>
<path d="M20.4757 10.8318L20.6122 10.8284L20.6117 10.8217L20.4757 10.8318ZM20.4627 10.6567L20.5987 10.6466L20.5983 10.643L20.4627 10.6567ZM20.4799 11.0036L20.6163 11.0037L20.6162 11.0002L20.4799 11.0036ZM20.4241 11.6106L20.5574 11.6396L20.5582 11.6353L20.4241 11.6106ZM20.3783 11.821L20.5106 11.8541L20.5115 11.85L20.3783 11.821ZM19.0044 17.3165L19.1367 17.3496L19.0044 17.3165ZM15.9129 19.8621L15.9163 19.9985L15.9199 19.9983L15.9129 19.8621ZM15.7345 19.8666L15.7345 20.003L15.7379 20.003L15.7345 19.8666ZM8.10666 18.4533L7.97028 18.4583L7.97071 18.4638L8.10666 18.4533ZM8.10205 18.3278L7.9656 18.3278L7.96578 18.3328L8.10205 18.3278ZM8.28037 9.59852L8.15602 9.54225L8.15393 9.54745L8.28037 9.59852ZM8.3633 9.41523L8.24125 9.35419L8.23906 9.35902L8.3633 9.41523ZM9.47164 7.19917L9.59371 7.26022L9.59612 7.25485L9.47164 7.19917ZM9.50913 7.11536L9.63361 7.17104L9.68929 7.04656L9.56481 6.99088L9.50913 7.11536ZM9.23528 6.99286L9.28004 6.86406L9.1796 7.11734L9.23528 6.99286ZM9.51865 7.09135L9.47388 7.22016L9.60223 7.26477L9.6473 7.13657L9.51865 7.09135ZM9.54481 7.01692L9.6736 7.06219L9.67543 7.0561L9.54481 7.01692ZM10.4861 3.8793L10.6167 3.91848L10.6167 3.91848L10.4861 3.8793ZM12.6745 2.13838L12.6702 2.00201L12.6657 2.0023L12.6745 2.13838ZM12.8374 2.1333V1.99687L12.8332 1.997L12.8374 2.1333ZM15.3238 4.50852L15.4575 4.53619L15.4585 4.5303L15.3238 4.50852ZM15.2875 4.68408L15.4199 4.71717L15.421 4.71172L15.2875 4.68408ZM14.5504 7.6333L14.4181 7.60024L14.3758 7.76966H14.5504V7.6333ZM5.35205 10.7H5.48841V10.5636H5.35205V10.7ZM5.35205 18.6333V18.7697H5.48841V18.6333H5.35205ZM3.83538 10.7V10.5636H3.69902V10.7H3.83538ZM3.83538 18.6333H3.69902V18.7697H3.83538V18.6333ZM13.3141 3.36663L13.3251 3.23027H13.3141V3.36663ZM13.4218 3.37532L13.4438 3.24029L13.4328 3.2394L13.4218 3.37532ZM11.7172 4.09763L11.5922 4.04324L11.5922 4.04325L11.7172 4.09763ZM11.7136 4.10582L11.5884 4.05134L11.5856 4.05896L11.7136 4.10582ZM11.67 4.22517L11.5417 4.17823L11.5394 4.18599L11.67 4.22517ZM10.7298 7.35894L10.5992 7.31976L10.5992 7.31976L10.7298 7.35894ZM10.6354 7.61924L10.7591 7.67673L10.7608 7.67292L10.6354 7.61924ZM10.5726 7.75448L10.6946 7.81549L10.6963 7.81194L10.5726 7.75448ZM9.46383 9.97198L9.34186 9.911L9.34186 9.911L9.46383 9.97198ZM9.34358 10.3751L9.20813 10.3594L9.20813 10.3594L9.34358 10.3751ZM9.34257 10.3838L9.20689 10.368L9.20643 10.3759L9.34257 10.3838ZM9.33538 10.5074L9.19902 10.4995V10.5074H9.33538ZM9.33538 18.6333H9.19902V18.7697H9.33538V18.6333ZM17.76 17.1819L17.8893 17.2254L17.8908 17.2204L17.76 17.1819ZM17.805 17.029L17.9359 17.0675L17.9373 17.0621L17.805 17.029ZM19.1829 11.5174L19.3152 11.5505L19.3152 11.5504L19.1829 11.5174ZM17.2722 8.87227L17.2822 8.73619L17.2774 8.73601L17.2722 8.87227ZM17.1243 8.86663L17.1295 8.73027H17.1243V8.86663ZM13.1479 8.17706L13.0136 8.15126L13.0125 8.16045L13.1479 8.17706ZM13.1641 8.09238L13.0316 8.05926L13.0302 8.06664L13.1641 8.09238ZM14.0925 4.379L14.2248 4.41207L14.2248 4.41207L14.0925 4.379ZM13.4338 3.37728L13.4119 3.51187L13.4119 3.51187L13.4338 3.37728ZM6.58077 10.8799L6.71715 10.8749L6.71673 10.8694L6.58077 10.8799ZM6.58538 11.0055H6.72184L6.72166 11.0005L6.58538 11.0055ZM5.17207 19.862L5.17708 19.9984L5.18257 19.998L5.17207 19.862ZM5.04658 19.8666V20.0031L5.05159 20.0029L5.04658 19.8666ZM2.60666 18.4533L2.47028 18.4583L2.47071 18.4638L2.60666 18.4533ZM2.60205 18.3278H2.4656L2.46578 18.3328L2.60205 18.3278ZM4.01536 9.47125L4.01034 9.33487L4.00486 9.33529L4.01536 9.47125ZM4.14089 9.46663L4.14089 9.33018L4.13588 9.33036L4.14089 9.46663ZM20.6117 10.8217L20.5986 10.6466L20.3267 10.6668L20.3397 10.8419L20.6117 10.8217ZM20.6162 11.0002L20.612 10.8284L20.3394 10.8351L20.3436 11.0069L20.6162 11.0002ZM20.5582 11.6353C20.5966 11.4271 20.6161 11.2157 20.6163 11.0037L20.3436 11.0034C20.3433 11.1989 20.3254 11.3938 20.29 11.5858L20.5582 11.6353ZM20.5115 11.85L20.5573 11.6396L20.2908 11.5815L20.245 11.792L20.5115 11.85ZM19.1367 17.3496L20.5106 11.854L20.246 11.7879L18.8721 17.2834L19.1367 17.3496ZM15.9199 19.9983C17.4503 19.9195 18.7616 18.85 19.1367 17.3496L18.8721 17.2834C18.5262 18.667 17.317 19.6533 15.9059 19.726L15.9199 19.9983ZM15.7379 20.003L15.9163 19.9985L15.9095 19.7258L15.7311 19.7303L15.7379 20.003ZM9.63538 20.003H15.7345V19.7303H9.63538V20.003ZM7.97071 18.4638C8.03721 19.3249 8.7572 20.003 9.63538 20.003V19.7303C8.90073 19.7303 8.29823 19.1629 8.24262 18.4428L7.97071 18.4638ZM7.96578 18.3328L7.97039 18.4583L8.24294 18.4483L8.23832 18.3228L7.96578 18.3328ZM7.96569 10.5161V18.3278H8.23841V10.5161H7.96569ZM8.15393 9.54745C8.02984 9.85466 7.96569 10.1835 7.96569 10.5161H8.23841C8.23841 10.2186 8.2958 9.92441 8.4068 9.64959L8.15393 9.54745ZM8.23906 9.35902L8.15613 9.5423L8.4046 9.65473L8.48754 9.47145L8.23906 9.35902ZM9.34968 7.13817L8.24134 9.35423L8.48526 9.47623L9.5936 7.26017L9.34968 7.13817ZM9.38465 7.05968L9.34716 7.14349L9.59612 7.25485L9.63361 7.17104L9.38465 7.05968ZM9.1796 7.11734L9.45345 7.23984L9.56481 6.99088L9.29096 6.86838L9.1796 7.11734ZM9.56342 6.96255L9.28004 6.86406L9.19051 7.12167L9.47388 7.22016L9.56342 6.96255ZM9.41617 6.9717L9.39 7.04613L9.6473 7.13657L9.67346 7.06214L9.41617 6.9717ZM10.3555 3.84011L9.4142 6.97774L9.67543 7.0561L10.6167 3.91848L10.3555 3.84011ZM12.6657 2.0023C11.5935 2.07124 10.6676 2.7998 10.3555 3.84011L10.6167 3.91848C10.8959 2.9879 11.7242 2.33613 12.6832 2.27446L12.6657 2.0023ZM12.8332 1.997L12.6702 2.00208L12.6787 2.27468L12.8417 2.2696L12.8332 1.997ZM13.3021 1.99694H12.8374V2.26966H13.3021V1.99694ZM15.4865 4.18139C15.4865 2.97495 14.5085 1.99694 13.3021 1.99694V2.26966C14.3579 2.26966 15.2138 3.12557 15.2138 4.18139H15.4865ZM15.4585 4.5303C15.4771 4.41503 15.4865 4.29836 15.4865 4.18139H15.2138C15.2138 4.28375 15.2056 4.38586 15.1892 4.48674L15.4585 4.5303ZM15.421 4.71172L15.4574 4.53616L15.1903 4.48087L15.154 4.65644L15.421 4.71172ZM14.6827 7.66636L15.4198 4.71714L15.1552 4.65102L14.4181 7.60024L14.6827 7.66636ZM17.1132 7.49694H14.5504V7.76966H17.1132V7.49694ZM20.5983 10.643C20.4196 8.87605 18.9274 7.49694 17.1132 7.49694V7.76966C18.786 7.76966 20.1622 9.0414 20.327 10.6704L20.5983 10.643ZM5.21569 10.7V18.6333H5.48841V10.7H5.21569ZM3.83538 10.8363H5.35205V10.5636H3.83538V10.8363ZM3.97175 18.6333V10.7H3.69902V18.6333H3.97175ZM5.35205 18.4969H3.83538V18.7697H5.35205V18.4969ZM13.3032 3.50256L13.4109 3.51124L13.4328 3.2394L13.3251 3.23071L13.3032 3.50256ZM12.8328 3.503H13.3141V3.23027H12.8328V3.503ZM11.8423 4.15202C12.0121 3.76161 12.399 3.503 12.8328 3.503V3.23027C12.2894 3.23027 11.8049 3.55423 11.5922 4.04324L11.8423 4.15202ZM11.8387 4.16021L11.8423 4.15202L11.5922 4.04325L11.5886 4.05144L11.8387 4.16021ZM11.798 4.27203L11.8417 4.15268L11.5856 4.05896L11.5419 4.17831L11.798 4.27203ZM10.8605 7.39812L11.8006 4.26436L11.5394 4.18599L10.5992 7.31976L10.8605 7.39812ZM10.7608 7.67292C10.7991 7.58331 10.8324 7.49157 10.8605 7.39812L10.5992 7.31976C10.5742 7.40335 10.5444 7.48541 10.5101 7.56557L10.7608 7.67292ZM10.6963 7.81194L10.7591 7.6767L10.5118 7.56178L10.4489 7.69702L10.6963 7.81194ZM9.5858 10.033L10.6946 7.81546L10.4506 7.69349L9.34186 9.911L9.5858 10.033ZM9.47902 10.3909C9.49352 10.2666 9.52955 10.1455 9.5858 10.033L9.34186 9.911C9.27141 10.0519 9.22629 10.2037 9.20813 10.3594L9.47902 10.3909ZM9.47801 10.3996L9.47902 10.3909L9.20813 10.3594L9.20712 10.368L9.47801 10.3996ZM9.47152 10.5153L9.4787 10.3917L9.20643 10.3759L9.19925 10.4995L9.47152 10.5153ZM9.47175 18.6333V10.5074H9.19902V18.6333H9.47175ZM15.7382 18.4969H9.33538V18.7697H15.7382V18.4969ZM17.6307 17.1384C17.3592 17.9446 16.6007 18.4969 15.7382 18.4969V18.7697C16.7186 18.7697 17.5805 18.1419 17.8892 17.2254L17.6307 17.1384ZM17.6742 16.9905L17.6292 17.1434L17.8908 17.2204L17.9358 17.0675L17.6742 16.9905ZM19.0506 11.4843L17.6727 16.9959L17.9373 17.0621L19.3152 11.5505L19.0506 11.4843ZM19.1102 11C19.1102 11.1632 19.0902 11.3259 19.0506 11.4843L19.3152 11.5504C19.3602 11.3704 19.3829 11.1855 19.3829 11H19.1102ZM17.2621 9.00827C18.2956 9.08451 19.1102 9.94713 19.1102 11H19.3829C19.3829 9.80323 18.457 8.82295 17.2822 8.73628L17.2621 9.00827ZM17.1191 9.0029L17.267 9.00854L17.2774 8.73601L17.1295 8.73037L17.1191 9.0029ZM13.7604 9.003H17.1243V8.73027H13.7604V9.003ZM13.0125 8.16045C12.9585 8.60099 13.3029 9.003 13.7604 9.003V8.73027C13.4687 8.73027 13.2488 8.47369 13.2832 8.19366L13.0125 8.16045ZM13.0302 8.06664L13.0139 8.15131L13.2818 8.2028L13.298 8.11812L13.0302 8.06664ZM13.9602 4.34593L13.0318 8.05931L13.2964 8.12546L14.2248 4.41207L13.9602 4.34593ZM13.9804 4.18139C13.9804 4.23686 13.9736 4.29211 13.9602 4.34593L14.2248 4.41207C14.2436 4.33663 14.2532 4.25916 14.2532 4.18139H13.9804ZM13.4119 3.51187C13.7344 3.56448 13.9804 3.84412 13.9804 4.18139H14.2532C14.2532 3.70812 13.908 3.31645 13.4558 3.2427L13.4119 3.51187ZM13.3999 3.50991L13.4119 3.51187L13.4558 3.2427L13.4438 3.24074L13.3999 3.50991ZM6.71673 10.8694C6.65023 10.0083 5.93023 9.33027 5.05205 9.33027V9.603C5.7867 9.603 6.3892 10.1704 6.44481 10.8904L6.71673 10.8694ZM6.72166 11.0005L6.71704 10.8749L6.4445 10.8849L6.44911 11.0105L6.72166 11.0005ZM6.72175 18.3333V11.0055H6.44902V18.3333H6.72175ZM5.18257 19.998C6.04366 19.9315 6.72175 19.2115 6.72175 18.3333H6.44902C6.44902 19.068 5.88166 19.6705 5.16157 19.7261L5.18257 19.998ZM5.05159 20.0029L5.17708 19.9983L5.16706 19.7258L5.04158 19.7304L5.05159 20.0029ZM4.13538 20.003H5.04658V19.7303H4.13538V20.003ZM2.47071 18.4638C2.5372 19.3249 3.2572 20.003 4.13538 20.003V19.7303C3.40073 19.7303 2.79823 19.1629 2.74262 18.4428L2.47071 18.4638ZM2.46578 18.3328L2.47039 18.4583L2.74294 18.4483L2.73832 18.3228L2.46578 18.3328ZM2.46569 11V18.3278H2.73841V11H2.46569ZM4.00486 9.33529C3.14377 9.40179 2.46569 10.1218 2.46569 11H2.73841C2.73841 10.2653 3.30577 9.66282 4.02586 9.60721L4.00486 9.33529ZM4.13588 9.33036L4.01035 9.33498L4.02036 9.60752L4.1459 9.60291L4.13588 9.33036ZM5.05205 9.33027H4.14089V9.603H5.05205V9.33027Z" fill="#949399" mask="url(#path-1-outside-1_9959_13537)"/>
</svg>
