<svg width="20" height="20" viewBox="0 0 20 20" fill="none" xmlns="http://www.w3.org/2000/svg">
<path fill-rule="evenodd" clip-rule="evenodd" d="M15.1314 7.0304C16.6687 7.0304 17.9336 8.19889 18.0857 9.69596L18.0973 9.85171L18.1011 10.0044C18.1008 10.1833 18.0844 10.3616 18.0521 10.5372L18.011 10.7257L16.7624 15.7204C16.4445 16.9919 15.3334 17.8985 14.0366 17.9658L13.8768 17.9698H8.3333C7.64867 17.9698 7.08708 17.4416 7.03434 16.7707L7.03027 16.6601V9.56021C7.03027 9.28609 7.08302 9.01508 7.18507 8.76181L7.25897 8.59849L8.26903 6.57837L8.30791 6.49145L8.33917 6.40151L9.19376 3.55288C9.4514 2.69407 10.2155 2.09244 11.1005 2.03492L11.2457 2.0304H11.6666C12.6447 2.0304 13.4376 2.8233 13.4376 3.80139C13.4376 3.89556 13.4301 3.9895 13.4152 4.08233L13.3829 4.23812L12.6851 7.0304H15.1314ZM4.16664 8.69706C4.85127 8.69706 5.41286 9.2253 5.4656 9.89618L5.46967 10.0068V16.6668C5.46967 17.3514 4.94143 17.913 4.27055 17.9657L4.15994 17.9698H3.3333C2.64867 17.9698 2.08708 17.4416 2.03434 16.7707L2.03027 16.6601V10.0001C2.03027 9.31546 2.55851 8.75387 3.22939 8.70113L3.33998 8.69706H4.16664Z" fill="#1F1E2B"/>
</svg>
