<svg width="25" height="25" viewBox="0 0 25 25" fill="none" xmlns="http://www.w3.org/2000/svg">
<path fill-rule="evenodd" clip-rule="evenodd" d="M12.4981 8.32609L11.1313 6.87054C10.2336 5.91461 9.00036 5 7.83253 5C6.55835 5 5.58452 5.44333 4.93045 6.10752C4.2743 6.77382 3.82812 7.77673 3.82812 9.09472C3.82812 10.4946 4.35521 11.6912 5.28961 12.8765C6.25979 14.1071 7.57523 15.2133 9.05997 16.4511L9.08053 16.4682L9.14492 16.522C10.2252 17.4234 11.4396 18.4367 12.4989 19.5623C13.5697 18.4252 14.7977 17.402 15.8898 16.4921L15.941 16.4494C17.425 15.2125 18.7404 14.1064 19.7105 12.876C20.6447 11.6911 21.1719 10.4945 21.1719 9.09472C21.1719 7.77672 20.7257 6.77377 20.0696 6.10744C19.4156 5.44324 18.442 5 17.1684 5C15.9985 5 14.7611 5.91618 13.8649 6.87054L12.4981 8.32609ZM11.7377 21.5287C10.6548 20.2241 9.24417 19.0469 7.87925 17.9079L7.85937 17.8913C4.95515 15.4702 1.95312 12.9672 1.95312 9.09472C1.95312 5.58019 4.37028 3.125 7.83253 3.125C9.26128 3.125 10.5406 3.86229 11.4998 4.64957C11.8891 4.96914 12.2257 5.29694 12.4981 5.58702C12.769 5.29851 13.1037 4.97268 13.4909 4.65475C14.4519 3.86553 15.7359 3.125 17.1684 3.125C20.6297 3.125 23.0469 5.58019 23.0469 9.09472C23.0469 12.9672 20.0445 15.4699 17.1419 17.8894L17.1397 17.8913C15.7676 19.0345 14.3495 20.2177 13.2594 21.5287C13.0772 21.7472 12.7819 21.875 12.499 21.875C12.2172 21.875 11.9209 21.7482 11.7377 21.5287Z" fill="#C7C7D0"/>
</svg>
