<svg width="20" height="20" viewBox="0 0 20 20" fill="none" xmlns="http://www.w3.org/2000/svg">
<path d="M7.81409 9C8.32488 9 8.73052 9.1659 9.03099 9.49769C9.33146 9.82949 9.48169 10.2581 9.48169 10.7834C9.48169 11.7511 9.18122 12.6912 8.58028 13.6037C7.9493 14.5438 7.15305 15.3871 6.19155 16.1336C5.2 16.9078 4.1784 17.5161 3.12676 17.9585C3.06667 17.9862 2.99155 18 2.90141 18C2.63099 18 2.39061 17.9032 2.18028 17.7097C1.93991 17.5438 1.93991 17.4194 2.18028 17.3364C3.0216 16.977 3.77277 16.4654 4.4338 15.8018C5.09484 15.1382 5.59061 14.4885 5.92113 13.8525C5.01972 13.7696 4.56902 13.2442 4.56902 12.2765C4.56902 11.7235 4.73427 11.1982 5.06479 10.7005C5.39531 10.2028 5.81596 9.78802 6.32676 9.45622C6.80751 9.15207 7.30329 9 7.81409 9ZM16.3324 9C16.8432 9 17.2488 9.1659 17.5493 9.49769C17.8498 9.82949 18 10.2581 18 10.7834C18 11.7512 17.6995 12.6912 17.0986 13.6037C16.4676 14.5438 15.6714 15.3871 14.7099 16.1336C13.7183 16.9078 12.6967 17.5161 11.6451 17.9585C11.585 17.9862 11.5099 18 11.4197 18C11.1493 18 10.9089 17.9032 10.6986 17.7097C10.4582 17.5438 10.4582 17.4194 10.6986 17.3364C11.5399 16.977 12.2911 16.4654 12.9521 15.8018C13.6131 15.1382 14.1089 14.4885 14.4394 13.8525C13.538 13.7696 13.0873 13.2442 13.0873 12.2765C13.0873 11.7235 13.2526 11.1982 13.5831 10.7005C13.9136 10.2028 14.3343 9.78802 14.8451 9.45622C15.3258 9.15207 15.8216 9 16.3324 9Z" fill="#C7C7D0"/>
</svg>
