<svg width="40" height="40" viewBox="0 0 40 40" fill="none" xmlns="http://www.w3.org/2000/svg">
<path d="M36.0158 10.8137C33.5124 6.73777 28.8888 7.33285 28.8888 7.33285C27.425 -0.162753 19.8169 0.000283344 19.8006 0.000283344C19.7843 0.000283344 12.1762 -0.162753 10.7083 7.33285C10.7083 7.33285 6.08475 6.73369 3.58133 10.8137C1.08198 14.8896 -1.22167 23.8607 19.8006 38.5666C40.8229 23.8566 38.5192 14.8896 36.0158 10.8096V10.8137Z" fill="#DE5EE0"/>
<path d="M19.7917 40C25.2335 32.853 33.0914 33.6714 33.1566 33.6811L35.2107 30.5641C32.6903 29.9316 24.7281 29.1849 19.7787 34.2811C15.5139 29.436 6.86706 29.9316 4.34668 30.5641L6.4008 33.6811C6.46601 33.6714 14.3728 33.4236 19.7656 40" fill="#FF675D"/>
<mask id="path-3-inside-1_1650_7464" fill="white">
<path d="M19.546 14.7476L19.2096 15.0716C19.2531 15.1168 19.3054 15.1527 19.3632 15.1773C19.421 15.2019 19.4832 15.2145 19.546 15.2145C19.6088 15.2145 19.6709 15.2019 19.7288 15.1773C19.7866 15.1527 19.8388 15.1168 19.8824 15.0716L19.546 14.7476ZM16.4316 21.5507C16.3358 21.4719 16.2126 21.4344 16.0891 21.4464C15.9656 21.4585 15.8519 21.5191 15.7731 21.6149C15.6943 21.7107 15.6568 21.8339 15.6688 21.9574C15.6808 22.0809 15.7414 22.1946 15.8373 22.2734L16.4316 21.5507ZM13.5291 19.6761C13.5585 19.73 13.5983 19.7775 13.6461 19.8159C13.6939 19.8544 13.7488 19.8831 13.8077 19.9003C13.8666 19.9175 13.9283 19.923 13.9893 19.9164C14.0503 19.9098 14.1094 19.8912 14.1633 19.8618C14.2171 19.8323 14.2646 19.7926 14.3031 19.7447C14.3415 19.6969 14.3702 19.642 14.3875 19.5831C14.4047 19.5242 14.4102 19.4625 14.4036 19.4015C14.3969 19.3405 14.3784 19.2814 14.3489 19.2276L13.5291 19.6761ZM13.7833 17.0134C13.7833 15.674 14.5402 14.5501 15.5737 14.0772C16.578 13.6181 17.9274 13.7396 19.2096 15.0716L19.8824 14.4243C18.3623 12.8437 16.5955 12.5827 15.185 13.2275C13.8057 13.8586 12.8488 15.3239 12.8488 17.0134H13.7833ZM17.3636 23.4696C17.6832 23.7213 18.0259 23.9891 18.3729 24.1922C18.7199 24.3947 19.1161 24.5598 19.546 24.5598V23.6253C19.3528 23.6253 19.1261 23.5505 18.8445 23.3855C18.5623 23.221 18.2701 22.9942 17.9424 22.7357L17.3636 23.4696ZM21.7283 23.4696C22.6167 22.7687 23.7531 21.9663 24.644 20.9626C25.5517 19.9409 26.2432 18.6743 26.2432 17.0134H25.3087C25.3087 18.3828 24.748 19.4375 23.9456 20.3421C23.1263 21.2641 22.094 21.9912 21.1496 22.7357L21.7283 23.4696ZM26.2432 17.0134C26.2432 15.3239 25.2869 13.8586 23.907 13.2275C22.4965 12.5827 20.7309 12.8437 19.2096 14.4236L19.8824 15.0716C21.1645 13.7402 22.5139 13.6181 23.5182 14.0772C24.5518 14.5501 25.3087 15.6734 25.3087 17.0134H26.2432ZM21.1496 22.7357C20.8219 22.9942 20.5297 23.221 20.2475 23.3855C19.9659 23.5499 19.7391 23.6253 19.546 23.6253V24.5598C19.9758 24.5598 20.3721 24.3947 20.7191 24.1922C21.0667 23.9891 21.4087 23.7213 21.7283 23.4696L21.1496 22.7357ZM17.9424 22.7357C17.4465 22.345 16.9425 21.9712 16.4316 21.5507L15.8373 22.2734C16.3544 22.6989 16.9014 23.1051 17.3636 23.4696L17.9424 22.7357ZM14.3489 19.2282C13.9736 18.5506 13.7788 17.788 13.7833 17.0134H12.8488C12.8488 18.0339 13.1104 18.9105 13.5291 19.6761L14.3489 19.2282Z"/>
</mask>
<path d="M19.546 14.7476L19.2096 15.0716C19.2531 15.1168 19.3054 15.1527 19.3632 15.1773C19.421 15.2019 19.4832 15.2145 19.546 15.2145C19.6088 15.2145 19.6709 15.2019 19.7288 15.1773C19.7866 15.1527 19.8388 15.1168 19.8824 15.0716L19.546 14.7476ZM16.4316 21.5507C16.3358 21.4719 16.2126 21.4344 16.0891 21.4464C15.9656 21.4585 15.8519 21.5191 15.7731 21.6149C15.6943 21.7107 15.6568 21.8339 15.6688 21.9574C15.6808 22.0809 15.7414 22.1946 15.8373 22.2734L16.4316 21.5507ZM13.5291 19.6761C13.5585 19.73 13.5983 19.7775 13.6461 19.8159C13.6939 19.8544 13.7488 19.8831 13.8077 19.9003C13.8666 19.9175 13.9283 19.923 13.9893 19.9164C14.0503 19.9098 14.1094 19.8912 14.1633 19.8618C14.2171 19.8323 14.2646 19.7926 14.3031 19.7447C14.3415 19.6969 14.3702 19.642 14.3875 19.5831C14.4047 19.5242 14.4102 19.4625 14.4036 19.4015C14.3969 19.3405 14.3784 19.2814 14.3489 19.2276L13.5291 19.6761ZM13.7833 17.0134C13.7833 15.674 14.5402 14.5501 15.5737 14.0772C16.578 13.6181 17.9274 13.7396 19.2096 15.0716L19.8824 14.4243C18.3623 12.8437 16.5955 12.5827 15.185 13.2275C13.8057 13.8586 12.8488 15.3239 12.8488 17.0134H13.7833ZM17.3636 23.4696C17.6832 23.7213 18.0259 23.9891 18.3729 24.1922C18.7199 24.3947 19.1161 24.5598 19.546 24.5598V23.6253C19.3528 23.6253 19.1261 23.5505 18.8445 23.3855C18.5623 23.221 18.2701 22.9942 17.9424 22.7357L17.3636 23.4696ZM21.7283 23.4696C22.6167 22.7687 23.7531 21.9663 24.644 20.9626C25.5517 19.9409 26.2432 18.6743 26.2432 17.0134H25.3087C25.3087 18.3828 24.748 19.4375 23.9456 20.3421C23.1263 21.2641 22.094 21.9912 21.1496 22.7357L21.7283 23.4696ZM26.2432 17.0134C26.2432 15.3239 25.2869 13.8586 23.907 13.2275C22.4965 12.5827 20.7309 12.8437 19.2096 14.4236L19.8824 15.0716C21.1645 13.7402 22.5139 13.6181 23.5182 14.0772C24.5518 14.5501 25.3087 15.6734 25.3087 17.0134H26.2432ZM21.1496 22.7357C20.8219 22.9942 20.5297 23.221 20.2475 23.3855C19.9659 23.5499 19.7391 23.6253 19.546 23.6253V24.5598C19.9758 24.5598 20.3721 24.3947 20.7191 24.1922C21.0667 23.9891 21.4087 23.7213 21.7283 23.4696L21.1496 22.7357ZM17.9424 22.7357C17.4465 22.345 16.9425 21.9712 16.4316 21.5507L15.8373 22.2734C16.3544 22.6989 16.9014 23.1051 17.3636 23.4696L17.9424 22.7357ZM14.3489 19.2282C13.9736 18.5506 13.7788 17.788 13.7833 17.0134H12.8488C12.8488 18.0339 13.1104 18.9105 13.5291 19.6761L14.3489 19.2282Z" fill="#0F0629"/>
<path d="M17.9424 22.7357L23.3806 27.0244L12.5055 18.4453L17.9424 22.7357ZM21.7283 23.4696L16.2901 27.7583L27.1678 19.1825L21.7283 23.4696ZM23.0902 27.3923L23.3793 27.026L12.5055 18.4453L12.2164 18.8117L23.0902 27.3923ZM15.9992 27.389L16.2889 27.7566L27.1678 19.1825L26.8781 18.8149L15.9992 27.389ZM21.1864 26.6726L21.7808 25.95L11.0824 17.1515L10.4881 17.8742L21.1864 26.6726ZM12.8488 23.9392H13.7833V10.0876H12.8488V23.9392ZM26.4718 24.5598V23.6253H12.6202V24.5598H26.4718ZM12.5042 18.447L11.9254 19.1809L22.8018 27.7583L23.3806 27.0244L12.5042 18.447ZM26.2432 10.0876H25.3087V23.9392H26.2432V10.0876ZM15.7114 27.0244L16.2901 27.7583L27.1665 19.1809L26.5878 18.447L15.7114 27.0244ZM17.9424 22.7357L26.5221 11.8611L26.5135 11.8543L17.9424 22.7357ZM19.546 14.7476L29.154 4.76999L19.546 -4.48222L9.93791 4.76999L19.546 14.7476ZM19.2096 15.0716L9.23005 24.6776L9.23639 24.6842L19.2096 15.0716ZM19.8824 15.0716L29.8556 24.6842L29.8597 24.68L19.8824 15.0716ZM21.7283 23.4696L30.2983 34.3518L30.3077 34.3444L21.7283 23.4696ZM16.4316 21.5507L25.2349 10.8564L25.2301 10.8524L16.4316 21.5507ZM15.8373 22.2734L24.6388 11.5776L24.6357 11.5751L15.8373 22.2734ZM13.5291 19.6761L1.3756 26.3215L1.37727 26.3245L13.5291 19.6761ZM14.3489 19.2276L26.5007 12.5792L19.8523 0.427364L7.70053 7.07577L14.3489 19.2276ZM13.7833 17.0134L27.6347 17.0922L27.6349 17.0528V17.0134H13.7833ZM15.5737 14.0772L9.81424 1.4798L9.81103 1.48127L15.5737 14.0772ZM19.8824 14.4243L29.4857 24.4065L39.4665 14.8046L29.866 4.8224L19.8824 14.4243ZM15.185 13.2275L9.42592 0.62984L9.42188 0.631687L15.185 13.2275ZM17.3636 23.4696L8.78767 34.3471L8.79361 34.3518L17.3636 23.4696ZM18.3729 24.1922L11.3761 36.1468L11.3841 36.1515L11.3921 36.1562L18.3729 24.1922ZM18.8445 23.3855L25.8502 11.4361L25.8346 11.4269L25.819 11.4178L18.8445 23.3855ZM24.644 20.9626L14.2887 11.7628L14.2848 11.7673L24.644 20.9626ZM23.9456 20.3421L34.3004 29.5425L34.3079 29.534L23.9456 20.3421ZM21.1496 22.7357L12.5746 11.8573L12.5698 11.8611L21.1496 22.7357ZM23.907 13.2275L29.6679 0.630702L29.666 0.629841L23.907 13.2275ZM19.2096 14.4236L9.23181 4.81572L-0.375956 14.7933L9.6015 24.4012L19.2096 14.4236ZM23.5182 14.0772L29.2809 1.48127L29.2777 1.4798L23.5182 14.0772ZM20.2475 23.3855L13.273 11.4178L13.2615 11.4246L20.2475 23.3855ZM20.7191 24.1922L27.6999 36.1562L27.7065 36.1523L20.7191 24.1922ZM14.3489 19.2282L20.9902 31.3839L33.2164 24.7041L26.466 12.5167L14.3489 19.2282ZM9.93791 4.76999L9.6015 5.09395L28.8176 25.0492L29.154 24.7252L9.93791 4.76999ZM9.23639 24.6842C10.5721 26.07 12.1735 27.1723 13.9449 27.9252L24.7815 2.4294C26.4373 3.13317 27.9342 4.16354 29.1827 5.45888L9.23639 24.6842ZM13.9449 27.9252C15.7163 28.6781 17.6213 29.0662 19.546 29.0662V1.36292C21.3451 1.36292 23.1257 1.72563 24.7815 2.4294L13.9449 27.9252ZM19.546 29.0662C21.4707 29.0662 23.3757 28.6781 25.1471 27.9252L14.3104 2.4294C15.9662 1.72563 17.7469 1.36292 19.546 1.36292V29.0662ZM25.1471 27.9252C26.9185 27.1723 28.5199 26.07 29.8556 24.6842L9.90923 5.45888C11.1578 4.16354 12.6546 3.13317 14.3104 2.4294L25.1471 27.9252ZM29.4905 5.09395L29.154 4.76999L9.93791 24.7252L10.2743 25.0492L29.4905 5.09395ZM25.2301 10.8524C22.2969 8.44007 18.5255 7.29178 14.7457 7.66011L17.4325 35.2328C13.8996 35.577 10.3747 34.5038 7.63315 32.2491L25.2301 10.8524ZM14.7457 7.66011C10.9658 8.02844 7.48706 9.88325 5.07476 12.8164L26.4714 30.4134C24.2168 33.1549 20.9654 34.8885 17.4325 35.2328L14.7457 7.66011ZM5.07476 12.8164C2.66247 15.7496 1.51415 19.521 1.88248 23.3009L29.4551 20.614C29.7994 24.1469 28.7261 27.6718 26.4714 30.4134L5.07476 12.8164ZM1.88248 23.3009C2.25082 27.0807 4.10561 30.5594 7.03881 32.9717L24.6357 11.5751C27.3773 13.8297 29.1109 17.0811 29.4551 20.614L1.88248 23.3009ZM1.37727 26.3245C2.2798 27.9742 3.49841 29.4299 4.96353 30.6085L22.3287 9.02331C23.6982 10.1251 24.8372 11.4858 25.6809 13.0277L1.37727 26.3245ZM4.96353 30.6085C6.42866 31.7872 8.11159 32.6658 9.91623 33.1941L17.6992 6.60655C19.3861 7.10035 20.9592 7.92156 22.3287 9.02331L4.96353 30.6085ZM9.91623 33.1941C11.7209 33.7223 13.612 33.89 15.4814 33.6874L12.4973 6.14537C14.2447 5.95605 16.0123 6.11274 17.6992 6.60655L9.91623 33.1941ZM15.4814 33.6874C17.3508 33.4849 19.1621 32.9161 20.8117 32.0136L7.51488 7.70998C9.05683 6.86636 10.7499 6.3347 12.4973 6.14537L15.4814 33.6874ZM20.8117 32.0136C22.4613 31.1111 23.917 29.8925 25.0957 28.4273L3.51047 11.0622C4.61224 9.69266 5.97295 8.55359 7.51488 7.70998L20.8117 32.0136ZM25.0957 28.4273C26.2744 26.9622 27.1529 25.2793 27.6812 23.4746L1.09371 15.6916C1.58751 14.0048 2.40872 12.4317 3.51047 11.0622L25.0957 28.4273ZM27.6812 23.4746C28.2095 21.6699 28.3771 19.7789 28.1746 17.9095L0.632524 20.8935C0.4432 19.1461 0.599903 17.3785 1.09371 15.6916L27.6812 23.4746ZM28.1746 17.9095C27.972 16.0401 27.4033 14.2288 26.5007 12.5792L2.19713 25.876C1.3535 24.334 0.82185 22.641 0.632524 20.8935L28.1746 17.9095ZM7.70053 7.07577L6.88066 7.52433L20.1775 31.8279L20.9973 31.3794L7.70053 7.07577ZM27.6349 17.0134C27.6349 20.8609 25.4392 24.7962 21.3365 26.6732L9.81103 1.48127C3.64116 4.30402 -0.0683727 10.487 -0.0683727 17.0134H27.6349ZM21.3332 26.6747C19.2237 27.6392 16.7336 27.9731 14.2621 27.4199C11.8075 26.8705 10.1456 25.6288 9.23005 24.6776L29.1891 5.46546C24.3476 0.435752 16.819 -1.72273 9.81424 1.4798L21.3332 26.6747ZM28.8128 25.0538L29.4857 24.4065L10.2791 4.44204L9.60629 5.08933L28.8128 25.0538ZM29.866 4.8224C24.8096 -0.435013 16.8661 -2.77149 9.42592 0.629841L20.9441 25.8251C18.9491 26.7371 16.6534 27.0016 14.4453 26.5036C12.2564 26.01 10.7516 24.9128 9.89882 24.0261L29.866 4.8224ZM9.42188 0.631687C2.90233 3.61466 -1.00287 10.1418 -1.00287 17.0134H26.7004C26.7004 20.506 24.709 24.1025 20.9481 25.8233L9.42188 0.631687ZM8.79361 34.3518C8.99505 34.5104 10.0713 35.3832 11.3761 36.1468L25.3696 12.2376C25.5674 12.3534 25.7223 12.4535 25.8279 12.5243C25.934 12.5954 26.0088 12.6494 26.0448 12.6758C26.0808 12.7021 26.0937 12.7125 26.072 12.6957C26.0472 12.6766 26.012 12.6491 25.9336 12.5873L8.79361 34.3518ZM11.3921 36.1562C12.6937 36.9156 15.5971 38.4114 19.546 38.4114V10.7082C22.6351 10.7082 24.7461 11.8738 25.3536 12.2283L11.3921 36.1562ZM19.546 9.77368C22.8607 9.77368 25.1396 11.0195 25.8502 11.4361L11.8388 35.3348C13.1125 36.0816 15.845 37.4769 19.546 37.4769V9.77368ZM25.819 11.4178C26.2489 11.6684 26.5336 11.8757 26.6064 11.9292C26.6514 11.9622 26.6709 11.9776 26.6518 11.9628C26.6311 11.9468 26.596 11.9194 26.5221 11.8611L9.36265 33.6102C9.55661 33.7632 10.6048 34.6157 11.87 35.3531L25.819 11.4178ZM30.3077 34.3444C30.3774 34.2894 33.0449 32.364 35.0032 30.1579L14.2848 11.7673C14.5292 11.4919 14.6496 11.4165 14.4232 11.6014C14.3199 11.6858 14.1869 11.7905 13.9679 11.9596C13.7999 12.0894 13.4467 12.3599 13.149 12.5947L30.3077 34.3444ZM34.9992 30.1624C37.4506 27.4031 40.0948 22.9992 40.0948 17.0134H12.3916C12.3916 15.8435 12.6508 14.684 13.1016 13.6576C13.5273 12.6884 14.0246 12.0601 14.2887 11.7628L34.9992 30.1624ZM11.4571 17.0134C11.4571 15.7232 11.7384 14.4378 12.2443 13.2853C12.7219 12.1971 13.2844 11.4872 13.5833 11.1502L34.3079 29.534C36.6486 26.8953 39.1603 22.7057 39.1603 17.0134H11.4571ZM13.5908 11.1418C13.8736 10.8235 14.0403 10.7079 13.8428 10.8689C13.7497 10.9447 13.6242 11.0436 13.4014 11.2157C13.2216 11.3546 12.8815 11.6155 12.5746 11.8573L29.7245 33.614C29.8361 33.526 32.4124 31.6673 34.3004 29.5425L13.5908 11.1418ZM40.0948 17.0134C40.0948 10.1447 36.1926 3.61469 29.6679 0.630703L18.146 25.8243C14.3812 24.1025 12.3916 20.503 12.3916 17.0134H40.0948ZM29.666 0.629841C22.2238 -2.7724 14.2855 -0.432494 9.23181 4.81572L29.1873 24.0315C28.3374 24.9141 26.8348 26.0103 24.6465 26.5037C22.4379 27.0017 20.1421 26.7368 18.1479 25.8251L29.666 0.629841ZM9.6015 24.4012L10.2743 25.0492L29.4905 5.09395L28.8176 4.44603L9.6015 24.4012ZM29.8597 24.68C28.9447 25.63 27.2842 26.8705 24.8315 27.4198C22.3615 27.9729 19.8707 27.6403 17.7587 26.6747L29.2777 1.4798C22.2695 -1.72433 14.7429 0.43971 9.90514 5.46313L29.8597 24.68ZM17.7555 26.6732C13.6541 24.7968 11.4571 20.8619 11.4571 17.0134H39.1603C39.1603 10.4849 35.4494 4.3034 29.2809 1.48127L17.7555 26.6732ZM12.5698 11.8611C12.496 11.9194 12.4608 11.9468 12.4402 11.9628C12.4211 11.9776 12.4406 11.9622 12.4856 11.9292C12.5584 11.8757 12.8431 11.6684 13.273 11.4178L27.222 35.3531C28.4872 34.6157 29.5353 33.7632 29.7293 33.6102L12.5698 11.8611ZM13.2615 11.4246C13.9372 11.0299 16.2187 9.77368 19.546 9.77368V37.4769C23.2595 37.4769 25.9945 36.07 27.2335 35.3464L13.2615 11.4246ZM19.546 38.4114C23.4949 38.4114 26.3983 36.9156 27.6999 36.1562L13.7383 12.2283C14.3459 11.8738 16.4568 10.7082 19.546 10.7082V38.4114ZM27.7065 36.1523C29.0212 35.3842 30.1067 34.5027 30.2983 34.3518L13.1583 12.5873C13.0778 12.6508 13.0425 12.6784 13.017 12.6981C12.9948 12.7152 13.0082 12.7045 13.0449 12.6776C13.0818 12.6506 13.1581 12.5955 13.2661 12.5231C13.3738 12.4509 13.531 12.3494 13.7317 12.2322L27.7065 36.1523ZM26.5135 11.8543C25.5572 11.1011 25.6427 11.192 25.2349 10.8564L7.62832 32.2451C8.24225 32.7505 9.33574 33.589 9.37127 33.617L26.5135 11.8543ZM7.03576 32.9692C7.4618 33.3198 7.86239 33.6315 8.15071 33.8544C8.50098 34.1251 8.62602 34.2196 8.78767 34.3471L25.9396 12.592C25.6389 12.355 25.2594 12.0643 25.0913 11.9344C24.8613 11.7566 24.7298 11.6525 24.6388 11.5776L7.03576 32.9692ZM26.466 12.5167C27.2413 13.9165 27.6437 15.4921 27.6347 17.0922L-0.0681486 16.9347C-0.0860481 20.0839 0.705968 23.1848 2.23185 25.9397L26.466 12.5167ZM-1.00287 17.0134C-1.00287 20.542 -0.0646429 23.6875 1.3756 26.3215L25.6825 13.0308C26.2855 14.1335 26.7004 15.5258 26.7004 17.0134H-1.00287ZM20.1704 31.8318L20.9902 31.3839L7.70764 7.0725L6.88778 7.52044L20.1704 31.8318Z" fill="#FFBFF5" mask="url(#path-3-inside-1_1650_7464)"/>
</svg>
