<svg width="39" height="48" viewBox="0 0 39 48" fill="none" xmlns="http://www.w3.org/2000/svg">
<path d="M38.6679 9.15943C24.9073 6.35017 19.5431 0.050864 19.5 0C19.457 0.050864 14.0928 6.35408 0.332139 9.16334C0.332139 9.16334 -2.06239 35.237 19.5 46.2314C41.0625 35.237 38.6679 9.15943 38.6679 9.15943Z" fill="#EEEEF2"/>
<path d="M19.8717 47.9998C26.4019 39.4234 35.8312 40.4054 35.9095 40.4172L38.3744 36.6767C35.35 35.9177 25.7954 35.0217 19.856 41.1371C14.7383 35.323 4.3621 35.9177 1.33765 36.6767L3.80259 40.4172C3.88084 40.4054 13.3689 40.1081 19.8404 47.9998" fill="#EEEEF2"/>
<rect x="9.85333" y="16.6348" width="4.85714" height="23.3143" transform="rotate(-45 9.85333 16.6348)" fill="#D9D9D9"/>
<rect width="4.85714" height="23.3143" transform="matrix(-0.707107 -0.707107 -0.707107 0.707107 30.2531 16.6348)" fill="#D9D9D9"/>
</svg>
