<svg width="23" height="22" viewBox="0 0 23 22" fill="none" xmlns="http://www.w3.org/2000/svg">
<path d="M19.7188 11C19.7188 15.5564 16.0251 19.25 11.4688 19.25C10.3714 19.25 9.32403 19.0357 8.36628 18.6468C8.18298 18.5723 8.09133 18.5351 8.01724 18.5185C7.94477 18.5023 7.89114 18.4963 7.81687 18.4963C7.74095 18.4963 7.65825 18.5101 7.49285 18.5377L4.23145 19.0812C3.88992 19.1381 3.71915 19.1666 3.59567 19.1136C3.48759 19.0673 3.40147 18.9812 3.35511 18.8731C3.30215 18.7496 3.33061 18.5788 3.38753 18.2373L3.9311 14.9759C3.95867 14.8105 3.97245 14.7278 3.97244 14.6519C3.97243 14.5776 3.96649 14.524 3.95025 14.4515C3.93364 14.3774 3.89642 14.2858 3.82197 14.1025C3.43301 13.1447 3.21875 12.0974 3.21875 11C3.21875 6.44365 6.9124 2.75 11.4688 2.75C16.0251 2.75 19.7188 6.44365 19.7188 11Z" stroke="#AEADB3" stroke-width="1.36364" stroke-linecap="round" stroke-linejoin="round"/>
</svg>
