<svg width="14" height="14" viewBox="0 0 14 14" fill="none" xmlns="http://www.w3.org/2000/svg">
<path fill-rule="evenodd" clip-rule="evenodd" d="M12.6768 3.20909C12.6768 2.54133 12.1355 2 11.4678 2H1.79503C1.12727 2 0.585938 2.54133 0.585938 3.20909V9.7C0.585938 10.3678 1.12727 10.9091 1.79503 10.9091H4.29185L6.18629 12.9703C6.42581 13.2309 6.83698 13.2309 7.07649 12.9703L8.97094 10.9091H11.4678C12.1355 10.9091 12.6768 10.3678 12.6768 9.7V3.20909ZM3.13281 5.17933C3.13281 4.82788 3.41772 4.54297 3.76918 4.54297H9.49645C9.8479 4.54297 10.1328 4.82788 10.1328 5.17933C10.1328 5.53079 9.8479 5.8157 9.49645 5.8157H3.76918C3.41772 5.8157 3.13281 5.53079 3.13281 5.17933ZM3.13281 7.72621C3.13281 7.37475 3.41772 7.08984 3.76918 7.08984H9.49645C9.8479 7.08984 10.1328 7.37475 10.1328 7.72621C10.1328 8.07766 9.8479 8.36257 9.49645 8.36257H3.76918C3.41772 8.36257 3.13281 8.07766 3.13281 7.72621Z" fill="#949399"/>
</svg>
