<svg width="20" height="20" viewBox="0 0 20 20" fill="none" xmlns="http://www.w3.org/2000/svg">
<path fill-rule="evenodd" clip-rule="evenodd" d="M17.5001 9.16663C17.9603 9.16663 18.3334 9.53972 18.3334 9.99996C18.3334 14.6023 14.6025 18.3333 10.0001 18.3333C7.31815 18.3333 4.87429 17.0545 3.33319 15.0021L3.33341 17.5C3.33341 17.9273 3.01171 18.2795 2.59727 18.3277L2.50008 18.3333C2.07272 18.3333 1.72049 18.0116 1.67235 17.5971L1.66675 17.5V12.5C1.66675 12.0726 1.98845 11.7204 2.4029 11.6722L2.50008 11.6666H7.50008C7.96032 11.6666 8.33342 12.0397 8.33342 12.5C8.33342 12.9273 8.01171 13.2795 7.59727 13.3277L7.50008 13.3333L4.22509 13.3342C5.39649 15.3618 7.57678 16.6666 10.0001 16.6666C13.682 16.6666 16.6667 13.6819 16.6667 9.99996C16.6667 9.53972 17.0398 9.16663 17.5001 9.16663ZM17.5001 1.66663C17.9274 1.66663 18.2797 1.98833 18.3278 2.40277L18.3334 2.49996V7.49996C18.3334 7.92732 18.0117 8.27955 17.5973 8.32769L17.5001 8.33329H12.5001C12.0398 8.33329 11.6667 7.9602 11.6667 7.49996C11.6667 7.0726 11.9884 6.72037 12.4029 6.67223L12.5001 6.66663L15.7758 6.66655C14.6072 4.64327 12.4281 3.33329 10.0001 3.33329C6.31818 3.33329 3.33341 6.31806 3.33341 9.99996C3.33341 10.4602 2.96032 10.8333 2.50008 10.8333C2.03984 10.8333 1.66675 10.4602 1.66675 9.99996C1.66675 5.39759 5.39771 1.66663 10.0001 1.66663C12.6865 1.66663 15.1291 2.94955 16.6677 4.99853L16.6667 2.49996C16.6667 2.0726 16.9884 1.72037 17.4029 1.67223L17.5001 1.66663Z" fill="#1F1E2B"/>
</svg>
