<svg width="20" height="20" viewBox="0 0 20 20" fill="none" xmlns="http://www.w3.org/2000/svg">
<path d="M9.56048 5.00246L9.99856 5.47055L10.4366 5.00246C11.1573 4.23239 12.3423 3.26663 13.6395 3.26663C14.8418 3.26663 15.8285 3.69172 16.5145 4.39077C17.2014 5.09065 17.6223 6.10166 17.6223 7.33628C17.6223 8.68014 17.1079 9.80022 16.2967 10.8323C15.4741 11.8789 14.3743 12.8016 13.2322 13.7568C13.2322 13.7568 13.2322 13.7569 13.2321 13.7569L13.2221 13.7653C12.1643 14.6497 11.0185 15.6076 10.1301 16.6796L10.5921 17.0624L10.1306 16.679C10.0996 16.7163 10.0585 16.7333 10.021 16.7333H9.97763C9.93958 16.7333 9.89812 16.716 9.86714 16.6788L9.40581 17.0624L9.86811 16.68C8.98861 15.6169 7.85351 14.6664 6.80465 13.7882L6.76747 13.7571L6.76723 13.7569C5.62478 12.8013 4.52514 11.8784 3.70281 10.8318C2.89191 9.79973 2.37783 8.67983 2.37783 7.33628C2.37783 6.10166 2.79875 5.09066 3.48563 4.3908C4.17171 3.69175 5.15864 3.26663 6.36135 3.26663C7.65741 3.26663 8.83931 4.23189 9.56048 5.00246Z" stroke="#6A5DFD" stroke-width="1.2"/>
</svg>
