<svg width="19" height="18" viewBox="0 0 19 18" fill="none" xmlns="http://www.w3.org/2000/svg">
<path fill-rule="evenodd" clip-rule="evenodd" d="M3.84375 10.6875C2.91177 10.6875 2.15625 9.93198 2.15625 9C2.15625 8.06802 2.91177 7.3125 3.84375 7.3125C4.77573 7.3125 5.53125 8.06802 5.53125 9C5.53125 9.93198 4.77573 10.6875 3.84375 10.6875ZM9.46875 10.6875C8.53677 10.6875 7.78125 9.93198 7.78125 9C7.78125 8.06802 8.53677 7.3125 9.46875 7.3125C10.4007 7.3125 11.1562 8.06802 11.1562 9C11.1562 9.93198 10.4007 10.6875 9.46875 10.6875ZM15.0938 10.6875C14.1618 10.6875 13.4062 9.93198 13.4062 9C13.4062 8.06802 14.1618 7.3125 15.0938 7.3125C16.0257 7.3125 16.7812 8.06802 16.7812 9C16.7812 9.93198 16.0257 10.6875 15.0938 10.6875Z" fill="#1F1E2B"/>
</svg>
