<svg width="18" height="18" viewBox="0 0 18 18" fill="none" xmlns="http://www.w3.org/2000/svg">
<path fill-rule="evenodd" clip-rule="evenodd" d="M3.375 10.6875C2.44302 10.6875 1.6875 9.93198 1.6875 9C1.6875 8.06802 2.44302 7.3125 3.375 7.3125C4.30698 7.3125 5.0625 8.06802 5.0625 9C5.0625 9.93198 4.30698 10.6875 3.375 10.6875ZM9 10.6875C8.06802 10.6875 7.3125 9.93198 7.3125 9C7.3125 8.06802 8.06802 7.3125 9 7.3125C9.93198 7.3125 10.6875 8.06802 10.6875 9C10.6875 9.93198 9.93198 10.6875 9 10.6875ZM14.625 10.6875C13.693 10.6875 12.9375 9.93198 12.9375 9C12.9375 8.06802 13.693 7.3125 14.625 7.3125C15.557 7.3125 16.3125 8.06802 16.3125 9C16.3125 9.93198 15.557 10.6875 14.625 10.6875Z" fill="#C7C7D0"/>
</svg>
