<svg width="40" height="40" viewBox="0 0 40 40" fill="none" xmlns="http://www.w3.org/2000/svg">
<path d="M34.4831 21.3076V0H4.42928V21.3076C4.42928 21.3076 4.01963 27.4945 10.3023 30.9309C16.57 34.3597 19.4376 35.3228 19.4525 35.3303C19.4674 35.3266 22.3387 34.3597 28.6027 30.9309C34.8853 27.4945 34.4757 21.3076 34.4757 21.3076H34.4831Z" fill="#DDF742"/>
<path d="M19.5452 39.9999C25.3746 32.3438 33.7922 33.2205 33.862 33.2309L36.0625 29.8919C33.3626 29.2143 24.8333 28.4144 19.5312 33.8736C14.9627 28.6834 5.6999 29.2143 3 29.8919L5.20044 33.2309C5.27029 33.2205 13.7402 32.955 19.5173 39.9999" fill="#FF675D"/>
<path d="M17.3363 17.6283C17.3363 17.6283 18.3881 18.8303 20.141 18.8303C21.894 18.8303 22.9457 17.6283 22.9457 17.6283M22.3447 13.6215H22.3527M17.9373 13.6215H17.9453M20.141 22.4363C23.9029 22.4363 26.9524 19.3867 26.9524 15.6249C26.9524 11.8631 23.9029 8.81348 20.141 8.81348C16.3792 8.81348 13.3296 11.8631 13.3296 15.6249C13.3296 16.3862 13.4545 17.1183 13.6849 17.8018C13.7716 18.0591 13.8149 18.1877 13.8228 18.2865C13.8305 18.3841 13.8246 18.4525 13.8005 18.5474C13.7761 18.6434 13.7221 18.7433 13.6141 18.9431L12.3034 21.3692C12.1165 21.7153 12.023 21.8883 12.0439 22.0218C12.0621 22.1382 12.1306 22.2406 12.2311 22.3019C12.3465 22.3723 12.5421 22.352 12.9334 22.3116L17.0371 21.8874C17.1613 21.8746 17.2235 21.8681 17.2801 21.8703C17.3358 21.8724 17.3751 21.8777 17.4295 21.8902C17.4847 21.9029 17.5541 21.9297 17.693 21.9832C18.4527 22.2759 19.2781 22.4363 20.141 22.4363ZM22.7454 13.6215C22.7454 13.8428 22.566 14.0222 22.3447 14.0222C22.1234 14.0222 21.944 13.8428 21.944 13.6215C21.944 13.4003 22.1234 13.2209 22.3447 13.2209C22.566 13.2209 22.7454 13.4003 22.7454 13.6215ZM18.338 13.6215C18.338 13.8428 18.1586 14.0222 17.9373 14.0222C17.716 14.0222 17.5366 13.8428 17.5366 13.6215C17.5366 13.4003 17.716 13.2209 17.9373 13.2209C18.1586 13.2209 18.338 13.4003 18.338 13.6215Z" stroke="#758321" stroke-width="1.4" stroke-linecap="round" stroke-linejoin="round"/>
</svg>
