<svg width="20" height="20" viewBox="0 0 20 20" fill="none" xmlns="http://www.w3.org/2000/svg">
<path d="M13.3198 3.33337C11.8907 3.33337 10.6695 4.36969 9.99864 5.08415C9.32773 4.36969 8.10932 3.33337 6.68091 3.33337C4.21886 3.33337 2.5 5.07929 2.5 7.57851C2.5 10.3323 4.63477 12.1122 6.7 13.8338C7.675 14.6475 8.68409 15.4882 9.45795 16.4205C9.58818 16.5765 9.77909 16.6667 9.97955 16.6667H10.0191C10.2202 16.6667 10.4105 16.5758 10.54 16.4205C11.3152 15.4882 12.3236 14.6468 13.2993 13.8338C15.3639 12.1129 17.5 10.333 17.5 7.57851C17.5 5.07929 15.7811 3.33337 13.3198 3.33337Z" fill="#949399"/>
</svg>
