<svg width="92" height="31" viewBox="0 0 92 31" fill="none" xmlns="http://www.w3.org/2000/svg">
<g clip-path="url(#clip0_2126_25236)">
<path d="M23.1621 23.5875C16.8881 17.6117 6.8861 19.6231 4.59033 20.2021L5.6457 23.2552C5.70395 23.2449 16.7476 20.2672 23.1621 28.7993C29.5731 20.2672 40.6168 23.2483 40.6785 23.2552L41.7339 20.2021C39.4381 19.6265 29.4395 17.6151 23.1621 23.5875Z" fill="#111118"/>
<path d="M11.6628 15.7541C11.5771 15.2573 11.4401 14.7433 11.1317 13.7496L10.0866 10.3231C10.0009 10.0318 9.9324 9.8091 9.89814 9.65491C9.77821 10.049 9.77821 10.0832 9.69255 10.3231L8.64746 13.7496C8.4076 14.5034 8.18488 15.3429 8.11635 15.7541H5.2038C5.08387 15.1373 4.96394 14.6748 4.68982 13.7496L2.77097 7.53046C2.58251 6.93082 2.32552 6.17699 2 5.30322H5.68351C5.71778 5.90286 5.82057 6.51964 6.00903 7.32487L6.74574 10.3916C6.8314 10.8028 6.89993 11.0769 6.91706 11.214C7.05412 10.7685 7.13408 10.4944 7.15692 10.3916L8.11635 7.27347C8.42473 6.19983 8.60177 5.54308 8.64746 5.30322H11.1488C11.2002 5.64588 11.4058 6.46824 11.6628 7.27347L12.6565 10.5115C12.6908 10.6315 12.7936 11.0084 12.8621 11.214C12.8963 11.0427 12.9477 10.8028 13.0163 10.4944L13.7358 7.46193C13.9414 6.57104 14.0614 5.85147 14.0956 5.30322H17.7791C17.5222 5.95426 17.2652 6.72523 17.0082 7.53046L15.0893 13.7496C14.7809 14.7433 14.6781 15.1716 14.5753 15.7541H11.6628Z" fill="#111118"/>
<path d="M30.6287 15.7543C30.7315 14.932 30.7657 14.2124 30.7657 13.0645V4.18982C30.7657 2.93914 30.7315 2.32237 30.6287 1.5H34.1066C34.0209 2.32237 33.9867 2.93914 33.9867 4.18982V5.62896C33.9867 5.88595 33.9867 6.04014 33.9695 6.28C34.9803 5.3891 36.0768 4.99505 37.4988 4.99505C40.617 4.99505 42.433 6.98244 42.433 10.3747C42.433 12.2079 41.9019 13.6813 40.9082 14.7264C40.0173 15.6173 38.8523 16.0627 37.3446 16.0627C35.9226 16.0627 35.0831 15.7715 33.9695 14.8463C33.9695 14.8977 33.9867 15.1204 33.9867 15.2061V15.7543H30.6287ZM36.6936 7.59921C35.1345 7.59921 34.0209 8.7985 34.0209 10.4604C34.0209 12.1222 35.1517 13.4414 36.6251 13.4414C38.0985 13.4414 39.3594 12.225 39.3594 10.409C39.3594 8.59291 38.2013 7.59921 36.6936 7.59921Z" fill="#111118"/>
<path d="M47.2128 12.2595C47.3841 13.1504 47.9667 13.5444 49.1145 13.5444C50.1425 13.5444 50.725 13.2532 50.725 12.7221C50.725 12.4651 50.5879 12.2423 50.3481 12.1053C50.1082 11.9682 49.8855 11.8997 48.9432 11.7112C47.6411 11.4542 46.973 11.2829 46.4076 11.0945C45.5852 10.7861 45.0198 10.392 44.6943 9.87804C44.4202 9.41546 44.266 8.83295 44.266 8.25044C44.266 6.19453 45.9964 4.94385 48.8575 4.94385C50.4851 4.94385 51.7016 5.30363 52.5068 6.04034C53.0722 6.53718 53.3463 7.03403 53.6204 7.99345L50.3138 8.35324C50.2282 7.6508 49.7998 7.34241 48.8747 7.34241C47.9495 7.34241 47.4355 7.63367 47.4355 8.07912C47.4355 8.52457 47.7953 8.71302 49.4915 9.08994C51.1705 9.44973 51.7016 9.60392 52.3012 9.91231C53.4148 10.4606 53.9459 11.3001 53.9459 12.5336C53.9459 13.4416 53.6375 14.264 53.0722 14.8122C52.2498 15.6346 50.8449 16.0629 49.0117 16.0629C46.853 16.0629 45.3282 15.4804 44.5059 14.3497C44.1632 13.8699 43.9919 13.4588 43.8206 12.6364L47.2128 12.2595Z" fill="#111118"/>
<path d="M55.1006 10.5115C55.1006 7.08502 57.2936 4.90918 60.7544 4.90918C64.2151 4.90918 66.4081 7.08502 66.4081 10.4773C66.4081 13.8695 64.1466 16.1482 60.7372 16.1482C57.3278 16.1482 55.1006 13.9552 55.1006 10.5115ZM58.3729 10.4944C58.3729 12.3961 59.2638 13.544 60.7544 13.544C62.2449 13.544 63.1015 12.4304 63.1015 10.5287C63.1015 8.62696 62.2278 7.47907 60.7715 7.47907C59.3152 7.47907 58.3729 8.60983 58.3729 10.4944Z" fill="#111118"/>
<path d="M70.9797 12.2595C71.151 13.1504 71.7335 13.5444 72.8814 13.5444C73.9093 13.5444 74.4918 13.2532 74.4918 12.7221C74.4918 12.4651 74.3548 12.2423 74.1149 12.1053C73.8751 11.9682 73.6523 11.8997 72.7101 11.7112C71.408 11.4542 70.7398 11.2829 70.1744 11.0945C69.3521 10.7861 68.7867 10.392 68.4612 9.87804C68.187 9.41546 68.0329 8.83295 68.0329 8.25044C68.0329 6.19453 69.7632 4.94385 72.6244 4.94385C74.252 4.94385 75.4684 5.30363 76.2736 6.04034C76.839 6.53718 77.1131 7.03403 77.3873 7.99345L74.0807 8.35324C73.995 7.6508 73.5667 7.34241 72.6415 7.34241C71.7164 7.34241 71.2024 7.63367 71.2024 8.07912C71.2024 8.52457 71.5622 8.71302 73.2583 9.08994C74.9373 9.44973 75.4684 9.60392 76.0681 9.91231C77.1817 10.4606 77.7128 11.3001 77.7128 12.5336C77.7128 13.4416 77.4044 14.264 76.839 14.8122C76.0167 15.6346 74.6118 16.0629 72.7786 16.0629C70.6199 16.0629 69.0951 15.4804 68.2727 14.3497C67.9301 13.8699 67.7587 13.4588 67.5874 12.6364L70.9797 12.2595Z" fill="#111118"/>
<path d="M78.6924 10.5115C78.6924 7.08502 80.8854 4.90918 84.3461 4.90918C87.8069 4.90918 89.9999 7.08502 89.9999 10.4773C89.9999 13.8695 87.7384 16.1482 84.329 16.1482C80.9196 16.1482 78.6924 13.9552 78.6924 10.5115ZM81.9647 10.4944C81.9647 12.3961 82.8556 13.544 84.3461 13.544C85.8367 13.544 86.6933 12.4304 86.6933 10.5287C86.6933 8.62696 85.8195 7.47907 84.3633 7.47907C82.907 7.47907 81.9647 8.60983 81.9647 10.4944Z" fill="#111118"/>
<path d="M25.7152 12.5675C25.6124 12.7286 25.4822 12.8656 25.3691 12.9787C24.9236 13.3899 24.324 13.6126 23.6387 13.6126C22.2852 13.6126 21.48 12.8759 21.3087 11.4881H28.9532C28.9875 11.3888 29.0012 11.214 29.0012 11.1455C28.9498 10.1689 28.8813 9.44937 28.7442 8.90112C28.1446 6.34836 26.2771 4.89209 23.6044 4.89209C20.3321 4.89209 18.1562 7.13646 18.1562 10.5287C18.1562 12.2249 18.7045 13.6811 19.7153 14.7091C20.6919 15.6856 22.0111 16.1654 23.6901 16.1654C25.3691 16.1654 26.7568 15.6685 27.7334 14.7091C28.1754 14.2671 28.6791 13.64 28.847 12.5675H25.7152ZM23.6044 7.44485C24.7866 7.44485 25.5233 8.02736 25.7631 9.12385H21.36C21.6513 7.99309 22.388 7.44485 23.6044 7.44485Z" fill="#111118"/>
</g>
<defs>
<clipPath id="clip0_2126_25236">
<rect width="88" height="27.2991" fill="white" transform="translate(2 1.5)"/>
</clipPath>
</defs>
</svg>
