<svg width="25" height="24" viewBox="0 0 25 24" fill="none" xmlns="http://www.w3.org/2000/svg">
<path fill-rule="evenodd" clip-rule="evenodd" d="M13.3962 7.21745C13.3962 6.88728 13.1285 6.61963 12.7984 6.61963C12.4682 6.61963 12.2005 6.88728 12.2005 7.21745V11.4022H8.01579C7.68562 11.4022 7.41797 11.6699 7.41797 12C7.41797 12.3302 7.68562 12.5979 8.01579 12.5979H12.2005V16.7826C12.2005 17.1128 12.4682 17.3804 12.7984 17.3804C13.1285 17.3804 13.3962 17.1128 13.3962 16.7826V12.5979H17.5809C17.9111 12.5979 18.1788 12.3302 18.1788 12C18.1788 11.6699 17.9111 11.4022 17.5809 11.4022H13.3962V7.21745Z" fill="#6341F0"/>
</svg>
