<svg width="24" height="24" viewBox="0 0 24 24" fill="none" xmlns="http://www.w3.org/2000/svg">
<path fill-rule="evenodd" clip-rule="evenodd" d="M12.5979 7.21745C12.5979 6.88728 12.3302 6.61963 12 6.61963C11.6699 6.61963 11.4022 6.88728 11.4022 7.21745V11.4022H7.21745C6.88728 11.4022 6.61963 11.6699 6.61963 12C6.61963 12.3302 6.88728 12.5979 7.21745 12.5979H11.4022V16.7826C11.4022 17.1128 11.6699 17.3804 12 17.3804C12.3302 17.3804 12.5979 17.1128 12.5979 16.7826V12.5979H16.7826C17.1128 12.5979 17.3804 12.3302 17.3804 12C17.3804 11.6699 17.1128 11.4022 16.7826 11.4022H12.5979V7.21745Z" fill="#6341F0"/>
</svg>
