<svg width="33" height="40" viewBox="0 0 33 40" fill="none" xmlns="http://www.w3.org/2000/svg">
<path d="M31.2239 10.6032C31.2239 10.6032 27.3755 11.7377 24.1432 8.71951C21.4263 6.18397 22.3776 2.53553 22.3776 2.53553L16.7058 0L11.034 2.53553C11.034 2.53553 11.9817 6.18397 9.26834 8.71951C6.03608 11.7377 2.18763 10.6032 2.18763 10.6032L0.764282 11.9393C0.764282 11.9393 0.854372 21.1955 5.8415 28.2258C10.8142 35.2382 16.6806 39.0775 16.7094 39.0955C16.7418 39.0739 22.6046 35.2346 27.5773 28.2222C32.5644 21.1919 32.6545 11.9357 32.6545 11.9357L31.2311 10.5996L31.2239 10.6032Z" fill="#367AFF"/>
<mask id="path-2-inside-1_1559_25149" fill="white">
<path d="M16.6906 14.6634L16.3531 14.9885C16.3968 15.0338 16.4493 15.0699 16.5073 15.0946C16.5652 15.1192 16.6276 15.1319 16.6906 15.1319C16.7536 15.1319 16.816 15.1192 16.874 15.0946C16.932 15.0699 16.9844 15.0338 17.0282 14.9885L16.6906 14.6634ZM13.5659 21.4893C13.4697 21.4102 13.3461 21.3725 13.2222 21.3846C13.0983 21.3967 12.9843 21.4575 12.9052 21.5536C12.8261 21.6498 12.7885 21.7734 12.8005 21.8973C12.8126 22.0212 12.8734 22.1353 12.9696 22.2143L13.5659 21.4893ZM10.6537 19.6084C10.6832 19.6624 10.7231 19.7101 10.7711 19.7487C10.819 19.7873 10.8741 19.816 10.9332 19.8333C10.9923 19.8506 11.0542 19.8561 11.1155 19.8495C11.1767 19.8428 11.236 19.8242 11.29 19.7947C11.344 19.7651 11.3917 19.7252 11.4302 19.6772C11.4688 19.6293 11.4976 19.5742 11.5149 19.5151C11.5322 19.456 11.5377 19.3941 11.5311 19.3329C11.5244 19.2717 11.5058 19.2124 11.4763 19.1583L10.6537 19.6084ZM10.9087 16.9368C10.9087 15.5929 11.6681 14.4653 12.7052 13.9908C13.7128 13.5302 15.0667 13.6521 16.3531 14.9885L17.0282 14.339C15.503 12.7532 13.7303 12.4913 12.3151 13.1382C10.9312 13.7714 9.97107 15.2416 9.97107 16.9368H10.9087ZM14.501 23.4145C14.8217 23.667 15.1654 23.9358 15.5136 24.1396C15.8618 24.3427 16.2593 24.5084 16.6906 24.5084V23.5708C16.4969 23.5708 16.2693 23.4957 15.9868 23.3301C15.7036 23.1651 15.4105 22.9376 15.0817 22.6781L14.501 23.4145ZM18.8803 23.4145C19.7716 22.7113 20.9118 21.9062 21.8056 20.8992C22.7164 19.8741 23.4102 18.6033 23.4102 16.9368H22.4726C22.4726 18.3107 21.91 19.369 21.1049 20.2766C20.2829 21.2017 19.2472 21.9312 18.2996 22.6781L18.8803 23.4145ZM23.4102 16.9368C23.4102 15.2416 22.4507 13.7714 21.0662 13.1382C19.651 12.4913 17.8795 12.7532 16.3531 14.3384L17.0282 14.9885C18.3146 13.6527 19.6685 13.5302 20.6761 13.9908C21.7131 14.4653 22.4726 15.5923 22.4726 16.9368H23.4102ZM18.2996 22.6781C17.9708 22.9376 17.6776 23.1651 17.3945 23.3301C17.1119 23.4951 16.8844 23.5708 16.6906 23.5708V24.5084C17.1219 24.5084 17.5195 24.3427 17.8677 24.1396C18.2164 23.9358 18.5596 23.667 18.8803 23.4145L18.2996 22.6781ZM15.0817 22.6781C14.5841 22.2862 14.0784 21.9112 13.5659 21.4893L12.9696 22.2143C13.4884 22.6413 14.0372 23.0488 14.501 23.4145L15.0817 22.6781ZM11.4763 19.159C11.0997 18.4792 10.9043 17.7139 10.9087 16.9368H9.97107C9.97107 17.9607 10.2336 18.8402 10.6537 19.6084L11.4763 19.159Z"/>
</mask>
<path d="M16.6906 14.6634L16.3531 14.9885C16.3968 15.0338 16.4493 15.0699 16.5073 15.0946C16.5652 15.1192 16.6276 15.1319 16.6906 15.1319C16.7536 15.1319 16.816 15.1192 16.874 15.0946C16.932 15.0699 16.9844 15.0338 17.0282 14.9885L16.6906 14.6634ZM13.5659 21.4893C13.4697 21.4102 13.3461 21.3725 13.2222 21.3846C13.0983 21.3967 12.9843 21.4575 12.9052 21.5536C12.8261 21.6498 12.7885 21.7734 12.8005 21.8973C12.8126 22.0212 12.8734 22.1353 12.9696 22.2143L13.5659 21.4893ZM10.6537 19.6084C10.6832 19.6624 10.7231 19.7101 10.7711 19.7487C10.819 19.7873 10.8741 19.816 10.9332 19.8333C10.9923 19.8506 11.0542 19.8561 11.1155 19.8495C11.1767 19.8428 11.236 19.8242 11.29 19.7947C11.344 19.7651 11.3917 19.7252 11.4302 19.6772C11.4688 19.6293 11.4976 19.5742 11.5149 19.5151C11.5322 19.456 11.5377 19.3941 11.5311 19.3329C11.5244 19.2717 11.5058 19.2124 11.4763 19.1583L10.6537 19.6084ZM10.9087 16.9368C10.9087 15.5929 11.6681 14.4653 12.7052 13.9908C13.7128 13.5302 15.0667 13.6521 16.3531 14.9885L17.0282 14.339C15.503 12.7532 13.7303 12.4913 12.3151 13.1382C10.9312 13.7714 9.97107 15.2416 9.97107 16.9368H10.9087ZM14.501 23.4145C14.8217 23.667 15.1654 23.9358 15.5136 24.1396C15.8618 24.3427 16.2593 24.5084 16.6906 24.5084V23.5708C16.4969 23.5708 16.2693 23.4957 15.9868 23.3301C15.7036 23.1651 15.4105 22.9376 15.0817 22.6781L14.501 23.4145ZM18.8803 23.4145C19.7716 22.7113 20.9118 21.9062 21.8056 20.8992C22.7164 19.8741 23.4102 18.6033 23.4102 16.9368H22.4726C22.4726 18.3107 21.91 19.369 21.1049 20.2766C20.2829 21.2017 19.2472 21.9312 18.2996 22.6781L18.8803 23.4145ZM23.4102 16.9368C23.4102 15.2416 22.4507 13.7714 21.0662 13.1382C19.651 12.4913 17.8795 12.7532 16.3531 14.3384L17.0282 14.9885C18.3146 13.6527 19.6685 13.5302 20.6761 13.9908C21.7131 14.4653 22.4726 15.5923 22.4726 16.9368H23.4102ZM18.2996 22.6781C17.9708 22.9376 17.6776 23.1651 17.3945 23.3301C17.1119 23.4951 16.8844 23.5708 16.6906 23.5708V24.5084C17.1219 24.5084 17.5195 24.3427 17.8677 24.1396C18.2164 23.9358 18.5596 23.667 18.8803 23.4145L18.2996 22.6781ZM15.0817 22.6781C14.5841 22.2862 14.0784 21.9112 13.5659 21.4893L12.9696 22.2143C13.4884 22.6413 14.0372 23.0488 14.501 23.4145L15.0817 22.6781ZM11.4763 19.159C11.0997 18.4792 10.9043 17.7139 10.9087 16.9368H9.97107C9.97107 17.9607 10.2336 18.8402 10.6537 19.6084L11.4763 19.159Z" fill="#367AFF"/>
<path d="M15.0817 22.6781L56.6749 55.4796L-26.5016 -10.1359L15.0817 22.6781ZM18.8803 23.4145L-22.713 56.2159L60.4834 -9.37441L18.8803 23.4145ZM56.375 55.8597L56.665 55.4922L-26.5016 -10.1359L-26.7917 -9.76832L56.375 55.8597ZM-23.0135 55.8346L-22.7228 56.2034L60.4834 -9.37441L60.1927 -9.74321L-23.0135 55.8346ZM53.8819 55.8612L54.4782 55.1361L-27.3465 -12.1576L-27.9428 -11.4325L53.8819 55.8612ZM9.97107 69.9079H10.9087V-36.0342H9.97107V69.9079ZM69.6617 24.5084V23.5708H-36.2804V24.5084H69.6617ZM-26.5115 -10.1233L-27.0922 -9.38695L56.0942 56.2159L56.6749 55.4796L-26.5115 -10.1233ZM23.4102 -36.0342H22.4726V69.9079H23.4102V-36.0342ZM-23.2937 55.4796L-22.713 56.2159L60.4735 -9.38695L59.8928 -10.1233L-23.2937 55.4796ZM15.0817 22.6781L80.7025 -60.4942L80.6695 -60.5202L80.6365 -60.5462L15.0817 22.6781ZM16.6906 14.6634L90.1765 -61.6488L16.6906 -132.413L-56.7952 -61.6488L16.6906 14.6634ZM16.3531 14.9885L-59.9737 88.4592L-59.9494 88.4844L-59.9252 88.5095L16.3531 14.9885ZM17.0282 14.9885L93.3065 88.5095L93.3221 88.4933L93.3378 88.477L17.0282 14.9885ZM18.8803 23.4145L84.4267 106.645L84.4625 106.617L84.4983 106.589L18.8803 23.4145ZM13.5659 21.4893L80.8965 -60.305L80.8781 -60.3202L80.8596 -60.3354L13.5659 21.4893ZM12.9696 22.2143L80.2866 -59.5912L80.275 -59.6007L80.2633 -59.6103L12.9696 22.2143ZM10.6537 19.6084L-82.3004 70.4343L-82.294 70.446L-82.2876 70.4577L10.6537 19.6084ZM11.4763 19.1583L104.417 -31.691L53.5682 -124.632L-39.3731 -73.7829L11.4763 19.1583ZM10.9087 16.9368L116.849 17.539L116.851 17.2379V16.9368H10.9087ZM12.7052 13.9908L-31.3455 -82.3588L-31.3578 -82.3532L-31.3701 -82.3476L12.7052 13.9908ZM17.0282 14.339L90.4773 90.6865L166.814 17.2477L93.386 -59.0994L17.0282 14.339ZM12.3151 13.1382L-31.7324 -83.2129L-31.7478 -83.2059L-31.7632 -83.1988L12.3151 13.1382ZM14.501 23.4145L-51.0909 106.61L-51.0681 106.628L-51.0454 106.645L14.501 23.4145ZM15.5136 24.1396L-38.0002 115.573L-37.939 115.608L-37.8777 115.644L15.5136 24.1396ZM15.9868 23.3301L69.569 -68.0629L69.4497 -68.1328L69.3302 -68.2024L15.9868 23.3301ZM21.8056 20.8992L-57.3951 -49.4639L-57.4102 -49.4469L-57.4253 -49.4299L21.8056 20.8992ZM21.1049 20.2766L100.302 90.6441L100.331 90.6117L100.359 90.5793L21.1049 20.2766ZM18.2996 22.6781L-47.2845 -60.5231L-47.3029 -60.5087L-47.3212 -60.4942L18.2996 22.6781ZM21.0662 13.1382L65.128 -83.2063L65.1208 -83.2096L65.1136 -83.2129L21.0662 13.1382ZM16.3531 14.3384L-59.9602 -59.1463L-133.444 17.1659L-57.1328 90.6506L16.3531 14.3384ZM20.6761 13.9908L64.7514 -82.3476L64.7391 -82.3532L64.7268 -82.3588L20.6761 13.9908ZM17.3945 23.3301L-35.949 -68.2024L-35.993 -68.1768L-36.037 -68.1511L17.3945 23.3301ZM17.8677 24.1396L71.259 115.644L71.2845 115.629L71.3099 115.614L17.8677 24.1396ZM11.4763 19.159L62.2712 112.13L155.781 61.0404L104.152 -32.1727L11.4763 19.159ZM-56.7952 -61.6488L-57.1328 -61.3238L89.8389 91.3007L90.1765 90.9756L-56.7952 -61.6488ZM-59.9252 88.5095C-49.999 98.808 -38.0982 107 -24.934 112.595L57.9485 -82.4059C70.9967 -76.86 82.7926 -68.7404 92.6314 -58.5326L-59.9252 88.5095ZM-24.934 112.595C-11.7698 118.19 2.3871 121.074 16.6906 121.074V-90.8101C30.8681 -90.8101 44.9003 -87.9519 57.9485 -82.4059L-24.934 112.595ZM16.6906 121.074C30.9942 121.074 45.1511 118.19 58.3152 112.595L-24.5672 -82.4059C-11.519 -87.9519 2.51314 -90.8101 16.6906 -90.8101V121.074ZM58.3152 112.595C71.4794 107 83.3802 98.808 93.3065 88.5095L-59.2501 -58.5326C-49.4113 -68.7404 -37.6154 -76.86 -24.5672 -82.4059L58.3152 112.595ZM90.514 -61.3238L90.1765 -61.6488L-56.7952 90.9756L-56.4577 91.3007L90.514 -61.3238ZM80.8596 -60.3354C59.0622 -78.2619 31.0363 -86.7952 2.94727 -84.058L23.4971 126.827C-4.3441 129.54 -32.1228 121.082 -53.7279 103.314L80.8596 -60.3354ZM2.94727 -84.058C-25.142 -81.3209 -50.9932 -67.5373 -68.9195 -45.7401L94.7298 88.8474C76.9617 110.452 51.3386 124.114 23.4971 126.827L2.94727 -84.058ZM-68.9195 -45.7401C-86.8458 -23.9429 -95.3793 4.08299 -92.6421 32.1722L118.243 11.6224C120.956 39.4638 112.498 67.2424 94.7298 88.8474L-68.9195 -45.7401ZM-92.6421 32.1722C-89.9049 60.2613 -76.1215 86.1126 -54.3242 104.039L80.2633 -59.6103C101.868 -41.842 115.53 -16.2189 118.243 11.6224L-92.6421 32.1722ZM-82.2876 70.4577C-75.5804 82.7169 -66.5243 93.535 -55.6362 102.294L77.1784 -62.797C87.9705 -54.1149 96.9468 -43.3921 103.595 -31.2409L-82.2876 70.4577ZM-55.6362 102.294C-44.7482 111.054 -32.2415 117.583 -18.8303 121.509L40.6967 -81.8419C53.9898 -77.9507 66.3863 -71.4792 77.1784 -62.797L-55.6362 102.294ZM-18.8303 121.509C-5.41865 125.435 8.63457 126.68 22.527 125.175L-0.296111 -85.4762C13.4739 -86.9681 27.4033 -85.7333 40.6967 -81.8419L-18.8303 121.509ZM22.527 125.175C36.4199 123.67 49.8802 119.443 62.1393 112.736L-39.5593 -73.1466C-27.4082 -79.7946 -14.0666 -83.9842 -0.296111 -85.4762L22.527 125.175ZM62.1393 112.736C74.3983 106.029 85.2164 96.9728 93.9759 86.0846L-71.1155 -46.7301C-62.4331 -57.5224 -51.7103 -66.4986 -39.5593 -73.1466L62.1393 112.736ZM93.9759 86.0846C102.735 75.1966 109.264 62.6899 113.19 49.2786L-90.1604 -10.2484C-86.269 -23.5415 -79.7976 -35.938 -71.1155 -46.7301L93.9759 86.0846ZM113.19 49.2786C117.116 35.8672 118.362 21.8139 116.857 7.9213L-93.7946 30.7444C-95.2866 16.9742 -94.0517 3.04484 -90.1604 -10.2484L113.19 49.2786ZM116.857 7.9213C115.352 -5.97139 111.125 -19.4317 104.417 -31.691L-81.465 70.0076C-88.1131 57.8564 -92.3027 44.5147 -93.7946 30.7444L116.857 7.9213ZM-39.3731 -73.7829L-40.1957 -73.3328L61.503 112.55L62.3256 112.1L-39.3731 -73.7829ZM116.851 16.9368C116.851 55.2646 95.0278 92.8309 56.7804 110.329L-31.3701 -82.3476C-71.6915 -63.9004 -95.0334 -24.0787 -95.0334 16.9368H116.851ZM56.7558 110.341C37.2848 119.243 14.3296 122.358 -8.71478 117.2C-31.6291 112.071 -48.7113 100.159 -59.9737 88.4592L92.6798 -58.4823C64.1701 -88.1003 15.5557 -103.802 -31.3455 -82.3588L56.7558 110.341ZM89.8022 91.336L90.4773 90.6865L-56.421 -62.0085L-57.0961 -61.3591L89.8022 91.336ZM93.386 -59.0994C64.8141 -88.8072 15.8004 -104.943 -31.7324 -83.2129L56.3626 109.489C36.4182 118.607 13.5815 121.268 -8.67639 116.248C-30.7872 111.261 -47.757 99.8101 -59.3297 87.7774L93.386 -59.0994ZM-31.7632 -83.1988C-72.4614 -64.5776 -95.971 -24.3929 -95.971 16.9368H115.913C115.913 54.8762 94.3238 92.1205 56.3934 109.475L-31.7632 -83.1988ZM-51.0454 106.645C-50.9686 106.706 -49.4626 107.902 -47.6192 109.253C-45.7347 110.633 -42.384 113.007 -38.0002 115.573L69.0274 -67.2935C73.0631 -64.9314 76.0678 -62.7942 77.6131 -61.6619C79.1174 -60.5597 80.2912 -59.6245 80.0474 -59.8165L-51.0454 106.645ZM-37.8777 115.644C-30.2288 120.107 -10.6554 130.45 16.6906 130.45V-81.4337C43.1741 -81.4337 61.9524 -71.4217 68.905 -67.365L-37.8777 115.644ZM16.6906 -82.3713C43.3262 -82.3713 62.2632 -72.3461 69.569 -68.0629L-37.5954 114.723C-29.7245 119.338 -10.3324 129.513 16.6906 129.513V-82.3713ZM69.3302 -68.2024C73.5558 -65.7398 76.6876 -63.5039 78.2364 -62.3672C79.0764 -61.7507 79.7311 -61.2492 80.1027 -60.9621C80.2969 -60.812 80.4505 -60.692 80.5451 -60.6179C80.6375 -60.5455 80.7006 -60.4957 80.7025 -60.4942L-50.5391 105.85C-50.3967 105.963 -48.9356 107.124 -47.1337 108.446C-45.2854 109.803 -41.8654 112.235 -37.3567 114.863L69.3302 -68.2024ZM84.4983 106.589C84.1428 106.869 83.4972 107.367 84.3347 106.721C84.7828 106.375 85.9557 105.468 87.3571 104.324C90.0073 102.159 95.3128 97.6765 101.037 91.2283L-57.4253 -49.4299C-52.5954 -54.8712 -48.3069 -58.4479 -46.6731 -59.7823C-46.1979 -60.1704 -45.8131 -60.4759 -45.5646 -60.6715C-45.4384 -60.7708 -45.3375 -60.8496 -45.2708 -60.9014C-45.2052 -60.9525 -45.1629 -60.9851 -45.1593 -60.9879C-44.8142 -61.2544 -45.9366 -60.3921 -46.7378 -59.76L84.4983 106.589ZM101.006 91.2623C113.724 76.9476 129.352 51.681 129.352 16.9368H-82.5319C-82.5319 -14.4744 -68.291 -37.1995 -57.3951 -49.4639L101.006 91.2623ZM-83.4695 16.9368C-83.4695 2.51919 -80.3862 -11.3389 -74.9195 -23.7948C-69.6687 -35.7588 -63.1019 -44.4431 -58.1494 -50.0261L100.359 90.5793C112.93 76.4084 128.415 51.3741 128.415 16.9368H-83.4695ZM-58.0919 -50.0909C-53.2073 -55.5884 -48.8564 -59.2123 -47.1872 -60.573C-46.3088 -61.2889 -45.6533 -61.7918 -45.7461 -61.7201C-45.7573 -61.7114 -45.7728 -61.6995 -45.8466 -61.6426C-45.9043 -61.5981 -46.0147 -61.513 -46.1354 -61.4197C-46.3743 -61.235 -46.7904 -60.9126 -47.2845 -60.5231L83.8837 105.879C83.5798 106.119 83.0686 106.513 83.7903 105.956C84.1839 105.652 85.3274 104.769 86.6859 103.661C89.3154 101.518 94.5951 97.0668 100.302 90.6441L-58.0919 -50.0909ZM129.352 16.9368C129.352 -24.3703 105.862 -64.5774 65.128 -83.2063L-22.9957 109.483C-60.9602 92.1203 -82.5319 54.8535 -82.5319 16.9368H129.352ZM65.1136 -83.2129C17.5657 -104.95 -31.4174 -88.7879 -59.9602 -59.1463L92.6664 87.8231C81.1116 99.8227 64.1581 111.265 42.0529 116.249C19.7926 121.268 -3.04223 118.605 -22.9813 109.489L65.1136 -83.2129ZM-57.1328 90.6506L-56.4577 91.3007L90.514 -61.3238L89.8389 -61.9738L-57.1328 90.6506ZM93.3378 88.477C82.0802 100.167 65.0081 112.069 42.1084 117.197C19.0756 122.355 -3.88472 119.251 -23.3746 110.341L64.7268 -82.3588C17.7989 -103.814 -30.8006 -88.0742 -59.2814 -58.5001L93.3378 88.477ZM-23.3992 110.329C-61.6361 92.8357 -83.4695 55.2758 -83.4695 16.9368H128.415C128.415 -24.0912 105.062 -63.9051 64.7514 -82.3476L-23.3992 110.329ZM-47.3212 -60.4942C-47.3193 -60.4957 -47.2562 -60.5455 -47.1638 -60.6179C-47.0693 -60.692 -46.9157 -60.812 -46.7214 -60.9621C-46.3498 -61.2492 -45.6951 -61.7507 -44.8552 -62.3672C-43.3064 -63.5039 -40.1746 -65.7398 -35.949 -68.2024L70.7379 114.863C75.2467 112.235 78.6666 109.803 80.515 108.446C82.3168 107.124 83.778 105.963 83.9203 105.85L-47.3212 -60.4942ZM-36.037 -68.1511C-28.9973 -72.2627 -10.0407 -82.3713 16.6906 -82.3713V129.513C43.8096 129.513 63.2212 119.253 70.8259 114.811L-36.037 -68.1511ZM16.6906 130.45C44.0367 130.45 63.6101 120.107 71.259 115.644L-35.5237 -67.365C-28.5711 -71.4217 -9.79282 -81.4337 16.6906 -81.4337V130.45ZM71.3099 115.614C75.74 113.026 79.1226 110.629 81.0194 109.239C82.8659 107.885 84.3854 106.678 84.4267 106.645L-46.6661 -59.8165C-46.9456 -59.5964 -45.758 -60.5431 -44.2504 -61.6482C-42.6925 -62.7902 -39.6559 -64.9509 -35.5746 -67.3353L71.3099 115.614ZM80.6365 -60.5462C80.3758 -60.7515 80.1438 -60.9328 79.9518 -61.0821C79.7613 -61.2304 79.596 -61.3582 79.4758 -61.4512C79.4149 -61.4982 79.3601 -61.5404 79.3169 -61.5738C79.2778 -61.604 79.2324 -61.6389 79.2109 -61.6555C79.1511 -61.7017 79.1464 -61.7053 79.1561 -61.6978C79.1701 -61.687 79.2255 -61.6441 79.3068 -61.5807C79.3892 -61.5164 79.5084 -61.423 79.655 -61.3072C79.9462 -61.0769 80.3753 -60.7341 80.8965 -60.305L-53.7648 103.284C-52.2598 104.522 -51.0048 105.495 -50.4973 105.888C-50.3613 105.993 -50.2398 106.087 -50.1737 106.138C-50.0887 106.203 -50.0759 106.213 -50.0617 106.224C-50.0394 106.241 -50.2153 106.106 -50.4731 105.902L80.6365 -60.5462ZM-54.3475 104.02C-52.807 105.287 -51.5109 106.29 -51.0279 106.663C-50.8904 106.77 -50.7679 106.864 -50.7001 106.916C-50.6578 106.949 -50.6403 106.962 -50.6162 106.981C-50.6067 106.988 -50.5999 106.993 -50.5951 106.997C-50.5903 107.001 -50.5882 107.002 -50.5882 107.002C-50.5882 107.002 -50.591 107 -50.5959 106.996C-50.6009 106.993 -50.6085 106.987 -50.6185 106.979C-50.6381 106.964 -50.6694 106.939 -50.71 106.908C-50.7883 106.847 -50.9209 106.744 -51.0909 106.61L80.0929 -59.7807C79.8069 -60.0061 79.5557 -60.2022 79.3566 -60.3571C79.1583 -60.5112 78.9869 -60.6438 78.8662 -60.7369C78.8046 -60.7844 78.7492 -60.8271 78.7058 -60.8606C78.6666 -60.8908 78.6205 -60.9263 78.5989 -60.9429C78.5388 -60.9892 78.5322 -60.9943 78.5397 -60.9885C78.5511 -60.9797 78.6028 -60.9397 78.6799 -60.8797C78.7577 -60.819 78.873 -60.7289 79.0161 -60.6159C79.1595 -60.5026 79.34 -60.3593 79.5498 -60.1905C79.7598 -60.0217 80.0076 -59.8207 80.2866 -59.5912L-54.3475 104.02ZM104.152 -32.1727C112.576 -16.9645 116.948 0.153993 116.849 17.539L-95.0317 16.3347C-95.1393 35.2739 -90.3761 53.9228 -81.1994 70.4906L104.152 -32.1727ZM-95.971 16.9368C-95.971 37.1438 -90.5339 55.3763 -82.3004 70.4343L103.608 -31.2176C111.001 -17.696 115.913 -1.22239 115.913 16.9368H-95.971ZM61.4486 112.579L62.2712 112.13L-39.3187 -73.812L-40.1413 -73.3626L61.4486 112.579Z" fill="#A7C5FF" mask="url(#path-2-inside-1_1559_25149)"/>
<path d="M16.6611 39.9998C22.1211 32.8289 30.0051 33.65 30.0706 33.6598L32.1315 30.5324C29.6027 29.8977 21.614 29.1486 16.648 34.2618C12.3691 29.4005 3.69334 29.8977 1.16455 30.5324L3.22552 33.6598C3.29095 33.65 11.2241 33.4014 16.6349 39.9998" fill="#FF675D"/>
</svg>
