<svg width="25" height="25" viewBox="0 0 25 25" fill="none" xmlns="http://www.w3.org/2000/svg">
<path d="M23.3662 12.4165C23.3662 18.2154 18.6651 22.9165 12.8662 22.9165C7.06735 22.9165 2.36621 18.2154 2.36621 12.4165C2.36621 6.61764 7.06735 1.9165 12.8662 1.9165C18.6651 1.9165 23.3662 6.61764 23.3662 12.4165Z" fill="#F1EFFF"/>
<path d="M12.8662 15.5578C12.457 15.5578 12.0788 15.7761 11.8742 16.1305C11.6696 16.4849 11.6696 16.9216 11.8742 17.276C12.0788 17.6304 12.457 17.8487 12.8662 17.8487C13.4988 17.8487 14.0116 17.3359 14.0116 16.7033C14.0116 16.0707 13.4988 15.5578 12.8662 15.5578ZM12.8662 13.9513C12.3917 13.9513 12.0071 13.5667 12.0071 13.0922V8.31954C12.0071 7.84507 12.3917 7.46045 12.8662 7.46045C13.3407 7.46045 13.7253 7.84507 13.7253 8.31954V13.0922C13.7253 13.5667 13.3407 13.9513 12.8662 13.9513Z" fill="#6341F0"/>
</svg>
