<svg width="24" height="24" viewBox="0 0 24 24" fill="none" xmlns="http://www.w3.org/2000/svg">
<path fill-rule="evenodd" clip-rule="evenodd" d="M12 0C18.6274 0 24 5.37258 24 12C24 18.6274 18.6274 24 12 24C5.37258 24 0 18.6274 0 12C0 5.37258 5.37258 0 12 0ZM12.5986 23.2597C12.5951 23.258 12.5911 23.2584 12.5872 23.259C12.5838 23.2597 12.5804 23.2608 12.5772 23.2624L12.5174 23.2918C12.5132 23.2939 12.5086 23.2955 12.504 23.2964L12.5014 23.2969C12.4946 23.2983 12.4875 23.298 12.4808 23.2961C12.4783 23.2954 12.4758 23.2944 12.4735 23.2933L12.406 23.26C12.3982 23.2569 12.391 23.258 12.3858 23.2615C12.383 23.2635 12.3814 23.2666 12.3801 23.2698C12.3787 23.2732 12.3779 23.2769 12.3778 23.2806L12.3613 23.6946C12.3611 23.7002 12.3617 23.7057 12.363 23.7112L12.3637 23.7137C12.3652 23.7198 12.368 23.7256 12.3718 23.7306C12.3746 23.7342 12.3779 23.7373 12.3816 23.74L12.4752 23.8066C12.4784 23.8089 12.4819 23.8105 12.4856 23.8115L12.4868 23.8118C12.4922 23.8132 12.4978 23.8131 12.503 23.8113C12.5057 23.8104 12.5082 23.8092 12.5104 23.8076L12.604 23.7409C12.6087 23.7377 12.6127 23.7337 12.6161 23.7292L12.6167 23.7285C12.6208 23.7229 12.6238 23.7165 12.6254 23.7097C12.6265 23.7053 12.6269 23.7007 12.6267 23.6961L12.6104 23.285C12.6101 23.279 12.6099 23.2728 12.6068 23.2676C12.6047 23.2641 12.6018 23.2614 12.5986 23.2597ZM12.8645 23.1474C12.8605 23.1451 12.8557 23.1454 12.8511 23.1461C12.8471 23.1467 12.8431 23.1479 12.8395 23.1498L12.6648 23.2376C12.6616 23.2392 12.6587 23.2413 12.6562 23.2438L12.6551 23.2449C12.6518 23.2482 12.6493 23.2524 12.6481 23.2569C12.6474 23.2596 12.6471 23.2624 12.6472 23.2652L12.6648 23.6854C12.6649 23.6891 12.6657 23.6928 12.6672 23.6962L12.6675 23.6969C12.6691 23.7009 12.6717 23.7045 12.6749 23.7073C12.677 23.7091 12.6792 23.7106 12.6817 23.7117L12.879 23.803C12.888 23.806 12.8964 23.8045 12.9025 23.8003C12.9067 23.7974 12.9087 23.7925 12.9101 23.7877C12.9114 23.7833 12.9119 23.7787 12.9116 23.7741L12.8786 23.178C12.8782 23.1707 12.8777 23.1631 12.8739 23.1568C12.8715 23.1527 12.8683 23.1495 12.8645 23.1474ZM12.143 23.147C12.1385 23.1449 12.1334 23.1444 12.1285 23.1455C12.1259 23.1461 12.1235 23.1471 12.1213 23.1484C12.1174 23.1509 12.1151 23.1552 12.1132 23.1595C12.1111 23.1645 12.1098 23.1698 12.1095 23.1752L12.076 23.781C12.076 23.7893 12.0794 23.7957 12.0848 23.8002C12.0896 23.8042 12.0963 23.8046 12.1025 23.8037C12.1061 23.8032 12.1097 23.8022 12.113 23.8007L12.3055 23.7116C12.3078 23.7105 12.31 23.7092 12.312 23.7076L12.3131 23.7067C12.317 23.7036 12.3199 23.6996 12.3216 23.6949C12.3225 23.6923 12.3231 23.6896 12.3232 23.6868L12.3398 23.2652C12.3399 23.2624 12.3397 23.2596 12.339 23.2569C12.3377 23.2517 12.335 23.247 12.3312 23.2432L12.3307 23.2427C12.3282 23.2402 12.3254 23.2382 12.3223 23.2367L12.143 23.147Z" fill="#F4F5F8"/>
<path fill-rule="evenodd" clip-rule="evenodd" d="M18.4731 7.26509C18.6639 7.45593 18.7711 7.71473 18.7711 7.98458C18.7711 8.25442 18.6639 8.51322 18.4731 8.70406L10.8455 16.3317C10.7447 16.4326 10.625 16.5125 10.4933 16.5671C10.3616 16.6217 10.2204 16.6498 10.0778 16.6498C9.93523 16.6498 9.79406 16.6217 9.66234 16.5671C9.53063 16.5125 9.41095 16.4326 9.31015 16.3317L5.5204 12.5427C5.4232 12.4488 5.34567 12.3365 5.29234 12.2123C5.239 12.0882 5.21093 11.9546 5.20976 11.8195C5.20858 11.6844 5.23433 11.5504 5.2855 11.4253C5.33667 11.3003 5.41223 11.1866 5.50778 11.0911C5.60333 10.9955 5.71696 10.92 5.84202 10.8688C5.96709 10.8176 6.10109 10.7919 6.23622 10.7931C6.37134 10.7942 6.50488 10.8223 6.62904 10.8756C6.75319 10.929 6.86549 11.0065 6.95936 11.1037L10.0775 14.2218L17.0335 7.26509C17.128 7.17053 17.2402 7.09551 17.3637 7.04432C17.4872 6.99314 17.6196 6.9668 17.7533 6.9668C17.887 6.9668 18.0194 6.99314 18.1429 7.04432C18.2664 7.09551 18.3786 7.17053 18.4731 7.26509Z" fill="#EEEEF2"/>
</svg>
