<svg width="24" height="24" viewBox="0 0 24 24" fill="none" xmlns="http://www.w3.org/2000/svg">
<path fill-rule="evenodd" clip-rule="evenodd" d="M12 0C18.6274 0 24 5.37258 24 12V12C24 18.6274 18.6274 24 12 24V24C5.37258 24 0 18.6274 0 12V12C0 5.37258 5.37258 0 12 0V0Z" fill="#DDDDE3"/>
<path fill-rule="evenodd" clip-rule="evenodd" d="M18.4731 7.26509C18.6639 7.45593 18.7711 7.71473 18.7711 7.98458C18.7711 8.25442 18.6639 8.51322 18.4731 8.70406L10.8455 16.3317C10.7447 16.4326 10.625 16.5125 10.4933 16.5671C10.3616 16.6217 10.2204 16.6498 10.0778 16.6498C9.93523 16.6498 9.79406 16.6217 9.66234 16.5671C9.53063 16.5125 9.41095 16.4326 9.31015 16.3317L5.5204 12.5427C5.4232 12.4488 5.34567 12.3365 5.29234 12.2123C5.239 12.0882 5.21093 11.9546 5.20976 11.8195C5.20858 11.6844 5.23433 11.5504 5.2855 11.4253C5.33667 11.3003 5.41223 11.1866 5.50778 11.0911C5.60333 10.9955 5.71696 10.92 5.84202 10.8688C5.96709 10.8176 6.10109 10.7919 6.23622 10.7931C6.37134 10.7942 6.50488 10.8223 6.62904 10.8756C6.75319 10.929 6.86549 11.0065 6.95936 11.1037L10.0775 14.2218L17.0335 7.26509C17.128 7.17053 17.2402 7.09551 17.3637 7.04432C17.4872 6.99314 17.6196 6.9668 17.7533 6.9668C17.887 6.9668 18.0194 6.99314 18.1429 7.04432C18.2664 7.09551 18.3786 7.17053 18.4731 7.26509Z" fill="#EEEEF2"/>
</svg>
