<svg width="40" height="40" viewBox="0 0 40 40" fill="none" xmlns="http://www.w3.org/2000/svg">
<path d="M36.0158 10.8137C33.5124 6.73777 28.8888 7.33285 28.8888 7.33285C27.425 -0.162753 19.8169 0.000283344 19.8006 0.000283344C19.7843 0.000283344 12.1762 -0.162753 10.7083 7.33285C10.7083 7.33285 6.08475 6.73369 3.58133 10.8137C1.08198 14.8896 -1.22167 23.8607 19.8006 38.5666C40.8229 23.8566 38.5192 14.8896 36.0158 10.8096V10.8137Z" fill="#E686CA"/>
<path d="M19.7917 40C25.2335 32.853 33.0914 33.6714 33.1566 33.6811L35.2107 30.5641C32.6903 29.9316 24.7281 29.1849 19.7787 34.2811C15.5139 29.436 6.86706 29.9316 4.34668 30.5641L6.4008 33.6811C6.46601 33.6714 14.3728 33.4236 19.7656 40" fill="#FF675D"/>
<mask id="path-3-inside-1_5263_5219" fill="white">
<path d="M19.5459 14.7476L19.2094 15.0716C19.253 15.1168 19.3053 15.1527 19.3631 15.1773C19.4209 15.2019 19.483 15.2145 19.5459 15.2145C19.6087 15.2145 19.6708 15.2019 19.7286 15.1773C19.7864 15.1527 19.8387 15.1168 19.8823 15.0716L19.5459 14.7476ZM16.4315 21.5507C16.3357 21.4719 16.2124 21.4344 16.0889 21.4464C15.9655 21.4585 15.8518 21.5191 15.773 21.6149C15.6942 21.7107 15.6567 21.8339 15.6687 21.9574C15.6807 22.0809 15.7413 22.1946 15.8372 22.2734L16.4315 21.5507ZM13.5289 19.6761C13.5584 19.73 13.5982 19.7775 13.646 19.8159C13.6938 19.8544 13.7487 19.8831 13.8076 19.9003C13.8665 19.9175 13.9282 19.923 13.9892 19.9164C14.0502 19.9098 14.1093 19.8912 14.1632 19.8618C14.217 19.8323 14.2645 19.7926 14.303 19.7447C14.3414 19.6969 14.3701 19.642 14.3873 19.5831C14.4046 19.5242 14.41 19.4625 14.4034 19.4015C14.3968 19.3405 14.3783 19.2814 14.3488 19.2276L13.5289 19.6761ZM13.7831 17.0134C13.7831 15.674 14.5401 14.5501 15.5736 14.0772C16.5779 13.6181 17.9273 13.7396 19.2094 15.0716L19.8823 14.4243C18.3622 12.8437 16.5953 12.5827 15.1849 13.2275C13.8056 13.8586 12.8486 15.3239 12.8486 17.0134H13.7831ZM17.3635 23.4696C17.6831 23.7212 18.0257 23.9891 18.3728 24.1922C18.7198 24.3947 19.116 24.5598 19.5459 24.5598V23.6253C19.3527 23.6253 19.126 23.5505 18.8444 23.3855C18.5621 23.221 18.27 22.9942 17.9423 22.7357L17.3635 23.4696ZM21.7282 23.4696C22.6166 22.7687 23.753 21.9663 24.6438 20.9626C25.5516 19.9409 26.2431 18.6743 26.2431 17.0134H25.3086C25.3086 18.3828 24.7479 19.4375 23.9455 20.3421C23.1262 21.2641 22.0939 21.9912 21.1495 22.7357L21.7282 23.4696ZM26.2431 17.0134C26.2431 15.3239 25.2868 13.8586 23.9068 13.2275C22.4964 12.5827 20.7308 12.8437 19.2094 14.4236L19.8823 15.0716C21.1644 13.7402 22.5138 13.6181 23.5181 14.0772C24.5516 14.5501 25.3086 15.6734 25.3086 17.0134H26.2431ZM21.1495 22.7357C20.8218 22.9942 20.5296 23.221 20.2474 23.3855C19.9658 23.5499 19.739 23.6253 19.5459 23.6253V24.5598C19.9757 24.5598 20.372 24.3947 20.719 24.1922C21.0666 23.9891 21.4086 23.7212 21.7282 23.4696L21.1495 22.7357ZM17.9423 22.7357C17.4464 22.345 16.9423 21.9712 16.4315 21.5507L15.8372 22.2734C16.3542 22.6989 16.9012 23.1051 17.3635 23.4696L17.9423 22.7357ZM14.3488 19.2276C13.9735 18.55 13.7787 17.788 13.7831 17.0134H12.8486C12.8486 18.0339 13.1103 18.9105 13.5289 19.6761L14.3488 19.2276Z"/>
</mask>
<path d="M19.5459 14.7476L19.2094 15.0716C19.253 15.1168 19.3053 15.1527 19.3631 15.1773C19.4209 15.2019 19.483 15.2145 19.5459 15.2145C19.6087 15.2145 19.6708 15.2019 19.7286 15.1773C19.7864 15.1527 19.8387 15.1168 19.8823 15.0716L19.5459 14.7476ZM16.4315 21.5507C16.3357 21.4719 16.2124 21.4344 16.0889 21.4464C15.9655 21.4585 15.8518 21.5191 15.773 21.6149C15.6942 21.7107 15.6567 21.8339 15.6687 21.9574C15.6807 22.0809 15.7413 22.1946 15.8372 22.2734L16.4315 21.5507ZM13.5289 19.6761C13.5584 19.73 13.5982 19.7775 13.646 19.8159C13.6938 19.8544 13.7487 19.8831 13.8076 19.9003C13.8665 19.9175 13.9282 19.923 13.9892 19.9164C14.0502 19.9098 14.1093 19.8912 14.1632 19.8618C14.217 19.8323 14.2645 19.7926 14.303 19.7447C14.3414 19.6969 14.3701 19.642 14.3873 19.5831C14.4046 19.5242 14.41 19.4625 14.4034 19.4015C14.3968 19.3405 14.3783 19.2814 14.3488 19.2276L13.5289 19.6761ZM13.7831 17.0134C13.7831 15.674 14.5401 14.5501 15.5736 14.0772C16.5779 13.6181 17.9273 13.7396 19.2094 15.0716L19.8823 14.4243C18.3622 12.8437 16.5953 12.5827 15.1849 13.2275C13.8056 13.8586 12.8486 15.3239 12.8486 17.0134H13.7831ZM17.3635 23.4696C17.6831 23.7212 18.0257 23.9891 18.3728 24.1922C18.7198 24.3947 19.116 24.5598 19.5459 24.5598V23.6253C19.3527 23.6253 19.126 23.5505 18.8444 23.3855C18.5621 23.221 18.27 22.9942 17.9423 22.7357L17.3635 23.4696ZM21.7282 23.4696C22.6166 22.7687 23.753 21.9663 24.6438 20.9626C25.5516 19.9409 26.2431 18.6743 26.2431 17.0134H25.3086C25.3086 18.3828 24.7479 19.4375 23.9455 20.3421C23.1262 21.2641 22.0939 21.9912 21.1495 22.7357L21.7282 23.4696ZM26.2431 17.0134C26.2431 15.3239 25.2868 13.8586 23.9068 13.2275C22.4964 12.5827 20.7308 12.8437 19.2094 14.4236L19.8823 15.0716C21.1644 13.7402 22.5138 13.6181 23.5181 14.0772C24.5516 14.5501 25.3086 15.6734 25.3086 17.0134H26.2431ZM21.1495 22.7357C20.8218 22.9942 20.5296 23.221 20.2474 23.3855C19.9658 23.5499 19.739 23.6253 19.5459 23.6253V24.5598C19.9757 24.5598 20.372 24.3947 20.719 24.1922C21.0666 23.9891 21.4086 23.7212 21.7282 23.4696L21.1495 22.7357ZM17.9423 22.7357C17.4464 22.345 16.9423 21.9712 16.4315 21.5507L15.8372 22.2734C16.3542 22.6989 16.9012 23.1051 17.3635 23.4696L17.9423 22.7357ZM14.3488 19.2276C13.9735 18.55 13.7787 17.788 13.7831 17.0134H12.8486C12.8486 18.0339 13.1103 18.9105 13.5289 19.6761L14.3488 19.2276Z" fill="#FFF4FD"/>
<path d="M17.9423 22.7357L23.3805 27.0244L12.5054 18.4453L17.9423 22.7357ZM21.7282 23.4696L16.29 27.7583L27.1677 19.1825L21.7282 23.4696ZM23.0901 27.3923L23.3792 27.026L12.5054 18.4453L12.2163 18.8117L23.0901 27.3923ZM15.999 27.3891L16.2887 27.7566L27.1677 19.1825L26.878 18.8149L15.999 27.3891ZM21.1863 26.6726L21.7807 25.95L11.0823 17.1515L10.488 17.8742L21.1863 26.6726ZM11.0246 13.1517L10.2047 13.6002L16.8532 25.752L17.673 25.3035L11.0246 13.1517ZM12.8486 23.9392H13.7831V10.0876H12.8486V23.9392ZM26.4717 24.5598V23.6253H12.62V24.5598H26.4717ZM12.5041 18.447L11.9253 19.1809L22.8017 27.7583L23.3805 27.0244L12.5041 18.447ZM26.2431 10.0876H25.3086V23.9392H26.2431V10.0876ZM15.7113 27.0244L16.29 27.7583L27.1664 19.1809L26.5876 18.447L15.7113 27.0244ZM17.9423 22.7357L26.522 11.8611L26.5134 11.8543L17.9423 22.7357ZM19.5459 14.7476L29.1539 4.76999L19.5459 -4.48222L9.93779 4.76999L19.5459 14.7476ZM19.2094 15.0716L9.22993 24.6776L9.23627 24.6842L19.2094 15.0716ZM19.8823 15.0716L29.8554 24.6842L29.8595 24.68L19.8823 15.0716ZM21.7282 23.4696L30.2982 34.3518L30.3076 34.3444L21.7282 23.4696ZM16.4315 21.5507L25.2348 10.8564L25.23 10.8524L16.4315 21.5507ZM15.8372 22.2734L24.6387 11.5776L24.6356 11.5751L15.8372 22.2734ZM13.5289 19.6761L1.37548 26.3215L1.37715 26.3245L13.5289 19.6761ZM14.3488 19.2276L26.5006 12.5792L26.4833 12.5476L26.4659 12.5161L14.3488 19.2276ZM13.7831 17.0134L27.6345 17.0922L27.6348 17.0528V17.0134H13.7831ZM15.5736 14.0772L9.81412 1.4798L9.81091 1.48127L15.5736 14.0772ZM19.8823 14.4243L29.4855 24.4065L39.4664 14.8046L29.8658 4.8224L19.8823 14.4243ZM15.1849 13.2275L9.42579 0.62984L9.42176 0.631687L15.1849 13.2275ZM17.3635 23.4696L8.78755 34.3471L8.79349 34.3518L17.3635 23.4696ZM18.3728 24.1922L11.376 36.1468L11.384 36.1515L11.392 36.1562L18.3728 24.1922ZM18.8444 23.3855L25.8501 11.4361L25.8345 11.4269L25.8189 11.4178L18.8444 23.3855ZM24.6438 20.9626L14.2886 11.7628L14.2846 11.7673L24.6438 20.9626ZM23.9455 20.3421L34.3002 29.5425L34.3077 29.534L23.9455 20.3421ZM21.1495 22.7357L12.5745 11.8573L12.5697 11.8611L21.1495 22.7357ZM23.9068 13.2275L29.6678 0.630702L29.6659 0.629841L23.9068 13.2275ZM19.2094 14.4236L9.23169 4.81572L-0.376078 14.7933L9.60137 24.4012L19.2094 14.4236ZM23.5181 14.0772L29.2808 1.48127L29.2776 1.4798L23.5181 14.0772ZM20.2474 23.3855L13.2728 11.4178L13.2613 11.4246L20.2474 23.3855ZM20.719 24.1922L27.6997 36.1562L27.7064 36.1523L20.719 24.1922ZM9.93779 4.76999L9.60137 5.09395L28.8175 25.0492L29.1539 24.7252L9.93779 4.76999ZM9.23627 24.6842C10.572 26.07 12.1733 27.1723 13.9448 27.9252L24.7814 2.4294C26.4372 3.13318 27.9341 4.16354 29.1826 5.45888L9.23627 24.6842ZM13.9448 27.9252C15.7162 28.6781 17.6211 29.0662 19.5459 29.0662V1.36292C21.345 1.36292 23.1256 1.72563 24.7814 2.4294L13.9448 27.9252ZM19.5459 29.0662C21.4706 29.0662 23.3756 28.6781 25.147 27.9252L14.3103 2.4294C15.9661 1.72563 17.7468 1.36292 19.5459 1.36292V29.0662ZM25.147 27.9252C26.9184 27.1723 28.5198 26.07 29.8554 24.6842L9.90911 5.45888C11.1576 4.16354 12.6545 3.13318 14.3103 2.4294L25.147 27.9252ZM29.4903 5.09395L29.1539 4.76999L9.93779 24.7252L10.2742 25.0492L29.4903 5.09395ZM25.23 10.8524C22.2967 8.44005 18.5253 7.29178 14.7455 7.66011L17.4324 35.2328C13.8995 35.577 10.3746 34.5038 7.63303 32.2491L25.23 10.8524ZM14.7455 7.66011C10.9657 8.02843 7.48696 9.88321 5.07464 12.8164L26.4713 30.4134C24.2166 33.1549 20.9652 34.8885 17.4324 35.2328L14.7455 7.66011ZM5.07464 12.8164C2.66235 15.7496 1.51403 19.521 1.88236 23.3009L29.455 20.614C29.7993 24.1469 28.726 27.6718 26.4713 30.4134L5.07464 12.8164ZM1.88236 23.3009C2.25069 27.0807 4.10547 30.5594 7.03869 32.9717L24.6356 11.5751C27.3772 13.8298 29.1107 17.0812 29.455 20.614L1.88236 23.3009ZM1.37715 26.3245C2.27969 27.9742 3.49831 29.4299 4.96341 30.6085L22.3285 9.02331C23.698 10.1251 24.8371 11.4857 25.6807 13.0277L1.37715 26.3245ZM4.96341 30.6085C6.42854 31.7872 8.11147 32.6658 9.91611 33.1941L17.6991 6.60655C19.386 7.10035 20.959 7.92156 22.3285 9.02331L4.96341 30.6085ZM9.91611 33.1941C11.7208 33.7223 13.6119 33.89 15.4812 33.6874L12.4972 6.14537C14.2446 5.95605 16.0122 6.11274 17.6991 6.60655L9.91611 33.1941ZM15.4812 33.6874C17.3507 33.4849 19.1619 32.9161 20.8116 32.0136L7.51476 7.70998C9.05672 6.86635 10.7498 6.3347 12.4972 6.14537L15.4812 33.6874ZM20.8116 32.0136C22.4612 31.1111 23.9169 29.8925 25.0956 28.4273L3.51035 11.0622C4.61211 9.69267 5.97281 8.5536 7.51476 7.70998L20.8116 32.0136ZM25.0956 28.4273C26.2742 26.9622 27.1528 25.2793 27.6811 23.4746L1.09358 15.6916C1.58739 14.0048 2.40861 12.4317 3.51035 11.0622L25.0956 28.4273ZM27.6811 23.4746C28.2094 21.6699 28.377 19.7789 28.1745 17.9095L0.632402 20.8935C0.443078 19.1461 0.59978 17.3785 1.09358 15.6916L27.6811 23.4746ZM28.1745 17.9095C27.9719 16.0401 27.4032 14.2288 26.5006 12.5792L2.19701 25.876C1.35337 24.334 0.821727 22.641 0.632402 20.8935L28.1745 17.9095ZM27.6348 17.0134C27.6348 20.8609 25.4391 24.7962 21.3363 26.6732L9.81091 1.48127C3.64104 4.30402 -0.0684948 10.487 -0.0684948 17.0134H27.6348ZM21.3331 26.6747C19.2236 27.6392 16.7335 27.9731 14.2619 27.4199C11.8074 26.8705 10.1455 25.6288 9.22993 24.6776L29.1889 5.46546C24.3474 0.435753 16.8188 -1.72273 9.81412 1.4798L21.3331 26.6747ZM28.8127 25.0538L29.4855 24.4065L10.279 4.44204L9.60617 5.08933L28.8127 25.0538ZM29.8658 4.8224C24.8095 -0.435013 16.866 -2.77149 9.42579 0.629841L20.944 25.8251C18.949 26.7371 16.6533 27.0016 14.4452 26.5036C12.2563 26.01 10.7514 24.9128 9.8987 24.0261L29.8658 4.8224ZM9.42176 0.631687C2.90221 3.61466 -1.00299 10.1418 -1.00299 17.0134H26.7003C26.7003 20.506 24.7089 24.1025 20.948 25.8233L9.42176 0.631687ZM8.79349 34.3518C8.99492 34.5104 10.0711 35.3832 11.376 36.1468L25.3695 12.2376C25.5673 12.3534 25.7221 12.4535 25.8278 12.5243C25.9338 12.5954 26.0087 12.6494 26.0447 12.6758C26.0806 12.7021 26.0936 12.7125 26.0718 12.6957C26.0471 12.6766 26.0119 12.6491 25.9335 12.5873L8.79349 34.3518ZM11.392 36.1562C12.6935 36.9156 15.597 38.4114 19.5459 38.4114V10.7082C22.635 10.7082 24.746 11.8738 25.3535 12.2283L11.392 36.1562ZM19.5459 9.77368C22.8606 9.77368 25.1395 11.0195 25.8501 11.4361L11.8386 35.3348C13.1124 36.0816 15.8449 37.4769 19.5459 37.4769V9.77368ZM25.8189 11.4178C26.2488 11.6684 26.5335 11.8757 26.6063 11.9292C26.6512 11.9622 26.6707 11.9776 26.6517 11.9628C26.631 11.9469 26.5959 11.9194 26.522 11.8611L9.36253 33.6102C9.55648 33.7632 10.6046 34.6157 11.8699 35.3531L25.8189 11.4178ZM30.3076 34.3444C30.3773 34.2894 33.0448 32.364 35.0031 30.1579L14.2846 11.7673C14.5291 11.4919 14.6495 11.4165 14.4231 11.6014C14.3198 11.6858 14.1868 11.7905 13.9678 11.9596C13.7997 12.0894 13.4466 12.3599 13.1488 12.5947L30.3076 34.3444ZM34.9991 30.1624C37.4505 27.4031 40.0947 22.9992 40.0947 17.0134H12.3915C12.3915 15.8435 12.6507 14.684 13.1015 13.6576C13.5272 12.6884 14.0245 12.0601 14.2886 11.7628L34.9991 30.1624ZM11.457 17.0134C11.457 15.7232 11.7383 14.4378 12.2441 13.2853C12.7217 12.1971 13.2842 11.4872 13.5832 11.1502L34.3077 29.534C36.6484 26.8953 39.1602 22.7057 39.1602 17.0134H11.457ZM13.5907 11.1418C13.8735 10.8235 14.0402 10.7079 13.8427 10.8689C13.7496 10.9447 13.624 11.0436 13.4013 11.2157C13.2215 11.3546 12.8813 11.6155 12.5745 11.8573L29.7244 33.614C29.836 33.526 32.4123 31.6673 34.3002 29.5425L13.5907 11.1418ZM40.0947 17.0134C40.0947 10.1447 36.1925 3.61469 29.6678 0.630702L18.1459 25.8243C14.381 24.1025 12.3915 20.503 12.3915 17.0134H40.0947ZM29.6659 0.629841C22.2237 -2.7724 14.2854 -0.432494 9.23169 4.81572L29.1872 24.0315C28.3373 24.9141 26.8346 26.0103 24.6463 26.5037C22.4378 27.0017 20.142 26.7368 18.1478 25.8251L29.6659 0.629841ZM9.60137 24.4012L10.2742 25.0492L29.4903 5.09395L28.8175 4.44603L9.60137 24.4012ZM29.8595 24.68C28.9446 25.63 27.2841 26.8705 24.8314 27.4198C22.3613 27.9729 19.8706 27.6403 17.7586 26.6747L29.2776 1.4798C22.2694 -1.72433 14.7427 0.439709 9.90502 5.46313L29.8595 24.68ZM17.7554 26.6732C13.654 24.7968 11.457 20.8619 11.457 17.0134H39.1602C39.1602 10.4849 35.4493 4.3034 29.2808 1.48127L17.7554 26.6732ZM12.5697 11.8611C12.4958 11.9194 12.4607 11.9469 12.44 11.9628C12.421 11.9776 12.4405 11.9622 12.4855 11.9292C12.5582 11.8757 12.843 11.6684 13.2728 11.4178L27.2219 35.3531C28.4871 34.6157 29.5352 33.7632 29.7292 33.6102L12.5697 11.8611ZM13.2613 11.4246C13.9371 11.0299 16.2186 9.77368 19.5459 9.77368V37.4769C23.2594 37.4769 25.9944 36.07 27.2334 35.3464L13.2613 11.4246ZM19.5459 38.4114C23.4948 38.4114 26.3982 36.9156 27.6997 36.1562L13.7382 12.2283C14.3457 11.8738 16.4567 10.7082 19.5459 10.7082V38.4114ZM27.7064 36.1523C29.0211 35.3842 30.1065 34.5027 30.2982 34.3518L13.1582 12.5873C13.0777 12.6508 13.0423 12.6784 13.0168 12.6981C12.9947 12.7152 13.0081 12.7045 13.0448 12.6776C13.0817 12.6506 13.158 12.5955 13.266 12.5231C13.3736 12.4509 13.5309 12.3494 13.7315 12.2322L27.7064 36.1523ZM26.5134 11.8543C25.5571 11.1011 25.6426 11.192 25.2348 10.8564L7.6282 32.2451C8.24213 32.7505 9.33563 33.589 9.37115 33.617L26.5134 11.8543ZM7.03564 32.9692C7.46168 33.3198 7.86227 33.6316 8.15059 33.8544C8.50087 34.1251 8.62591 34.2196 8.78755 34.3471L25.9394 12.592C25.6388 12.355 25.2592 12.0643 25.0912 11.9344C24.8612 11.7566 24.7297 11.6525 24.6387 11.5776L7.03564 32.9692ZM26.4659 12.5161C27.2403 13.9142 27.6436 15.4901 27.6345 17.0922L-0.0682707 16.9347C-0.0861816 20.0858 0.706775 23.1858 2.23173 25.939L26.4659 12.5161ZM-1.00299 17.0134C-1.00299 20.542 -0.064765 23.6875 1.37548 26.3215L25.6824 13.0308C26.2853 14.1335 26.7003 15.5258 26.7003 17.0134H-1.00299Z" fill="#FFF4FD" mask="url(#path-3-inside-1_5263_5219)"/>
</svg>
