<svg width="49" height="48" viewBox="0 0 49 48" fill="none" xmlns="http://www.w3.org/2000/svg">
<g clip-path="url(#clip0_1559_25134)">
<path d="M35.7983 35.75V32H19.5483C17.4773 32 15.7983 33.6789 15.7983 35.75M21.7983 39.5H31.7983C33.1985 39.5 33.8985 39.5 34.4333 39.2275C34.9037 38.9878 35.2862 38.6054 35.5259 38.135C35.7983 37.6002 35.7983 36.9001 35.7983 35.5V18.5C35.7983 17.0999 35.7983 16.3998 35.5259 15.865C35.2862 15.3946 34.9037 15.0122 34.4333 14.7725C33.8985 14.5 33.1985 14.5 31.7983 14.5H21.7983C19.6981 14.5 18.648 14.5 17.8459 14.9087C17.1403 15.2683 16.5666 15.8419 16.2071 16.5475C15.7983 17.3497 15.7983 18.3998 15.7983 20.5V33.5C15.7983 35.6002 15.7983 36.6503 16.2071 37.4525C16.5666 38.1581 17.1403 38.7317 17.8459 39.0913C18.648 39.5 19.6981 39.5 21.7983 39.5Z" stroke="#AEADB3" stroke-width="2.5" stroke-linecap="round" stroke-linejoin="round"/>
<path fill-rule="evenodd" clip-rule="evenodd" d="M43.2983 6C42.6908 6 42.1983 6.51301 42.1983 7.14583V10.5833H38.8983C38.2908 10.5833 37.7983 11.0963 37.7983 11.7292C37.7983 12.362 38.2908 12.875 38.8983 12.875H42.1983L42.1983 16.3125C42.1983 16.9453 42.6908 17.4583 43.2983 17.4583C43.9058 17.4583 44.3983 16.9453 44.3983 16.3125V12.875H47.6983C48.3058 12.875 48.7983 12.362 48.7983 11.7292C48.7983 11.0963 48.3058 10.5833 47.6983 10.5833H44.3983V7.14583C44.3983 6.51301 43.9058 6 43.2983 6Z" fill="#AEADB3"/>
</g>
<defs>
<clipPath id="clip0_1559_25134">
<rect width="48" height="48" fill="white" transform="translate(0.79834)"/>
</clipPath>
</defs>
</svg>
