<svg width="15" height="15" viewBox="0 0 15 15" fill="none" xmlns="http://www.w3.org/2000/svg">
<path fill-rule="evenodd" clip-rule="evenodd" d="M13.5455 3.29295C13.5455 2.62519 13.0042 2.08386 12.3364 2.08386H2.66368C1.99592 2.08386 1.45459 2.62519 1.45459 3.29295V9.78386C1.45459 10.4516 1.99592 10.993 2.66368 10.993H5.1605L7.05494 13.0541C7.29446 13.3147 7.70563 13.3147 7.94515 13.0541L9.83959 10.993H12.3364C13.0042 10.993 13.5455 10.4516 13.5455 9.78386V3.29295ZM4.00146 5.26319C4.00146 4.91174 4.28637 4.62683 4.63783 4.62683H10.3651C10.7166 4.62683 11.0015 4.91174 11.0015 5.26319C11.0015 5.61465 10.7166 5.89956 10.3651 5.89956H4.63783C4.28637 5.89956 4.00146 5.61465 4.00146 5.26319ZM4.00146 7.81007C4.00146 7.45862 4.28637 7.17371 4.63783 7.17371H10.3651C10.7166 7.17371 11.0015 7.45862 11.0015 7.81007C11.0015 8.16152 10.7166 8.44643 10.3651 8.44643H4.63783C4.28637 8.44643 4.00146 8.16152 4.00146 7.81007Z" fill="#949399"/>
</svg>
