<svg width="26" height="25" viewBox="0 0 26 25" fill="none" xmlns="http://www.w3.org/2000/svg">
<path d="M3.375 13.6719C3.375 9.74434 8.41191 5.10324 11.7031 2.68772C12.3036 2.24703 13.1279 2.33414 13.6695 2.8455C18.0312 6.96429 22.125 9.3936 22.125 15.2344C22.125 18.3594 18.2188 23.0469 12.75 23.0469C7.28125 23.0469 3.375 19.1406 3.375 13.6719Z" stroke="#C7C7D0" stroke-width="1.875"/>
<path d="M8.0625 16.1458C8.0625 14.5478 10.1732 12.684 11.7926 11.5566C12.3505 11.1683 13.0935 11.2459 13.622 11.6735C15.6417 13.3075 17.4375 14.4088 17.4375 16.8403C17.4375 18.2292 15.4844 20.3125 12.75 20.3125C10.0156 20.3125 8.0625 18.5764 8.0625 16.1458Z" stroke="#C7C7D0" stroke-width="1.875"/>
</svg>
