<svg width="44" height="20" viewBox="0 0 44 20" fill="none" xmlns="http://www.w3.org/2000/svg">
<path d="M0 13.2579V11.3801C1.85532 9.40422 3.49774 7.11916 4.92725 4.52489H6.52405L5.31504 9.57014L5.58878 9.20815C6.30354 8.21267 6.92705 7.51131 7.45931 7.10407C8.00678 6.68175 8.57707 6.47059 9.17016 6.47059C9.76326 6.47059 10.2423 6.71192 10.6073 7.19457C10.9875 7.66214 11.1776 8.28054 11.1776 9.04977C11.1776 10.9653 10.5084 12.6772 9.17016 14.1855C9.76326 14.1855 10.364 13.9668 10.9723 13.5294C11.246 13.3333 11.7402 12.8884 12.455 12.1946C12.5919 12.0437 12.7515 11.8552 12.934 11.629C12.9949 11.5535 13.0861 11.4329 13.2078 11.267V13.19C12.1889 14.1252 11.6034 14.6456 11.4513 14.7511C10.7517 15.2489 10.037 15.4977 9.30703 15.4977C8.95726 15.4977 8.50863 15.4072 7.96116 15.2262C7.56576 15.4676 7.07152 15.5882 6.47842 15.5882C5.70284 15.5882 5.31504 15.3544 5.31504 14.8869C5.31504 14.5249 5.38348 14.1931 5.52035 13.8914C5.67242 13.5747 5.90814 13.4163 6.2275 13.4163C6.4252 13.4163 6.65331 13.454 6.91184 13.5294C6.98788 13.5445 7.2312 13.6275 7.6418 13.7783C8.12844 13.3258 8.51624 12.73 8.80518 11.991C9.15496 11.1011 9.32984 10.2112 9.32984 9.32127C9.32984 8.37104 9.10173 7.89593 8.6455 7.89593C8.28052 7.89593 7.8471 8.1448 7.34525 8.64253C6.84341 9.12519 6.30354 9.81146 5.72565 10.7014C4.98048 11.8929 4.35697 13.3786 3.85512 15.1584C3.36848 16.9382 2.97308 18.356 2.66893 19.4118C2.56247 19.8039 2.27353 20 1.8021 20C1.0113 20 0.615906 19.7134 0.615906 19.1403V18.9367C0.615906 18.7707 0.661529 18.5596 0.752775 18.3032C0.752775 18.2881 0.882039 17.9638 1.14057 17.3303C1.76408 15.8371 2.33436 14.2986 2.85142 12.7149C3.36848 11.1161 3.83231 9.4721 4.24291 7.78281C3.46733 9.11011 2.76778 10.1735 2.14427 10.9729C1.53596 11.7722 0.821209 12.5339 0 13.2579Z" fill="#1F1E2B"/>
<path d="M18.773 11.267V13.19C18.1799 13.7783 17.4727 14.3137 16.6515 14.7964C15.6782 15.3695 14.857 15.6561 14.1879 15.6561C13.6252 15.6561 13.2526 15.264 13.0701 14.4796C12.9789 14.0875 12.9333 13.4691 12.9333 12.6244C12.9333 11.81 13.0625 10.8748 13.3211 9.81901C13.5796 8.7632 13.937 7.66214 14.3932 6.51584H16.3093L16.0812 7.19457C15.6098 8.59729 15.2752 9.72097 15.0775 10.5656C14.8798 11.4103 14.781 12.1418 14.781 12.7602C14.781 13.4842 14.9255 13.8462 15.2144 13.8462C15.5946 13.8462 16.3246 13.3937 17.4043 12.4887C17.8605 12.0965 18.3167 11.6893 18.773 11.267ZM16.5375 1.60633C17.2826 1.60633 17.6552 1.8175 17.6552 2.23982C17.6552 2.48115 17.5944 2.79035 17.4727 3.16742C17.3511 3.52941 17.2066 3.79336 17.0393 3.95928C16.8872 4.11011 16.5907 4.18552 16.1497 4.18552C15.5718 4.18552 15.2828 3.99698 15.2828 3.61991C15.2828 3.09201 15.3969 2.62443 15.625 2.21719C15.8683 1.80995 16.1725 1.60633 16.5375 1.60633Z" fill="#1F1E2B"/>
<path d="M27.3721 11.267V13.19C26.4748 14.0347 25.57 14.6606 24.6575 15.0679C23.7603 15.46 22.825 15.6561 21.8517 15.6561C20.5439 15.6561 19.6086 15.2413 19.0459 14.4118C18.6657 13.8537 18.4756 13.175 18.4756 12.3756C18.4756 10.8673 18.9775 9.5098 19.9812 8.30317C20.9849 7.09653 22.1103 6.49321 23.3573 6.49321C23.9808 6.49321 24.475 6.65158 24.84 6.96833C25.205 7.28507 25.3875 7.73001 25.3875 8.30317C25.3875 8.81599 25.2734 9.29864 25.0453 9.75113C24.8172 10.2036 24.4978 10.5656 24.0872 10.8371C23.8135 10.7164 23.5854 10.6033 23.4029 10.4977C23.2204 10.3771 23.0531 10.2187 22.901 10.0226C23.2812 9.5098 23.517 9.17044 23.6082 9.00453C23.6994 8.82353 23.7451 8.63499 23.7451 8.43891C23.7451 8.04676 23.5322 7.85068 23.1064 7.85068C22.498 7.85068 21.8897 8.35596 21.2814 9.36652C20.6883 10.3771 20.3918 11.3575 20.3918 12.3077C20.3918 12.8808 20.5591 13.3409 20.8937 13.6878C21.2282 14.0347 21.6616 14.2081 22.1939 14.2081C22.9847 14.2081 23.8211 13.9668 24.7031 13.4842C25.5852 12.9864 26.4748 12.2474 27.3721 11.267Z" fill="#1F1E2B"/>
<path d="M29.1506 15.543H27.3257C27.2648 15.1056 27.2116 14.5324 27.166 13.8235C27.1356 13.0995 27.1204 12.6018 27.1204 12.3303C27.1204 10.7919 27.3941 9.04977 27.9416 7.10407C28.4891 5.14329 29.181 3.43891 30.0174 1.99095C30.7778 0.66365 31.637 0 32.5951 0C33.0665 0 33.4467 0.188537 33.7357 0.565611C34.0246 0.927602 34.1691 1.41026 34.1691 2.01357C34.1691 2.8733 33.8649 3.8914 33.2566 5.06787C32.8156 5.89744 32.1465 6.93816 31.2492 8.19005C30.5953 9.09502 29.9414 9.99246 29.2875 10.8824L35.4921 6.71946L36.473 7.73756L31.4089 11.1991L32.6635 12.9186C33.0133 13.371 33.2262 13.635 33.3023 13.7104C33.4543 13.8612 33.614 13.9367 33.7813 13.9367C34.0702 13.9367 34.5265 13.7406 35.15 13.3484C35.7735 12.9563 36.5187 12.3906 37.3855 11.6516L37.8189 11.267V13.19C36.6631 14.0799 35.7279 14.7134 35.0131 15.0905C34.2983 15.4525 33.69 15.6335 33.1882 15.6335C32.732 15.6335 32.3214 15.4299 31.9564 15.0226C31.8195 14.8718 31.5306 14.4872 31.0896 13.8688L29.0593 11.1538L29.0137 12.3982C29.0137 12.8205 29.0365 13.3861 29.0822 14.095C29.1278 14.8039 29.1506 15.2866 29.1506 15.543ZM29.3331 8.77828C31.6142 5.74661 32.7548 3.57466 32.7548 2.26244C32.7548 2.08145 32.7168 1.93062 32.6407 1.80995C32.5647 1.68929 32.4582 1.62896 32.3214 1.62896C31.8956 1.62896 31.4165 2.28507 30.8842 3.59729C30.2912 5.06033 29.7741 6.78733 29.3331 8.77828Z" fill="#1F1E2B"/>
<path d="M39.5974 12.7828C40.0384 12.7828 40.2589 12.9336 40.2589 13.2353C40.2589 13.6425 40.1145 14.2383 39.8255 15.0226C39.7191 15.279 39.605 15.4449 39.4834 15.5204C39.3769 15.6109 39.1944 15.6561 38.9359 15.6561C38.5405 15.6561 38.2439 15.641 38.0462 15.6109C37.8638 15.5807 37.7725 15.4223 37.7725 15.1357C37.7725 14.8643 37.8181 14.5173 37.9094 14.095C38.0006 13.6727 38.0995 13.3635 38.2059 13.1674C38.2667 13.0317 38.396 12.9336 38.5937 12.8733C38.8066 12.813 39.1412 12.7828 39.5974 12.7828ZM40.9433 9.66063H39.8027C39.8027 9.01207 39.9092 8.20513 40.1221 7.23982C40.1373 7.19457 40.4262 6.0181 40.9889 3.71041C41.1258 3.03167 41.2398 2.46606 41.3311 2.01357C41.5136 1.15385 41.6276 0.686275 41.6732 0.61086C41.7341 0.520362 42.0458 0.414781 42.6085 0.294118C43.1864 0.158371 43.5742 0.0904977 43.7719 0.0904977C43.924 0.0904977 44 0.165913 44 0.316742C44 0.66365 43.8555 1.26697 43.5666 2.1267C43.4905 2.35294 43.1408 3.30317 42.5173 4.97738L42.1751 5.85973C41.7949 6.88537 41.5136 7.66214 41.3311 8.19005C41.1638 8.71795 41.0345 9.20815 40.9433 9.66063Z" fill="#1F1E2B"/>
</svg>
