<svg width="40" height="40" viewBox="0 0 40 40" fill="none" xmlns="http://www.w3.org/2000/svg">
<path d="M19.7082 0L2 3.73572L6.33705 9.27575V25.9043L19.7082 39.7587L33.0794 25.9043V9.27575L37.4164 3.73572L19.7082 0Z" fill="#4763F7"/>
<path d="M19.7946 40.0001C25.3471 32.7076 33.3649 33.5426 33.4315 33.5526L35.5274 30.3721C32.9557 29.7267 24.8315 28.9648 19.7813 34.1647C15.4297 29.221 6.60683 29.7267 4.03516 30.3721L6.13109 33.5526C6.19762 33.5426 14.2653 33.2898 19.768 40.0001" fill="#FF675D"/>
<path d="M26.302 9.93886V14.7164H24.8968L23.9673 12.079H17.5035L19.0168 10.5442V16.4458H21.6326L22.3243 14.7813H23.5998V20.2722H22.3243L21.5893 18.5428H19.0168V22.4988L21.719 22.9744V24.2715H13.3962V23.1041C13.7132 22.96 14.0303 22.8375 14.3473 22.7366C14.6788 22.6213 15.0103 22.5276 15.3418 22.4556L15.6012 11.8196L13.3962 11.2143V9.93886H26.302Z" fill="#151515"/>
</svg>
