<svg width="44" height="44" viewBox="0 0 44 44" fill="none" xmlns="http://www.w3.org/2000/svg">
<path fill-rule="evenodd" clip-rule="evenodd" d="M32.6156 13.4885C32.928 13.801 33.1035 14.2248 33.1035 14.6666C33.1035 15.1085 32.928 15.5323 32.6156 15.8448L20.1251 28.3353C19.96 28.5004 19.7641 28.6313 19.5484 28.7207C19.3327 28.81 19.1015 28.856 18.8681 28.856C18.6346 28.856 18.4034 28.81 18.1877 28.7207C17.9721 28.6313 17.7761 28.5004 17.611 28.3353L11.4052 22.1306C11.2461 21.9769 11.1191 21.793 11.0318 21.5897C10.9444 21.3864 10.8985 21.1677 10.8965 20.9464C10.8946 20.7252 10.9368 20.5057 11.0206 20.3009C11.1044 20.0961 11.2281 19.9101 11.3846 19.7536C11.541 19.5971 11.7271 19.4734 11.9319 19.3896C12.1367 19.3058 12.3561 19.2636 12.5774 19.2656C12.7987 19.2675 13.0173 19.3135 13.2206 19.4008C13.424 19.4881 13.6078 19.6151 13.7616 19.7742L18.8675 24.8802L30.2581 13.4885C30.4129 13.3336 30.5966 13.2108 30.7989 13.127C31.0011 13.0431 31.2179 13 31.4369 13C31.6558 13 31.8726 13.0431 32.0748 13.127C32.2771 13.2108 32.4608 13.3336 32.6156 13.4885Z" fill="#6A5DFD"/>
</svg>
