<svg width="33" height="40" viewBox="0 0 33 40" fill="none" xmlns="http://www.w3.org/2000/svg">
<path d="M32.0984 7.63286C20.6311 5.29181 16.161 0.0423867 16.1251 0C16.0892 0.0423867 11.6191 5.29507 0.151844 7.63612C0.151844 7.63612 -1.84359 29.3642 16.1251 38.5262C34.0938 29.3642 32.0984 7.63286 32.0984 7.63286Z" fill="#5D78A0"/>
<path d="M16.4353 40C21.8771 32.853 29.7349 33.6714 29.8001 33.6811L31.8542 30.5641C29.3339 29.9316 21.3717 29.1849 16.4222 34.2811C12.1575 29.436 3.51061 29.9316 0.990234 30.5641L3.04435 33.6811C3.10956 33.6714 11.0163 33.4236 16.4092 40" fill="#FF675D"/>
<path d="M25.0859 18.153H21.8265L18.4373 24.9189L13.9184 11.3872L10.5292 18.153H7.26971" stroke="#B3C6E3" stroke-width="2.3" stroke-linecap="round" stroke-linejoin="round"/>
</svg>
