<svg width="20" height="20" viewBox="0 0 20 20" fill="none" xmlns="http://www.w3.org/2000/svg">
<path d="M2.5 10.9375C2.5 7.79547 6.52953 4.08259 9.16249 2.15017C9.64285 1.79762 10.3023 1.86731 10.7356 2.2764C14.225 5.57143 17.5 7.51488 17.5 12.1875C17.5 14.6875 14.375 18.4375 10 18.4375C5.625 18.4375 2.5 15.3125 2.5 10.9375Z" stroke="#52515F"/>
<path d="M6.91406 12.7147C6.91406 11.5117 8.30423 10.1161 9.43527 9.22682C9.89572 8.86478 10.5451 8.9329 10.9847 9.32004C12.3724 10.5423 13.5807 11.4078 13.5807 13.2579C13.5807 14.3443 12.1918 15.974 10.2474 15.974C8.30295 15.974 6.91406 14.6159 6.91406 12.7147Z" stroke="#52515F"/>
</svg>
