<svg width="28" height="28" viewBox="0 0 28 28" fill="none" xmlns="http://www.w3.org/2000/svg">
<g clip-path="url(#clip0_6773_26342)">
<path fill-rule="evenodd" clip-rule="evenodd" d="M5.82598 11.2217C5.39114 11.4428 5.05554 11.8242 4.89301 12.2891C4.54643 13.2805 5.06918 14.3652 6.06059 14.7118L11.0578 16.4587L14.6178 12.6718C14.9775 12.2892 15.5792 12.2707 15.9618 12.6303C16.3444 12.99 16.363 13.5917 16.0033 13.9744L12.4675 17.7355L14.5532 22.6956L14.6325 22.8613C14.8641 23.2907 15.2534 23.617 15.7222 23.7682C16.7217 24.0907 17.7934 23.542 18.1159 22.5425L22.851 7.86914L22.8946 7.71097C22.9801 7.33891 22.9519 6.94831 22.8115 6.59057C22.4279 5.61289 21.3244 5.13128 20.3467 5.51488L5.99355 11.1464L5.82598 11.2217Z" fill="#6A5DFD"/>
</g>
<defs>
<clipPath id="clip0_6773_26342">
<rect width="28" height="28" fill="white" transform="translate(-0.000244141)"/>
</clipPath>
</defs>
</svg>
