<svg width="26" height="25" viewBox="0 0 26 25" fill="none" xmlns="http://www.w3.org/2000/svg">
<path d="M12.4877 21.5287L13.2091 20.9299C12.0709 19.5588 10.6048 18.3354 9.26337 17.216L9.21005 17.1715L9.20967 17.1712C7.74124 15.9471 6.34524 14.7784 5.30339 13.4569C4.27942 12.1581 3.64062 10.7628 3.64062 9.09472C3.64062 7.55709 4.16586 6.30942 5.01246 5.44972C5.85803 4.59107 7.07988 4.0625 8.58253 4.0625C10.1708 4.0625 11.6441 5.24846 12.5647 6.22878L13.2481 6.95656L13.9315 6.22878C14.8513 5.24925 16.3287 4.0625 17.9184 4.0625C19.4205 4.0625 20.6421 4.59102 21.4876 5.44968C22.3341 6.3094 22.8594 7.55709 22.8594 9.09472C22.8594 10.7632 22.2202 12.1586 21.1959 13.4575C20.1536 14.7791 18.7574 15.9475 17.2894 17.1712L17.2705 17.1869C15.9177 18.3141 14.438 19.5469 13.2885 20.9293L14.0094 21.5287M12.4877 21.5287L13.2076 20.9281C13.2115 20.9328 13.2152 20.9352 13.2177 20.9364C13.219 20.937 13.2199 20.9373 13.2204 20.9374L13.2212 20.9375H13.2768L13.2771 20.9375C13.2774 20.9374 13.2782 20.9372 13.2793 20.9367C13.2815 20.9356 13.2853 20.9332 13.2893 20.9284L14.0094 21.5287M12.4877 21.5287C12.6709 21.7482 12.9393 21.875 13.2212 21.875H13.2768C13.5597 21.875 13.8272 21.7472 14.0094 21.5287M12.4877 21.5287C11.4048 20.224 9.99416 19.0469 8.62923 17.9079L8.60937 17.8913C5.70515 15.4702 2.70312 12.9672 2.70312 9.09472C2.70312 5.58019 5.12028 3.125 8.58253 3.125C10.1811 3.125 11.5926 4.04794 12.5779 4.93122L17.8897 17.8913C16.5176 19.0345 15.0995 20.2177 14.0094 21.5287" stroke="#C7C7D0" stroke-width="1.875"/>
</svg>
