<svg width="22" height="19" viewBox="0 0 22 19" fill="none" xmlns="http://www.w3.org/2000/svg">
<path d="M10.4877 18.5287L11.2091 17.9299C10.0709 16.5588 8.60484 15.3354 7.26337 14.216L7.21005 14.1715L7.20967 14.1712C5.74124 12.9471 4.34524 11.7784 3.30339 10.4569C2.27942 9.15805 1.64062 7.76279 1.64062 6.09472C1.64062 4.55709 2.16586 3.30942 3.01246 2.44972C3.85803 1.59107 5.07988 1.0625 6.58253 1.0625C8.17079 1.0625 9.6441 2.24846 10.5647 3.22878L11.2481 3.95656L11.9315 3.22878C12.8513 2.24925 14.3287 1.0625 15.9184 1.0625C17.4205 1.0625 18.6421 1.59102 19.4876 2.44968C20.3341 3.3094 20.8594 4.55709 20.8594 6.09472C20.8594 7.76318 20.2202 9.15864 19.1959 10.4575C18.1536 11.7791 16.7574 12.9475 15.2894 14.1712L15.2705 14.1869C13.9177 15.3141 12.438 16.5469 11.2885 17.9293L12.0094 18.5287M10.4877 18.5287L11.2076 17.9281C11.2115 17.9328 11.2152 17.9352 11.2177 17.9364C11.219 17.937 11.2199 17.9373 11.2204 17.9374L11.2212 17.9375H11.2768L11.2771 17.9375C11.2774 17.9374 11.2782 17.9372 11.2793 17.9367C11.2815 17.9356 11.2853 17.9332 11.2893 17.9284L12.0094 18.5287M10.4877 18.5287C10.6709 18.7482 10.9393 18.875 11.2212 18.875H11.2768C11.5597 18.875 11.8272 18.7472 12.0094 18.5287M10.4877 18.5287C9.40475 17.224 7.99416 16.0469 6.62923 14.9079L6.60937 14.8913C3.70515 12.4702 0.703125 9.96724 0.703125 6.09472C0.703125 2.58019 3.12028 0.125 6.58253 0.125C8.18107 0.125 9.59259 1.04794 10.5779 1.93122L15.8897 14.8913C14.5176 16.0345 13.0995 17.2177 12.0094 18.5287" stroke="#C7C7D0" stroke-width="1.875"/>
</svg>
