<svg width="24" height="24" viewBox="0 0 24 24" fill="none" xmlns="http://www.w3.org/2000/svg">
<path fill-rule="evenodd" clip-rule="evenodd" d="M6.375 13.6875C5.44302 13.6875 4.6875 12.932 4.6875 12C4.6875 11.068 5.44302 10.3125 6.375 10.3125C7.30698 10.3125 8.0625 11.068 8.0625 12C8.0625 12.932 7.30698 13.6875 6.375 13.6875ZM12 13.6875C11.068 13.6875 10.3125 12.932 10.3125 12C10.3125 11.068 11.068 10.3125 12 10.3125C12.932 10.3125 13.6875 11.068 13.6875 12C13.6875 12.932 12.932 13.6875 12 13.6875ZM17.625 13.6875C16.693 13.6875 15.9375 12.932 15.9375 12C15.9375 11.068 16.693 10.3125 17.625 10.3125C18.557 10.3125 19.3125 11.068 19.3125 12C19.3125 12.932 18.557 13.6875 17.625 13.6875Z" fill="#C7C7D0"/>
</svg>
