<svg width="49" height="48" viewBox="0 0 49 48" fill="none" xmlns="http://www.w3.org/2000/svg">
<g clip-path="url(#clip0_1559_25128)">
<path d="M35.7983 35.75V32H19.5483C17.4773 32 15.7983 33.6789 15.7983 35.75M21.7983 39.5H31.7983C33.1985 39.5 33.8985 39.5 34.4333 39.2275C34.9037 38.9878 35.2862 38.6054 35.5259 38.135C35.7983 37.6002 35.7983 36.9001 35.7983 35.5V18.5C35.7983 17.0999 35.7983 16.3998 35.5259 15.865C35.2862 15.3946 34.9037 15.0122 34.4333 14.7725C33.8985 14.5 33.1985 14.5 31.7983 14.5H21.7983C19.6981 14.5 18.648 14.5 17.8459 14.9087C17.1403 15.2683 16.5666 15.8419 16.2071 16.5475C15.7983 17.3497 15.7983 18.3998 15.7983 20.5V33.5C15.7983 35.6002 15.7983 36.6503 16.2071 37.4525C16.5666 38.1581 17.1403 38.7317 17.8459 39.0913C18.648 39.5 19.6981 39.5 21.7983 39.5Z" stroke="#AEADB3" stroke-width="2.5" stroke-linecap="round" stroke-linejoin="round"/>
<path fill-rule="evenodd" clip-rule="evenodd" d="M39.2472 7.67787C38.8176 8.10745 38.8321 8.81844 39.2796 9.26592L41.7103 11.6966L39.3768 14.03C38.9473 14.4596 38.9618 15.1706 39.4093 15.6181C39.8567 16.0656 40.5677 16.0801 40.9973 15.6505L43.3308 13.317L45.7614 15.7477C46.2089 16.1952 46.9199 16.2097 47.3495 15.7801C47.7791 15.3506 47.7645 14.6396 47.3171 14.1921L44.8864 11.7614L47.2198 9.42796C47.6494 8.99838 47.6349 8.28739 47.1874 7.83992C46.74 7.39244 46.029 7.37793 45.5994 7.80751L43.2659 10.141L40.8353 7.71028C40.3878 7.26281 39.6768 7.2483 39.2472 7.67787Z" fill="#AEADB3"/>
</g>
<defs>
<clipPath id="clip0_1559_25128">
<rect width="48" height="48" fill="white" transform="translate(0.79834)"/>
</clipPath>
</defs>
</svg>
