<svg width="46" height="46" viewBox="0 0 46 46" fill="none" xmlns="http://www.w3.org/2000/svg">
<circle cx="23" cy="23" r="21.25" stroke="#6A5DFD" stroke-width="3.5"/>
<path fill-rule="evenodd" clip-rule="evenodd" d="M33.504 15.5158C33.8215 15.8334 33.9999 16.2642 33.9999 16.7133C33.9999 17.1625 33.8215 17.5933 33.504 17.9109L20.808 30.6069C20.6402 30.7747 20.441 30.9078 20.2218 30.9987C20.0025 31.0895 19.7675 31.1362 19.5302 31.1362C19.2929 31.1362 19.058 31.0895 18.8387 30.9987C18.6195 30.9078 18.4203 30.7747 18.2525 30.6069L11.9446 24.3001C11.7828 24.1439 11.6538 23.957 11.565 23.7503C11.4762 23.5436 11.4295 23.3214 11.4276 23.0965C11.4256 22.8716 11.4685 22.6485 11.5536 22.4403C11.6388 22.2322 11.7646 22.043 11.9236 21.884C12.0826 21.725 12.2718 21.5992 12.4799 21.514C12.6881 21.4289 12.9112 21.386 13.1361 21.388C13.361 21.3899 13.5832 21.4366 13.7899 21.5254C13.9966 21.6142 14.1835 21.7432 14.3397 21.905L19.5297 27.095L31.1077 15.5158C31.265 15.3584 31.4518 15.2335 31.6574 15.1483C31.863 15.0631 32.0833 15.0193 32.3058 15.0193C32.5284 15.0193 32.7487 15.0631 32.9543 15.1483C33.1599 15.2335 33.3467 15.3584 33.504 15.5158Z" fill="#6A5DFD"/>
</svg>
