<svg width="18" height="18" viewBox="0 0 18 18" fill="none" xmlns="http://www.w3.org/2000/svg">
<g clip-path="url(#clip0_14916_22384)">
<path d="M0.818359 4.25453C0.818359 3.33808 0.818359 2.87986 0.996712 2.52982C1.1536 2.22192 1.40393 1.97159 1.71183 1.81471C2.06187 1.63635 2.52009 1.63635 3.43654 1.63635H3.76381C5.59671 1.63635 6.51316 1.63635 7.21324 1.99306C7.82904 2.30683 8.3297 2.80749 8.64347 3.42329C9.00018 4.12337 9.00018 5.03982 9.00018 6.87272V16.3636L8.91831 16.2408C8.34997 15.3883 8.0658 14.9621 7.69035 14.6535C7.35797 14.3803 6.97499 14.1753 6.56331 14.0503C6.09829 13.9091 5.58599 13.9091 4.5614 13.9091H3.43654C2.52009 13.9091 2.06187 13.9091 1.71183 13.7307C1.40393 13.5738 1.1536 13.3235 0.996712 13.0156C0.818359 12.6656 0.818359 12.2073 0.818359 11.2909V4.25453Z" fill="#949399"/>
<path d="M17.182 4.25453C17.182 3.33808 17.182 2.87986 17.0036 2.52982C16.8468 2.22192 16.5964 1.97159 16.2885 1.81471C15.9385 1.63635 15.4803 1.63635 14.5638 1.63635H14.2365C12.4036 1.63635 11.4872 1.63635 10.7871 1.99306C10.1713 2.30683 9.67065 2.80749 9.35688 3.42329C9.00018 4.12337 9.00018 5.03982 9.00018 6.87272V16.3636L9.08204 16.2408C9.65038 15.3883 9.93456 14.9621 10.31 14.6535C10.6424 14.3803 11.0254 14.1753 11.437 14.0503C11.9021 13.9091 12.4144 13.9091 13.439 13.9091H14.5638C15.4803 13.9091 15.9385 13.9091 16.2885 13.7307C16.5964 13.5738 16.8468 13.3235 17.0036 13.0156C17.182 12.6656 17.182 12.2073 17.182 11.2909V4.25453Z" fill="#949399"/>
</g>
<defs>
<clipPath id="clip0_14916_22384">
<rect width="18" height="18" fill="white"/>
</clipPath>
</defs>
</svg>
