<svg width="14" height="14" viewBox="0 0 14 14" fill="none" xmlns="http://www.w3.org/2000/svg">
<path fill-rule="evenodd" clip-rule="evenodd" d="M3.39771 1.6C3.39771 1.26863 3.66633 1 3.9977 1C4.32908 1 4.5977 1.26863 4.5977 1.6V3.23438H9.39771V1.6C9.39771 1.26863 9.66633 1 9.99771 1C10.3291 1 10.5977 1.26863 10.5977 1.6V3.23438H11.1984C11.8611 3.23438 12.3984 3.77163 12.3984 4.43437V11.5422C12.3984 12.2049 11.8611 12.7422 11.1984 12.7422H2.79839C2.13565 12.7422 1.59839 12.2049 1.59839 11.5422V4.43437C1.59839 3.77163 2.13565 3.23438 2.79839 3.23438H3.39771V1.6ZM3.99683 6.7875C3.99683 6.45613 4.26546 6.1875 4.59683 6.1875C4.9282 6.1875 5.19683 6.45613 5.19683 6.7875C5.19683 7.11887 4.9282 7.3875 4.59683 7.3875C4.26546 7.3875 3.99683 7.11887 3.99683 6.7875ZM6.99683 6.1875C6.66546 6.1875 6.39683 6.45613 6.39683 6.7875C6.39683 7.11887 6.66546 7.3875 6.99683 7.3875C7.3282 7.3875 7.59683 7.11887 7.59683 6.7875C7.59683 6.45613 7.3282 6.1875 6.99683 6.1875ZM8.79683 6.7875C8.79683 6.45613 9.06546 6.1875 9.39683 6.1875C9.7282 6.1875 9.99683 6.45613 9.99683 6.7875C9.99683 7.11887 9.7282 7.3875 9.39683 7.3875C9.06546 7.3875 8.79683 7.11887 8.79683 6.7875ZM4.59683 8.5875C4.26546 8.5875 3.99683 8.85613 3.99683 9.1875C3.99683 9.51887 4.26546 9.7875 4.59683 9.7875C4.9282 9.7875 5.19683 9.51887 5.19683 9.1875C5.19683 8.85613 4.9282 8.5875 4.59683 8.5875ZM6.39683 9.1875C6.39683 8.85613 6.66546 8.5875 6.99683 8.5875C7.3282 8.5875 7.59683 8.85613 7.59683 9.1875C7.59683 9.51887 7.3282 9.7875 6.99683 9.7875C6.66546 9.7875 6.39683 9.51887 6.39683 9.1875ZM9.39683 8.5875C9.06546 8.5875 8.79683 8.85613 8.79683 9.1875C8.79683 9.51887 9.06546 9.7875 9.39683 9.7875C9.7282 9.7875 9.99683 9.51887 9.99683 9.1875C9.99683 8.85613 9.7282 8.5875 9.39683 8.5875Z" fill="#240991"/>
</svg>
