<svg width="48" height="48" viewBox="0 0 48 48" fill="none" xmlns="http://www.w3.org/2000/svg">
<g clip-path="url(#clip0_1112_18634)">
<path d="M35 35.75V32H18.75C16.6789 32 15 33.6789 15 35.75M21 39.5H31C32.4001 39.5 33.1002 39.5 33.635 39.2275C34.1054 38.9878 34.4878 38.6054 34.7275 38.135C35 37.6002 35 36.9001 35 35.5V18.5C35 17.0999 35 16.3998 34.7275 15.865C34.4878 15.3946 34.1054 15.0122 33.635 14.7725C33.1002 14.5 32.4001 14.5 31 14.5H21C18.8998 14.5 17.8497 14.5 17.0475 14.9087C16.3419 15.2683 15.7683 15.8419 15.4087 16.5475C15 17.3497 15 18.3998 15 20.5V33.5C15 35.6002 15 36.6503 15.4087 37.4525C15.7683 38.1581 16.3419 38.7317 17.0475 39.0913C17.8497 39.5 18.8998 39.5 21 39.5Z" stroke="#AEADB3" stroke-width="2.5" stroke-linecap="round" stroke-linejoin="round"/>
<path fill-rule="evenodd" clip-rule="evenodd" d="M38.4489 7.67805C38.0193 8.10763 38.0338 8.81862 38.4813 9.26609L40.912 11.6968L38.5785 14.0302C38.149 14.4598 38.1635 15.1708 38.6109 15.6183C39.0584 16.0657 39.7694 16.0803 40.199 15.6507L42.5324 13.3172L44.9631 15.7479C45.4106 16.1954 46.1216 16.2099 46.5512 15.7803C46.9807 15.3507 46.9662 14.6397 46.5188 14.1923L44.0881 11.7616L46.4215 9.42814C46.8511 8.99856 46.8366 8.28757 46.3891 7.8401C45.9416 7.39262 45.2307 7.37811 44.8011 7.80769L42.4676 10.1411L40.0369 7.71046C39.5895 7.26298 38.8785 7.24847 38.4489 7.67805Z" fill="#AEADB3"/>
</g>
<defs>
<clipPath id="clip0_1112_18634">
<rect width="48" height="48" fill="white"/>
</clipPath>
</defs>
</svg>
