<svg width="27" height="27" viewBox="0 0 27 27" fill="none" xmlns="http://www.w3.org/2000/svg">
<path d="M13.5 22.0857H23.25M3.75 22.0857H5.56409C6.09403 22.0857 6.35901 22.0857 6.60836 22.0258C6.82944 21.9728 7.04079 21.8852 7.23465 21.7664C7.4533 21.6324 7.64066 21.4451 8.01539 21.0703L21.625 7.46069C22.5225 6.56323 22.5225 5.10816 21.625 4.21069C20.7276 3.31323 19.2725 3.31323 18.375 4.21069L4.76537 17.8203C4.39064 18.1951 4.20327 18.3824 4.06928 18.6011C3.95048 18.7949 3.86294 19.0063 3.80987 19.2274C3.75 19.4767 3.75 19.7417 3.75 20.2716V22.0857Z" stroke="white" stroke-width="2.6" stroke-linecap="round" stroke-linejoin="round"/>
</svg>
