<svg width="24" height="25" viewBox="0 0 24 25" fill="none" xmlns="http://www.w3.org/2000/svg">
<path fill-rule="evenodd" clip-rule="evenodd" d="M12 0.5C18.6274 0.5 24 5.87258 24 12.5C24 19.1274 18.6274 24.5 12 24.5C5.37258 24.5 0 19.1274 0 12.5C0 5.87258 5.37258 0.5 12 0.5ZM12.5986 23.7597C12.5951 23.758 12.5911 23.7584 12.5872 23.759C12.5838 23.7597 12.5804 23.7608 12.5772 23.7624L12.5174 23.7918C12.5132 23.7939 12.5086 23.7955 12.504 23.7964L12.5014 23.7969C12.4946 23.7983 12.4875 23.798 12.4808 23.7961C12.4783 23.7954 12.4758 23.7944 12.4735 23.7933L12.406 23.76C12.3982 23.7569 12.391 23.758 12.3858 23.7615C12.383 23.7635 12.3814 23.7666 12.3801 23.7698C12.3787 23.7732 12.3779 23.7769 12.3778 23.7806L12.3613 24.1946C12.3611 24.2002 12.3617 24.2057 12.363 24.2112L12.3637 24.2137C12.3652 24.2198 12.368 24.2256 12.3718 24.2306C12.3746 24.2342 12.3779 24.2373 12.3816 24.24L12.4752 24.3066C12.4784 24.3089 12.4819 24.3105 12.4856 24.3115L12.4868 24.3118C12.4922 24.3132 12.4978 24.3131 12.503 24.3113C12.5057 24.3104 12.5082 24.3092 12.5104 24.3076L12.604 24.2409C12.6087 24.2377 12.6127 24.2337 12.6161 24.2292L12.6167 24.2285C12.6208 24.2229 12.6238 24.2165 12.6254 24.2097C12.6265 24.2053 12.6269 24.2007 12.6267 24.1961L12.6104 23.785C12.6101 23.779 12.6099 23.7728 12.6068 23.7676C12.6047 23.7641 12.6018 23.7614 12.5986 23.7597ZM12.8645 23.6474C12.8605 23.6451 12.8557 23.6454 12.8511 23.6461C12.8471 23.6467 12.8431 23.6479 12.8395 23.6498L12.6648 23.7376C12.6616 23.7392 12.6587 23.7413 12.6562 23.7438L12.6551 23.7449C12.6518 23.7482 12.6493 23.7524 12.6481 23.7569C12.6474 23.7596 12.6471 23.7624 12.6472 23.7652L12.6648 24.1854C12.6649 24.1891 12.6657 24.1928 12.6672 24.1962L12.6675 24.1969C12.6691 24.2009 12.6717 24.2045 12.6749 24.2073C12.677 24.2091 12.6792 24.2106 12.6817 24.2117L12.879 24.303C12.888 24.306 12.8964 24.3045 12.9025 24.3003C12.9067 24.2974 12.9087 24.2925 12.9101 24.2877C12.9114 24.2833 12.9119 24.2787 12.9116 24.2741L12.8786 23.678C12.8782 23.6707 12.8777 23.6631 12.8739 23.6568C12.8715 23.6527 12.8683 23.6495 12.8645 23.6474ZM12.143 23.647C12.1385 23.6449 12.1334 23.6444 12.1285 23.6455C12.1259 23.6461 12.1235 23.6471 12.1213 23.6484C12.1174 23.6509 12.1151 23.6552 12.1132 23.6595C12.1111 23.6645 12.1098 23.6698 12.1095 23.6752L12.076 24.281C12.076 24.2893 12.0794 24.2957 12.0848 24.3002C12.0896 24.3042 12.0963 24.3046 12.1025 24.3037C12.1061 24.3032 12.1097 24.3022 12.113 24.3007L12.3055 24.2116C12.3078 24.2105 12.31 24.2092 12.312 24.2076L12.3131 24.2067C12.317 24.2036 12.3199 24.1996 12.3216 24.1949C12.3225 24.1923 12.3231 24.1896 12.3232 24.1868L12.3398 23.7652C12.3399 23.7624 12.3397 23.7596 12.339 23.7569C12.3377 23.7517 12.335 23.747 12.3312 23.7432L12.3307 23.7427C12.3282 23.7402 12.3254 23.7382 12.3223 23.7367L12.143 23.647Z" fill="#F4F5F8"/>
<path fill-rule="evenodd" clip-rule="evenodd" d="M18.4734 7.76509C18.6642 7.95593 18.7713 8.21473 18.7713 8.48458C18.7713 8.75442 18.6642 9.01322 18.4734 9.20406L10.8457 16.8317C10.7449 16.9326 10.6252 17.0125 10.4935 17.0671C10.3618 17.1217 10.2206 17.1498 10.078 17.1498C9.93548 17.1498 9.7943 17.1217 9.66259 17.0671C9.53087 17.0125 9.4112 16.9326 9.3104 16.8317L5.52064 13.0427C5.42344 12.9488 5.34592 12.8365 5.29258 12.7123C5.23925 12.5882 5.21117 12.4546 5.21 12.3195C5.20883 12.1844 5.23457 12.0504 5.28574 11.9253C5.33691 11.8003 5.41248 11.6866 5.50803 11.5911C5.60358 11.4955 5.7172 11.42 5.84227 11.3688C5.96733 11.3176 6.10134 11.2919 6.23646 11.2931C6.37159 11.2942 6.50512 11.3223 6.62928 11.3756C6.75344 11.429 6.86573 11.5065 6.95961 11.6037L10.0777 14.7218L17.0337 7.76509C17.1282 7.67053 17.2405 7.59551 17.364 7.54432C17.4875 7.49314 17.6199 7.4668 17.7536 7.4668C17.8873 7.4668 18.0196 7.49314 18.1432 7.54432C18.2667 7.59551 18.3789 7.67053 18.4734 7.76509Z" fill="#EEEEF2"/>
</svg>
