<svg width="20" height="20" viewBox="0 0 20 20" fill="none" xmlns="http://www.w3.org/2000/svg">
<path fill-rule="evenodd" clip-rule="evenodd" d="M5.18625 4.54189C5.65925 4.18875 6.22307 4 6.8 4C7.37693 4 7.94075 4.18875 8.41375 4.54189C8.88692 4.89515 9.24624 5.39588 9.44032 5.97626L9.48599 6.11283H16.8C17.0086 6.11283 17.211 6.20017 17.3619 6.35945C17.5132 6.5191 17.6 6.73781 17.6 6.96796C17.6 7.19811 17.5132 7.41682 17.3619 7.57647C17.211 7.73575 17.0086 7.82308 16.8 7.82308H9.48599L9.44032 7.95965C9.24624 8.54003 8.88692 9.04077 8.41375 9.39403C7.94075 9.74717 7.37693 9.93592 6.8 9.93592C6.22307 9.93592 5.65925 9.74717 5.18625 9.39403C4.71308 9.04077 4.35376 8.54003 4.15968 7.95965L4.114 7.82308H2.8C2.5914 7.82308 2.38901 7.73575 2.23806 7.57647C2.08675 7.41682 2 7.19811 2 6.96796C2 6.73781 2.08675 6.5191 2.23806 6.35945C2.38901 6.20017 2.5914 6.11283 2.8 6.11283H4.114L4.15968 5.97626C4.35376 5.39588 4.71308 4.89515 5.18625 4.54189ZM6.8 5.71283C6.47817 5.71283 6.17184 5.84783 5.94773 6.0843C5.72396 6.3204 5.6 6.63844 5.6 6.96796C5.6 7.29748 5.72396 7.61552 5.94773 7.85162C6.17184 8.08809 6.47817 8.22308 6.8 8.22308C7.12183 8.22308 7.42815 8.08809 7.65227 7.85162C7.87604 7.61552 8 7.29748 8 6.96796C8 6.63844 7.87604 6.3204 7.65227 6.0843C7.42815 5.84783 7.12183 5.71283 6.8 5.71283ZM11.1862 10.8726C11.6593 10.5195 12.2231 10.3307 12.8 10.3307C13.3769 10.3307 13.9407 10.5195 14.4137 10.8726C14.8869 11.2259 15.2462 11.7266 15.4403 12.307L15.486 12.4436H16.8C17.0086 12.4436 17.211 12.5309 17.3619 12.6902C17.5132 12.8498 17.6 13.0686 17.6 13.2987C17.6 13.5289 17.5132 13.7476 17.3619 13.9072C17.211 14.0665 17.0086 14.1538 16.8 14.1538H15.486L15.4403 14.2904C15.2462 14.8708 14.8869 15.3715 14.4137 15.7248C13.9407 16.0779 13.3769 16.2667 12.8 16.2667C12.2231 16.2667 11.6593 16.0779 11.1862 15.7248C10.7131 15.3715 10.3538 14.8708 10.1597 14.2904L10.114 14.1538H2.8C2.5914 14.1538 2.38902 14.0665 2.23806 13.9072C2.08675 13.7476 2 13.5289 2 13.2987C2 13.0686 2.08675 12.8498 2.23806 12.6902C2.38901 12.5309 2.5914 12.4436 2.8 12.4436H10.114L10.1597 12.307C10.3538 11.7266 10.7131 11.2259 11.1862 10.8726ZM12.8 12.0436C12.4782 12.0436 12.1718 12.1786 11.9477 12.415C11.724 12.6511 11.6 12.9692 11.6 13.2987C11.6 13.6282 11.724 13.9463 11.9477 14.1824C12.1718 14.4188 12.4782 14.5538 12.8 14.5538C13.1218 14.5538 13.4282 14.4188 13.6523 14.1824C13.876 13.9463 14 13.6282 14 13.2987C14 12.9692 13.876 12.6511 13.6523 12.415C13.4282 12.1786 13.1218 12.0436 12.8 12.0436Z" fill="#949399"/>
</svg>
