<svg width="36" height="40" viewBox="0 0 36 40" fill="none" xmlns="http://www.w3.org/2000/svg">
<path d="M35.1821 8.29324C31.5358 6.66012 30.1538 1.62936 30.1538 1.62936C19.6993 4.24235 18.1146 0.0825945 18.0845 0C18.0545 0.0863488 16.4698 4.24611 6.0152 1.63312C6.0152 1.63312 4.63327 6.66012 0.986938 8.29699C0.986938 8.29699 9.91313 13.324 5.2604 27.1511C5.2604 27.1511 10.7919 33.8112 18.0845 35.8235C25.3772 33.8112 30.9086 27.1511 30.9086 27.1511C26.2559 13.324 35.1821 8.29699 35.1821 8.29699V8.29324Z" fill="#9560BF"/>
<path d="M17.7464 40.0001C23.2989 32.7076 31.3167 33.5426 31.3832 33.5526L33.4792 30.3721C30.9075 29.7267 22.7833 28.9648 17.7331 34.1647C13.3815 29.221 4.55862 29.7267 1.98694 30.3721L4.08287 33.5526C4.14941 33.5426 12.2171 33.2898 17.7197 40.0001" fill="#FF675D"/>
<path d="M17.9866 17.0002H17.9941M20.6382 19.6519C17.1235 23.1666 13.0871 24.8287 11.6226 23.3642C10.1581 21.8997 11.8202 17.8633 15.3349 14.3486C18.8496 10.8339 22.8861 9.1718 24.3505 10.6363C25.815 12.1007 24.1529 16.1372 20.6382 19.6519ZM20.6382 14.3484C24.1529 17.8632 25.815 21.8996 24.3505 23.3641C22.886 24.8285 18.8496 23.1665 15.3349 19.6517C11.8202 16.137 10.1581 12.1006 11.6226 10.6361C13.087 9.17167 17.1235 10.8337 20.6382 14.3484ZM18.3616 17.0002C18.3616 17.2073 18.1937 17.3752 17.9866 17.3752C17.7795 17.3752 17.6116 17.2073 17.6116 17.0002C17.6116 16.7931 17.7795 16.6252 17.9866 16.6252C18.1937 16.6252 18.3616 16.7931 18.3616 17.0002Z" stroke="#1A103F" stroke-width="1.36826" stroke-linecap="round" stroke-linejoin="round"/>
</svg>
