<svg width="16" height="16" viewBox="0 0 16 16" fill="none" xmlns="http://www.w3.org/2000/svg">
<path fill-rule="evenodd" clip-rule="evenodd" d="M7.32999 1.57593C5.22362 3.12186 2 6.09217 2 8.60579C2 12.1058 4.5 14.6058 8 14.6058C11.5 14.6058 14 11.6058 14 9.60579C14 6.50638 12.1988 4.90796 9.99209 2.94966C9.53736 2.54612 9.06541 2.1273 8.58845 1.67691C8.24187 1.34964 7.71428 1.29389 7.32999 1.57593ZM7.38726 7.25204C6.35084 7.97355 5 9.16639 5 10.1891C5 11.7447 6.25 12.8558 8 12.8558C9.75 12.8558 11 11.5225 11 10.6336C11 9.25605 10.0994 8.54565 8.99605 7.67529C8.85296 7.56242 8.70647 7.44686 8.55809 7.32681C8.21987 7.05317 7.74432 7.00347 7.38726 7.25204Z" fill="#6341F0"/>
</svg>
