<svg width="22" height="22" viewBox="0 0 22 22" fill="none" xmlns="http://www.w3.org/2000/svg">
<g clip-path="url(#clip0_1650_26777)">
<path d="M1 5.2C1 4.07989 1 3.51984 1.21799 3.09202C1.40973 2.71569 1.71569 2.40973 2.09202 2.21799C2.51984 2 3.07989 2 4.2 2H4.6C6.84021 2 7.96031 2 8.81596 2.43597C9.56861 2.81947 10.1805 3.43139 10.564 4.18404C11 5.03968 11 6.15979 11 8.4V20L10.8999 19.8499C10.2053 18.808 9.85798 18.287 9.3991 17.9098C8.99286 17.5759 8.52477 17.3254 8.02161 17.1726C7.45325 17 6.82711 17 5.57482 17H4.2C3.0799 17 2.51984 17 2.09202 16.782C1.71569 16.5903 1.40973 16.2843 1.21799 15.908C1 15.4802 1 14.9201 1 13.8V5.2Z" fill="#111118"/>
<path d="M21 5.2C21 4.07989 21 3.51984 20.782 3.09202C20.5903 2.71569 20.2843 2.40973 19.908 2.21799C19.4802 2 18.9201 2 17.8 2H17.4C15.1598 2 14.0397 2 13.184 2.43597C12.4314 2.81947 11.8195 3.43139 11.436 4.18404C11 5.03968 11 6.15979 11 8.4V20L11.1001 19.8499C11.7947 18.808 12.142 18.287 12.6009 17.9098C13.0071 17.5759 13.4752 17.3254 13.9784 17.1726C14.5468 17 15.1729 17 16.4252 17H17.8C18.9201 17 19.4802 17 19.908 16.782C20.2843 16.5903 20.5903 16.2843 20.782 15.908C21 15.4802 21 14.9201 21 13.8V5.2Z" fill="#111118"/>
</g>
<defs>
<clipPath id="clip0_1650_26777">
<rect width="22" height="22" fill="white"/>
</clipPath>
</defs>
</svg>
