<svg width="28" height="16" viewBox="0 0 28 16" fill="none" xmlns="http://www.w3.org/2000/svg">
<path d="M23.2 7.08469L24.8145 2H26.6473L25.0982 6.90228L27.1273 6.87948L26.8655 8.24756L26.0582 8.22476L24.64 8.27036L24.5309 8.65798C24.3273 9.43322 24.1745 10.1249 24.0727 10.7329C23.9709 11.3257 23.92 11.8502 23.92 12.3062C23.92 13.6135 24.1382 14.2671 24.5745 14.2671C24.8073 14.2671 25.2 14.0695 25.7527 13.6743C26.4364 13.1878 27.1855 12.5038 28 11.6221V13.5603C27.04 14.4875 26.1455 15.1564 25.3164 15.5668C24.7345 15.8556 24.2327 16 23.8109 16C23.2582 16 22.8145 15.7036 22.48 15.1107C22.16 14.5027 22 13.7047 22 12.7166C22 12.0934 22.0364 11.5689 22.1091 11.1433C22.1818 10.7177 22.3564 9.98806 22.6327 8.9544L22.8073 8.27036L22.1309 8.38436L22.2182 7.47231C22.2327 7.35071 22.3345 7.2671 22.5236 7.2215C22.7273 7.1759 22.9527 7.13029 23.2 7.08469Z" fill="#6A5DFD"/>
<path d="M22 11.6898V13.5881C21.4804 13.9901 20.8644 14.1911 20.1518 14.1911C19.7362 14.1911 19.3576 14.1092 19.0162 13.9454C18.6896 13.7816 18.3408 13.5062 17.9696 13.1191C16.9008 15.0397 15.5277 16 13.8502 16C12.9595 16 12.2618 15.7171 11.7571 15.1514C11.2524 14.5856 11 13.7891 11 12.7618C11 11.1092 11.4825 9.73945 12.4474 8.65261C13.4271 7.55087 14.7112 7 16.2996 7L16.2105 8.27295C15.0972 8.43672 14.2807 8.89082 13.7611 9.63524C13.2416 10.3648 12.9818 11.3251 12.9818 12.5161C12.9818 13.871 13.4197 14.5484 14.2955 14.5484C14.8448 14.5484 15.3718 14.2506 15.8765 13.6551C16.3961 13.0447 16.7301 12.33 16.8785 11.5112C16.7895 11.1985 16.7301 10.9677 16.7004 10.8189C16.6856 10.67 16.6781 10.5062 16.6781 10.3275C16.6781 9.92556 16.7152 9.48635 16.7895 9.00993C16.8637 8.5335 17.0047 8.12407 17.2126 7.78164H18.7045C18.7787 8.06452 18.8232 8.32506 18.8381 8.56328C18.8529 8.7866 18.8603 8.96526 18.8603 9.09926C18.8603 9.91811 18.7267 10.7593 18.4595 11.6228C19.1721 12.3524 19.7659 12.7171 20.2409 12.7171C20.8198 12.7171 21.4062 12.3747 22 11.6898Z" fill="#6A5DFD"/>
<path d="M11.0003 11.5246V13.4957C10.3227 14.2686 9.62246 14.8792 8.89964 15.3275C8.19189 15.7758 7.55943 16 7.00226 16C6.56556 16 6.18909 15.799 5.87286 15.3971C5.55663 14.9952 5.39852 14.5005 5.39852 13.913C5.39852 13.2947 5.60181 12.4213 6.00839 11.2928C6.41497 10.1643 6.61826 9.37584 6.61826 8.92754C6.61826 8.6029 6.49027 8.44058 6.23427 8.44058C5.81263 8.44058 5.2404 8.7343 4.51759 9.32174C3.79477 9.90918 2.98161 10.7517 2.07809 11.8493C2.03291 12.2512 2.0028 12.5681 1.98774 12.8C1.97268 13.0319 1.96515 13.3643 1.96515 13.7971L2.03291 15.9072H0.271055C0.255997 15.8145 0.203291 15.2812 0.11294 14.3072C0.0376466 13.3179 0 12.8 0 12.7536C0 11.5478 0.21835 9.98647 0.65505 8.06956C1.15198 5.8744 1.77692 4.05797 2.52985 2.62029C3.43337 0.87343 4.39712 0 5.4211 0C5.91804 0 6.32462 0.208696 6.64085 0.626087C6.95708 1.04348 7.1152 1.57681 7.1152 2.22609C7.1152 3.77198 6.30956 5.62705 4.69829 7.7913C5.39099 7.34299 5.88792 7.057 6.18909 6.93333C6.50532 6.7942 6.81403 6.72464 7.1152 6.72464C7.52178 6.72464 7.83801 6.89469 8.06389 7.23478C8.28977 7.57488 8.40271 8.06184 8.40271 8.69565C8.40271 9.31401 8.20695 10.1874 7.81542 11.3159C7.4239 12.4444 7.22814 13.287 7.22814 13.8435C7.22814 14.1836 7.34861 14.3536 7.58955 14.3536C8.31236 14.3536 9.44928 13.4106 11.0003 11.5246ZM5.71475 2.38841C5.71475 1.81643 5.56416 1.53043 5.26299 1.53043C4.76605 1.53043 4.17877 2.4657 3.50113 4.33623C2.83855 6.1913 2.40185 7.92271 2.19103 9.53043C3.42584 7.86087 4.32182 6.46956 4.87899 5.35652C5.43616 4.22802 5.71475 3.23865 5.71475 2.38841Z" fill="#6A5DFD"/>
</svg>
