<svg width="20" height="20" viewBox="0 0 20 20" fill="none" xmlns="http://www.w3.org/2000/svg">
<path d="M13.6395 2.66663C12.0728 2.66663 10.7341 3.80657 9.99856 4.59248C9.26304 3.80657 7.92731 2.66663 6.36135 2.66663C3.66222 2.66663 1.77783 4.58713 1.77783 7.33628C1.77783 10.3654 4.11818 12.3233 6.38228 14.2171C7.45117 15.1122 8.55743 16.0369 9.40581 17.0624C9.54858 17.2341 9.75787 17.3333 9.97763 17.3333H10.021C10.2415 17.3333 10.45 17.2333 10.5921 17.0624C11.4419 16.0369 12.5474 15.1114 13.6171 14.2171C15.8804 12.3241 18.2223 10.3662 18.2223 7.33628C18.2223 4.58713 16.3379 2.66663 13.6395 2.66663Z" fill="#6A5DFD"/>
</svg>
