<svg width="40" height="40" viewBox="0 0 40 40" fill="none" xmlns="http://www.w3.org/2000/svg">
<path d="M32.499 17.3547C29.7506 11.1644 31.5094 5.96883 31.5094 5.96883C24.1687 4.97791 19.6692 0.0388596 19.6345 0C19.6035 0.0388596 15.1002 4.97791 7.75946 5.96883C7.75946 5.96883 9.51829 11.1644 6.76988 17.3547C6.76988 17.3547 3.05508 23.0204 6.22097 27.3027C11.9265 35.0241 19.5997 36.2521 19.6345 36.256C19.6692 36.2521 27.3424 35.0241 33.0479 27.3027C36.2138 23.0204 32.499 17.3547 32.499 17.3547Z" fill="#C50B43"/>
<path d="M19.6532 40C25.1684 32.7566 33.1321 33.586 33.1982 33.5959L35.28 30.4369C32.7257 29.7958 24.6562 29.0391 19.64 34.204C15.3178 29.2935 6.55435 29.7958 4 30.4369L6.08181 33.5959C6.14789 33.586 14.1612 33.3349 19.6268 40" fill="#FF675D"/>
<path fill-rule="evenodd" clip-rule="evenodd" d="M22.6662 20.1441C22.6864 20.1509 22.71 20.1543 22.737 20.1543H22.753C23.437 20.1543 24.1103 20.0474 24.7729 19.8337C25.4354 19.6093 26.0339 19.2994 26.5683 18.9039C27.1133 18.5085 27.5461 18.0436 27.8667 17.5093C28.1873 16.9749 28.3477 16.3872 28.3477 15.7459C28.3477 15.1475 28.2087 14.6559 27.9309 14.2711C27.653 13.8864 27.2896 13.5818 26.8408 13.3574C26.3919 13.1223 25.895 12.9459 25.35 12.8284C24.8049 12.7108 24.2599 12.636 23.7148 12.604C23.1805 12.5612 22.6889 12.5345 22.24 12.5238C21.2889 12.5024 20.3431 12.5612 19.4026 12.7001C18.4622 12.8284 17.5805 13.0261 16.7576 13.2933C15.9454 13.5498 15.2454 13.8704 14.6576 14.2551C14.0698 14.6398 13.6637 15.0727 13.4393 15.5536C13.3538 15.7246 13.3111 15.8742 13.3111 16.0024C13.3111 16.1948 13.4233 16.291 13.6477 16.291C13.7973 16.291 13.9683 16.2482 14.1607 16.1627C14.3637 16.0665 14.5294 15.9543 14.6576 15.8261C14.9889 15.4948 15.4271 15.1956 15.9721 14.9284C16.5172 14.6612 17.1263 14.4368 17.7996 14.2551C18.4729 14.0627 19.1782 13.9185 19.9156 13.8223C20.653 13.7261 21.3797 13.678 22.0958 13.678C22.275 13.678 22.4502 13.6814 22.6212 13.6883L22.5074 13.859C22.4838 13.8724 22.4642 13.8922 22.4484 13.9185C22.2988 14.1536 22.0958 14.4368 21.8393 14.7681C21.5935 15.0994 21.3263 15.452 21.0378 15.8261C20.7599 16.2001 20.4874 16.5581 20.2202 16.9001C19.9637 17.2421 19.7393 17.536 19.5469 17.7818C19.1301 18.3268 18.6492 18.8986 18.1042 19.4971C17.5591 20.0955 16.9714 20.6619 16.3408 21.1963C15.721 21.72 15.0851 22.1474 14.4332 22.4787C13.7813 22.81 13.1401 22.9757 12.5095 22.9757C11.4729 22.9757 10.7248 22.7887 10.2653 22.4146C9.81642 22.0406 9.59199 21.5971 9.59199 21.0841C9.59199 20.7314 9.68817 20.3734 9.88054 20.01C10.0836 19.636 10.3615 19.294 10.7141 18.9841C11.0668 18.6742 11.4836 18.423 11.9645 18.2307C12.4561 18.0383 12.9905 17.9421 13.5676 17.9421C14.0485 17.9421 14.5133 18.0169 14.9622 18.1665C15.4111 18.3055 15.7904 18.4711 16.1004 18.6635C16.4103 18.8452 16.5813 19.0055 16.6133 19.1444C16.6561 19.3474 16.7576 19.449 16.9179 19.449C17.0462 19.449 17.1691 19.3795 17.2866 19.2406C17.4042 19.1016 17.4576 18.9307 17.4469 18.7276C17.4256 18.3856 17.2706 18.0971 16.982 17.862C16.7042 17.6268 16.3622 17.4398 15.9561 17.3009C15.55 17.1513 15.1439 17.0444 14.7378 16.9803C14.3424 16.9162 14.0164 16.8841 13.7599 16.8841C12.8943 16.8841 12.1141 17.0177 11.4195 17.2849C10.7355 17.5413 10.1424 17.8887 9.64008 18.3268C9.14848 18.7543 8.76909 19.2245 8.50192 19.7375C8.24543 20.2505 8.11719 20.7635 8.11719 21.2764C8.11719 21.7787 8.26146 22.249 8.55001 22.6871C8.83856 23.1253 9.28741 23.478 9.89657 23.7451C10.5164 24.0123 11.3073 24.1459 12.2691 24.1459C13.3912 24.1459 14.4172 23.9375 15.3469 23.5207C16.2874 23.1039 17.153 22.5482 17.9439 21.8535C18.5645 21.3 19.149 20.7004 19.6972 20.0547L19.9933 20.0399C20.0029 20.3745 20.0331 20.7645 20.0545 20.9989C20.0474 21.0187 20.0439 21.0417 20.0439 21.0681V21.1001C20.0546 21.1001 20.0599 21.1055 20.0599 21.1161C20.1988 21.5543 20.3965 22.0032 20.653 22.4627C20.9095 22.9222 21.2301 23.3497 21.6149 23.7451C22.0103 24.1406 22.4752 24.4558 23.0095 24.6909C23.5545 24.9367 24.169 25.0596 24.853 25.0596C25.4729 25.0596 26.0232 24.9635 26.5041 24.7711C26.9851 24.5787 27.4339 24.3169 27.8507 23.9856C28.2782 23.665 28.695 23.3123 29.1011 22.9276C29.1337 22.9004 29.1525 22.8718 29.1575 22.8419C29.9589 22.1236 30.1744 21.5642 30.2642 21.3312C30.2789 21.2931 30.2902 21.2638 30.3001 21.2438C30.3738 21.0966 30.4474 20.7283 30.1529 20.4338C29.9486 20.2295 29.7665 20.2687 29.6736 20.3307C29.6223 20.3322 29.5811 20.3589 29.5499 20.4108C29.3362 20.71 29.0477 21.0467 28.6843 21.4207C28.3316 21.7948 27.9415 22.1581 27.5141 22.5108C27.0973 22.8528 26.6805 23.136 26.2637 23.3604C25.8469 23.5848 25.4729 23.6971 25.1416 23.6971C24.7248 23.6971 24.3347 23.5955 23.9713 23.3925C23.608 23.1894 23.282 22.9276 22.9935 22.607C22.7156 22.2757 22.4912 21.9177 22.3202 21.5329C22.1492 21.1482 22.037 20.7688 21.9836 20.3948C21.9824 20.3844 21.9807 20.3745 21.9786 20.3652V20.2128L22.6662 20.1441ZM27.4918 22.9426L27.5017 22.9376L27.5104 22.9283C27.5042 22.9331 27.498 22.9378 27.4918 22.9426ZM24.4042 13.9185C24.296 13.8927 24.1854 13.869 24.0723 13.8474L23.7455 14.1742L23.7308 14.1918C23.7316 14.2222 23.721 14.2539 23.6988 14.2872C23.1645 15.0994 22.6034 15.9597 22.0156 16.8681C21.5119 17.6516 20.9715 18.423 20.3945 19.1822H20.8933C20.9182 19.1677 20.9503 19.1604 20.9897 19.1604C21.695 19.1284 22.379 19.0322 23.0416 18.8719C23.7148 18.7116 24.3187 18.4925 24.853 18.2146C25.398 17.9368 25.8255 17.6055 26.1354 17.2207C26.4561 16.8253 26.6164 16.3872 26.6164 15.9062C26.6164 15.3826 26.4187 14.9604 26.0232 14.6398C25.6278 14.3085 25.0881 14.0681 24.4042 13.9185Z" fill="#DEBEAC"/>
</svg>
