<svg width="40" height="40" viewBox="0 0 40 40" fill="none" xmlns="http://www.w3.org/2000/svg">
<path d="M36.0124 7.63286C24.5452 5.29181 20.075 0.0423867 20.0392 0C20.0033 0.0423867 15.5331 5.29507 4.06591 7.63612C4.06591 7.63612 2.07047 29.3642 20.0392 38.5262C38.0079 29.3642 36.0124 7.63286 36.0124 7.63286Z" fill="#FB615E"/>
<path d="M20.349 40C25.7908 32.853 33.6486 33.6714 33.7138 33.6811L35.7679 30.5641C33.2476 29.9316 25.2854 29.1849 20.3359 34.2811C16.0712 29.436 7.42431 29.9316 4.90393 30.5641L6.95805 33.6811C7.02326 33.6714 14.93 33.4236 20.3229 40" fill="white"/>
<path d="M25.471 11.0273L24.0396 19.7851L22.5985 13.4629H20.127H20.1237H17.6555L16.2144 19.7851L14.7797 11.0273H10.277L13.4462 25.0182H18.2196L20.127 17.4766L22.0311 25.0182H26.8045L29.9737 11.0273H25.471Z" fill="#6341F0"/>
</svg>
