<svg width="14" height="14" viewBox="0 0 14 14" fill="none" xmlns="http://www.w3.org/2000/svg">
<path fill-rule="evenodd" clip-rule="evenodd" d="M13.0455 2.62621C13.0455 1.95844 12.5042 1.41711 11.8364 1.41711H2.16368C1.49592 1.41711 0.95459 1.95844 0.95459 2.62621V9.11711C0.95459 9.78488 1.49592 10.3262 2.16368 10.3262H4.6605L6.55494 12.3874C6.79446 12.648 7.20563 12.648 7.44515 12.3874L9.33959 10.3262H11.8364C12.5042 10.3262 13.0455 9.78488 13.0455 9.11711V2.62621ZM3.50146 4.59645C3.50146 4.24499 3.78637 3.96008 4.13783 3.96008H9.8651C10.2166 3.96008 10.5015 4.24499 10.5015 4.59645C10.5015 4.9479 10.2166 5.23281 9.8651 5.23281H4.13783C3.78637 5.23281 3.50146 4.9479 3.50146 4.59645ZM3.50146 7.14332C3.50146 6.79187 3.78637 6.50696 4.13783 6.50696H9.8651C10.2166 6.50696 10.5015 6.79187 10.5015 7.14332C10.5015 7.49478 10.2166 7.77969 9.8651 7.77969H4.13783C3.78637 7.77969 3.50146 7.49478 3.50146 7.14332Z" fill="#949399"/>
</svg>
