<svg width="17" height="16" viewBox="0 0 17 16" fill="none" xmlns="http://www.w3.org/2000/svg">
<path fill-rule="evenodd" clip-rule="evenodd" d="M7.16198 13.5C7.16198 13.7761 7.38583 14 7.66198 14H14.2983C15.1268 14 15.7983 13.3284 15.7983 12.5V2.5C15.7983 1.67157 15.1268 1 14.2983 1H4.29834C3.46991 1 2.79834 1.67157 2.79834 2.5V9.13636C2.79834 9.41251 3.0222 9.63636 3.29834 9.63636C3.57448 9.63636 3.79834 9.41251 3.79834 9.13636V2.5C3.79834 2.22386 4.0222 2 4.29834 2H14.2983C14.5745 2 14.7983 2.22386 14.7983 2.5V12.5C14.7983 12.7761 14.5745 13 14.2983 13H7.66198C7.38583 13 7.16198 13.2239 7.16198 13.5Z" fill="#6341F0"/>
<path fill-rule="evenodd" clip-rule="evenodd" d="M11.7983 5.5C11.7983 5.22386 11.5745 5 11.2983 5H6.29834C6.0222 5 5.79834 5.22386 5.79834 5.5C5.79834 5.77614 6.0222 6 6.29834 6H10.0912L1.94479 14.1464C1.74952 14.3417 1.74952 14.6583 1.94479 14.8536C2.14005 15.0488 2.45663 15.0488 2.65189 14.8536L10.7983 6.70711V10.5C10.7983 10.7761 11.0222 11 11.2983 11C11.5745 11 11.7983 10.7761 11.7983 10.5V5.5Z" fill="#6341F0"/>
</svg>
