<svg width="14" height="14" viewBox="0 0 14 14" fill="none" xmlns="http://www.w3.org/2000/svg">
<path d="M9.4345 2.11108C8.3865 2.11108 7.491 2.87105 6.999 3.39498C6.507 2.87105 5.6135 2.11108 4.566 2.11108C2.7605 2.11108 1.5 3.39142 1.5 5.22418C1.5 7.24363 3.0655 8.54889 4.58 9.81143C5.295 10.4081 6.035 11.0246 6.6025 11.7083C6.698 11.8227 6.838 11.8889 6.985 11.8889H7.014C7.1615 11.8889 7.301 11.8222 7.396 11.7083C7.9645 11.0246 8.704 10.4076 9.4195 9.81143C10.9335 8.5494 12.5 7.24414 12.5 5.22418C12.5 3.39142 11.2395 2.11108 9.4345 2.11108Z" fill="#949399"/>
</svg>
