<svg width="34" height="40" viewBox="0 0 34 40" fill="none" xmlns="http://www.w3.org/2000/svg">
<path d="M31.5065 21.3076V0H1.45272V21.3076C1.45272 21.3076 1.04307 27.4945 7.32569 30.9309C13.5934 34.3597 16.461 35.3228 16.4759 35.3303C16.4908 35.3266 19.3621 34.3597 25.6261 30.9309C31.9087 27.4945 31.4991 21.3076 31.4991 21.3076H31.5065Z" fill="#DDF742"/>
<path d="M16.5686 40.0002C22.3981 32.344 30.8156 33.2207 30.8855 33.2312L33.0859 29.8921C30.386 29.2145 21.8567 28.4147 16.5547 33.8739C11.9861 28.6836 2.72334 29.2145 0.0234375 29.8921L2.22387 33.2312C2.29373 33.2207 10.7637 32.9553 16.5407 40.0002" fill="#FF675D"/>
<path d="M14.3583 17.6297C14.3583 17.6297 15.41 18.8317 17.163 18.8317C18.9159 18.8317 19.9677 17.6297 19.9677 17.6297M19.3667 13.623H19.3747M14.9593 13.623H14.9673M17.163 22.4378C20.9248 22.4378 23.9744 19.3882 23.9744 15.6264C23.9744 11.8645 20.9248 8.81494 17.163 8.81494C13.4011 8.81494 10.3516 11.8645 10.3516 15.6264C10.3516 16.3876 10.4765 17.1197 10.7069 17.8033C10.7936 18.0605 10.8369 18.1892 10.8447 18.288C10.8525 18.3855 10.8466 18.454 10.8225 18.5488C10.798 18.6449 10.7441 18.7448 10.6361 18.9446L9.3254 21.3707C9.13843 21.7167 9.04495 21.8898 9.06587 22.0233C9.0841 22.1396 9.15255 22.242 9.25306 22.3033C9.36846 22.3737 9.56409 22.3535 9.95534 22.3131L14.059 21.8889C14.1833 21.876 14.2454 21.8696 14.3021 21.8718C14.3578 21.8739 14.3971 21.8791 14.4514 21.8916C14.5067 21.9044 14.5761 21.9311 14.715 21.9846C15.4747 22.2773 16.3001 22.4378 17.163 22.4378ZM19.7674 13.623C19.7674 13.8443 19.588 14.0237 19.3667 14.0237C19.1454 14.0237 18.966 13.8443 18.966 13.623C18.966 13.4017 19.1454 13.2223 19.3667 13.2223C19.588 13.2223 19.7674 13.4017 19.7674 13.623ZM15.36 13.623C15.36 13.8443 15.1806 14.0237 14.9593 14.0237C14.738 14.0237 14.5586 13.8443 14.5586 13.623C14.5586 13.4017 14.738 13.2223 14.9593 13.2223C15.1806 13.2223 15.36 13.4017 15.36 13.623Z" stroke="#758321" stroke-width="1.4" stroke-linecap="round" stroke-linejoin="round"/>
</svg>
