<svg width="19" height="19" viewBox="0 0 19 19" fill="none" xmlns="http://www.w3.org/2000/svg">
<path d="M12.6667 4.74992V4.11659C12.6667 3.22984 12.6667 2.78646 12.4941 2.44777C12.3423 2.14984 12.1001 1.90762 11.8022 1.75582C11.4635 1.58325 11.0201 1.58325 10.1333 1.58325H8.86667C7.97992 1.58325 7.53654 1.58325 7.19785 1.75582C6.89993 1.90762 6.65771 2.14984 6.50591 2.44777C6.33333 2.78646 6.33333 3.22984 6.33333 4.11659V4.74992M7.91667 9.10409V13.0624M11.0833 9.10409V13.0624M2.375 4.74992H16.625M15.0417 4.74992V13.6166C15.0417 14.9467 15.0417 15.6118 14.7828 16.1198C14.5551 16.5667 14.1918 16.93 13.7449 17.1577C13.2369 17.4166 12.5718 17.4166 11.2417 17.4166H7.75833C6.42821 17.4166 5.76315 17.4166 5.25511 17.1577C4.80822 16.93 4.44489 16.5667 4.21719 16.1198C3.95833 15.6118 3.95833 14.9467 3.95833 13.6166V4.74992" stroke="#DFDFE3" stroke-width="1.1875" stroke-linecap="round" stroke-linejoin="round"/>
</svg>
