<svg width="11" height="10" viewBox="0 0 11 10" fill="none" xmlns="http://www.w3.org/2000/svg">
<path d="M7.9345 0C6.8865 0 5.991 0.759963 5.499 1.2839C5.007 0.759963 4.1135 0 3.066 0C1.2605 0 0 1.28034 0 3.1131C0 5.13254 1.5655 6.43781 3.08 7.70034C3.795 8.29702 4.535 8.91354 5.1025 9.5972C5.198 9.71165 5.338 9.77778 5.485 9.77778H5.514C5.6615 9.77778 5.801 9.71114 5.896 9.5972C6.4645 8.91354 7.204 8.29651 7.9195 7.70034C9.4335 6.43832 11 5.13305 11 3.1131C11 1.28034 9.7395 0 7.9345 0Z" fill="#949399"/>
</svg>
