<svg width="21" height="20" viewBox="0 0 21 20" fill="none" xmlns="http://www.w3.org/2000/svg">
<path d="M10.75 16.6667H18.25M3.25 16.6667H4.64545C5.0531 16.6667 5.25693 16.6667 5.44874 16.6206C5.6188 16.5798 5.78138 16.5125 5.9305 16.4211C6.09869 16.318 6.24282 16.1739 6.53107 15.8856L17 5.41669C17.6904 4.72634 17.6904 3.60705 17 2.91669C16.3097 2.22634 15.1904 2.22634 14.5 2.91669L4.03105 13.3856C3.7428 13.6739 3.59867 13.818 3.4956 13.9862C3.40422 14.1353 3.33688 14.2979 3.29605 14.468C3.25 14.6598 3.25 14.8636 3.25 15.2713V16.6667Z" stroke="white" stroke-linecap="round" stroke-linejoin="round"/>
</svg>
