<svg width="20" height="19" viewBox="0 0 20 19" fill="none" xmlns="http://www.w3.org/2000/svg">
<path d="M13.465 4.75016V4.11683C13.465 3.23008 13.465 2.7867 13.2924 2.44801C13.1406 2.15009 12.8984 1.90787 12.6005 1.75607C12.2618 1.5835 11.8184 1.5835 10.9317 1.5835H9.66501C8.77826 1.5835 8.33488 1.5835 7.99619 1.75607C7.69827 1.90787 7.45605 2.15009 7.30425 2.44801C7.13167 2.7867 7.13167 3.23008 7.13167 4.11683V4.75016M8.71501 9.10433V13.0627M11.8817 9.10433V13.0627M3.17334 4.75016H17.4233M15.84 4.75016V13.6168C15.84 14.947 15.84 15.612 15.5811 16.1201C15.3534 16.5669 14.9901 16.9303 14.5432 17.158C14.0352 17.4168 13.3701 17.4168 12.04 17.4168H8.55667C7.22655 17.4168 6.56149 17.4168 6.05345 17.158C5.60656 16.9303 5.24323 16.5669 5.01553 16.1201C4.75667 15.612 4.75667 14.947 4.75667 13.6168V4.75016" stroke="#DFDFE3" stroke-width="1.1875" stroke-linecap="round" stroke-linejoin="round"/>
</svg>
