<svg width="20" height="20" viewBox="0 0 20 20" fill="none" xmlns="http://www.w3.org/2000/svg">
<path fill-rule="evenodd" clip-rule="evenodd" d="M9.16249 1.97C6.52953 3.90242 2.5 7.6153 2.5 10.7573C2.5 15.1323 5.625 18.2573 10 18.2573C14.375 18.2573 17.5 14.5073 17.5 12.0073C17.5 8.13307 15.2485 6.13505 12.4901 3.68717C11.9217 3.18274 11.3318 2.65922 10.7356 2.09623C10.3023 1.68714 9.64285 1.61745 9.16249 1.97ZM9.23408 9.06514C7.93855 9.96703 6.25 11.4581 6.25 12.7365C6.25 14.6809 7.8125 16.0698 10 16.0698C12.1875 16.0698 13.75 14.4032 13.75 13.292C13.75 11.5702 12.6243 10.6821 11.2451 9.5942C11.0662 9.45312 10.8831 9.30867 10.6976 9.15861C10.2748 8.81655 9.68039 8.75443 9.23408 9.06514Z" fill="#FF675D"/>
</svg>
