<svg width="28" height="28" viewBox="0 0 28 28" fill="none" xmlns="http://www.w3.org/2000/svg">
<path fill-rule="evenodd" clip-rule="evenodd" d="M15 5C15 4.44772 14.5523 4 14 4C13.4477 4 13 4.44772 13 5V5.07089C9.60771 5.55612 7 8.47353 7 12V18C6.44772 18 6 18.4477 6 19C6 19.5523 6.44772 20 7 20H8H9H10C10 22.2091 11.7909 24 14 24C16.2091 24 18 22.2091 18 20H19H20H21C21.5523 20 22 19.5523 22 19C22 18.4477 21.5523 18 21 18V12C21 8.47353 18.3923 5.55612 15 5.07089V5ZM14 7C11.2386 7 9 9.23858 9 12V18H19V12C19 9.23858 16.7614 7 14 7ZM14 22C12.8954 22 12 21.1046 12 20H16C16 21.1046 15.1046 22 14 22Z" fill="#1F232A"/>
</svg>
