<svg width="49" height="48" viewBox="0 0 49 48" fill="none" xmlns="http://www.w3.org/2000/svg">
<g clip-path="url(#clip0_2126_26243)">
<path d="M35.5 35.75V32H19.25C17.1789 32 15.5 33.6789 15.5 35.75M21.5 39.5H31.5C32.9001 39.5 33.6002 39.5 34.135 39.2275C34.6054 38.9878 34.9878 38.6054 35.2275 38.135C35.5 37.6002 35.5 36.9001 35.5 35.5V18.5C35.5 17.0999 35.5 16.3998 35.2275 15.865C34.9878 15.3946 34.6054 15.0122 34.135 14.7725C33.6002 14.5 32.9001 14.5 31.5 14.5H21.5C19.3998 14.5 18.3497 14.5 17.5475 14.9087C16.8419 15.2683 16.2683 15.8419 15.9087 16.5475C15.5 17.3497 15.5 18.3998 15.5 20.5V33.5C15.5 35.6002 15.5 36.6503 15.9087 37.4525C16.2683 38.1581 16.8419 38.7317 17.5475 39.0913C18.3497 39.5 19.3998 39.5 21.5 39.5Z" stroke="#AEADB3" stroke-width="2.5" stroke-linecap="round" stroke-linejoin="round"/>
<path fill-rule="evenodd" clip-rule="evenodd" d="M38.9489 7.67812C38.5194 8.10769 38.5339 8.81868 38.9813 9.26616L41.412 11.6968L39.0786 14.0303C38.649 14.4599 38.6635 15.1709 39.111 15.6183C39.5585 16.0658 40.2694 16.0803 40.699 15.6507L43.0325 13.3173L45.4632 15.748C45.9106 16.1954 46.6216 16.21 47.0512 15.7804C47.4808 15.3508 47.4663 14.6398 47.0188 14.1923L44.5881 11.7617L46.9216 9.4282C47.3511 8.99863 47.3366 8.28764 46.8892 7.84016C46.4417 7.39269 45.7307 7.37818 45.3011 7.80775L42.9677 10.1412L40.537 7.71053C40.0895 7.26305 39.3785 7.24854 38.9489 7.67812Z" fill="#AEADB3"/>
</g>
<defs>
<clipPath id="clip0_2126_26243">
<rect width="48" height="48" fill="white" transform="translate(0.5)"/>
</clipPath>
</defs>
</svg>
