<svg width="36" height="40" viewBox="0 0 36 40" fill="none" xmlns="http://www.w3.org/2000/svg">
<path d="M17.7866 0L0.0783691 3.73572L4.41542 9.27575V25.9043L17.7866 39.7587L31.1577 25.9043V9.27575L35.4948 3.73572L17.7866 0Z" fill="#4763F7"/>
<path d="M17.873 40.0001C23.4255 32.7076 31.4433 33.5426 31.5098 33.5526L33.6058 30.3721C31.0341 29.7267 22.9098 28.9648 17.8596 34.1647C13.5081 29.221 4.6852 29.7267 2.11353 30.3721L4.20946 33.5526C4.27599 33.5426 12.3437 33.2898 17.8463 40.0001" fill="#FF675D"/>
<path d="M24.3803 9.93886V14.7164H22.9751L22.0456 12.079H15.5818L17.0951 10.5442V16.4458H19.7108L20.4026 14.7813H21.6781V20.2722H20.4026L19.6676 18.5428H17.0951V22.4988L19.7973 22.9744V24.2715H11.4744V23.1041C11.7915 22.96 12.1086 22.8375 12.4256 22.7366C12.7571 22.6213 13.0886 22.5276 13.42 22.4556L13.6795 11.8196L11.4744 11.2143V9.93886H24.3803Z" fill="#151515"/>
</svg>
