<svg width="36" height="40" viewBox="0 0 36 40" fill="none" xmlns="http://www.w3.org/2000/svg">
<path d="M34.1801 10.8137C31.6767 6.73777 27.0531 7.33285 27.0531 7.33285C25.5893 -0.162753 17.9812 0.000283344 17.9649 0.000283344C17.9486 0.000283344 10.3405 -0.162753 8.87265 7.33285C8.87265 7.33285 4.24906 6.73369 1.74563 10.8137C-0.753716 14.8896 -3.05736 23.8607 17.9649 38.5666C38.9872 23.8566 36.6835 14.8896 34.1801 10.8096V10.8137Z" fill="#DE5EE0"/>
<path d="M17.956 40C23.3978 32.853 31.2557 33.6714 31.3209 33.6811L33.375 30.5641C30.8546 29.9316 22.8925 29.1849 17.943 34.2811C13.6782 29.436 5.03136 29.9316 2.51099 30.5641L4.56511 33.6811C4.63032 33.6714 12.5371 33.4236 17.93 40" fill="#FF675D"/>
<mask id="path-3-inside-1_1559_25176" fill="white">
<path d="M17.7103 14.7476L17.3739 15.0716C17.4175 15.1168 17.4697 15.1527 17.5275 15.1773C17.5853 15.2019 17.6475 15.2145 17.7103 15.2145C17.7731 15.2145 17.8353 15.2019 17.8931 15.1773C17.9509 15.1527 18.0031 15.1168 18.0467 15.0716L17.7103 14.7476ZM14.5959 21.5507C14.5001 21.4719 14.3769 21.4344 14.2534 21.4464C14.1299 21.4585 14.0162 21.5191 13.9374 21.6149C13.8586 21.7107 13.8211 21.8339 13.8331 21.9574C13.8451 22.0809 13.9057 22.1946 14.0016 22.2734L14.5959 21.5507ZM11.6934 19.6761C11.7228 19.73 11.7626 19.7775 11.8104 19.8159C11.8582 19.8544 11.9131 19.8831 11.972 19.9003C12.0309 19.9175 12.0926 19.923 12.1536 19.9164C12.2146 19.9098 12.2738 19.8912 12.3276 19.8618C12.3814 19.8323 12.4289 19.7926 12.4674 19.7447C12.5059 19.6969 12.5345 19.642 12.5518 19.5831C12.569 19.5242 12.5745 19.4625 12.5679 19.4015C12.5613 19.3405 12.5427 19.2814 12.5132 19.2276L11.6934 19.6761ZM11.9476 17.0134C11.9476 15.674 12.7045 14.5501 13.7381 14.0772C14.7423 13.6181 16.0917 13.7396 17.3739 15.0716L18.0467 14.4243C16.5266 12.8437 14.7598 12.5827 13.3493 13.2275C11.97 13.8586 11.0131 15.3239 11.0131 17.0134H11.9476ZM15.5279 23.4696C15.8475 23.7213 16.1902 23.9891 16.5372 24.1922C16.8842 24.3947 17.2804 24.5598 17.7103 24.5598V23.6253C17.5172 23.6253 17.2904 23.5505 17.0088 23.3855C16.7266 23.221 16.4344 22.9942 16.1067 22.7357L15.5279 23.4696ZM19.8926 23.4696C20.781 22.7687 21.9174 21.9663 22.8083 20.9626C23.716 19.9409 24.4075 18.6743 24.4075 17.0134H23.473C23.473 18.3828 22.9123 19.4375 22.1099 20.3421C21.2907 21.2641 20.2583 21.9912 19.3139 22.7357L19.8926 23.4696ZM24.4075 17.0134C24.4075 15.3239 23.4512 13.8586 22.0713 13.2275C20.6608 12.5827 18.8952 12.8437 17.3739 14.4236L18.0467 15.0716C19.3288 13.7402 20.6782 13.6181 21.6825 14.0772C22.7161 14.5501 23.473 15.6734 23.473 17.0134H24.4075ZM19.3139 22.7357C18.9862 22.9942 18.694 23.221 18.4118 23.3855C18.1302 23.5499 17.9034 23.6253 17.7103 23.6253V24.5598C18.1402 24.5598 18.5364 24.3947 18.8834 24.1922C19.231 23.9891 19.573 23.7213 19.8926 23.4696L19.3139 22.7357ZM16.1067 22.7357C15.6108 22.345 15.1068 21.9712 14.5959 21.5507L14.0016 22.2734C14.5187 22.6989 15.0657 23.1051 15.5279 23.4696L16.1067 22.7357ZM12.5132 19.2282C12.138 18.5506 11.9432 17.788 11.9476 17.0134H11.0131C11.0131 18.0339 11.2747 18.9105 11.6934 19.6761L12.5132 19.2282Z"/>
</mask>
<path d="M17.7103 14.7476L17.3739 15.0716C17.4175 15.1168 17.4697 15.1527 17.5275 15.1773C17.5853 15.2019 17.6475 15.2145 17.7103 15.2145C17.7731 15.2145 17.8353 15.2019 17.8931 15.1773C17.9509 15.1527 18.0031 15.1168 18.0467 15.0716L17.7103 14.7476ZM14.5959 21.5507C14.5001 21.4719 14.3769 21.4344 14.2534 21.4464C14.1299 21.4585 14.0162 21.5191 13.9374 21.6149C13.8586 21.7107 13.8211 21.8339 13.8331 21.9574C13.8451 22.0809 13.9057 22.1946 14.0016 22.2734L14.5959 21.5507ZM11.6934 19.6761C11.7228 19.73 11.7626 19.7775 11.8104 19.8159C11.8582 19.8544 11.9131 19.8831 11.972 19.9003C12.0309 19.9175 12.0926 19.923 12.1536 19.9164C12.2146 19.9098 12.2738 19.8912 12.3276 19.8618C12.3814 19.8323 12.4289 19.7926 12.4674 19.7447C12.5059 19.6969 12.5345 19.642 12.5518 19.5831C12.569 19.5242 12.5745 19.4625 12.5679 19.4015C12.5613 19.3405 12.5427 19.2814 12.5132 19.2276L11.6934 19.6761ZM11.9476 17.0134C11.9476 15.674 12.7045 14.5501 13.7381 14.0772C14.7423 13.6181 16.0917 13.7396 17.3739 15.0716L18.0467 14.4243C16.5266 12.8437 14.7598 12.5827 13.3493 13.2275C11.97 13.8586 11.0131 15.3239 11.0131 17.0134H11.9476ZM15.5279 23.4696C15.8475 23.7213 16.1902 23.9891 16.5372 24.1922C16.8842 24.3947 17.2804 24.5598 17.7103 24.5598V23.6253C17.5172 23.6253 17.2904 23.5505 17.0088 23.3855C16.7266 23.221 16.4344 22.9942 16.1067 22.7357L15.5279 23.4696ZM19.8926 23.4696C20.781 22.7687 21.9174 21.9663 22.8083 20.9626C23.716 19.9409 24.4075 18.6743 24.4075 17.0134H23.473C23.473 18.3828 22.9123 19.4375 22.1099 20.3421C21.2907 21.2641 20.2583 21.9912 19.3139 22.7357L19.8926 23.4696ZM24.4075 17.0134C24.4075 15.3239 23.4512 13.8586 22.0713 13.2275C20.6608 12.5827 18.8952 12.8437 17.3739 14.4236L18.0467 15.0716C19.3288 13.7402 20.6782 13.6181 21.6825 14.0772C22.7161 14.5501 23.473 15.6734 23.473 17.0134H24.4075ZM19.3139 22.7357C18.9862 22.9942 18.694 23.221 18.4118 23.3855C18.1302 23.5499 17.9034 23.6253 17.7103 23.6253V24.5598C18.1402 24.5598 18.5364 24.3947 18.8834 24.1922C19.231 23.9891 19.573 23.7213 19.8926 23.4696L19.3139 22.7357ZM16.1067 22.7357C15.6108 22.345 15.1068 21.9712 14.5959 21.5507L14.0016 22.2734C14.5187 22.6989 15.0657 23.1051 15.5279 23.4696L16.1067 22.7357ZM12.5132 19.2282C12.138 18.5506 11.9432 17.788 11.9476 17.0134H11.0131C11.0131 18.0339 11.2747 18.9105 11.6934 19.6761L12.5132 19.2282Z" fill="#0F0629"/>
<path d="M16.1067 22.7357L21.5449 27.0244L10.6698 18.4453L16.1067 22.7357ZM19.8926 23.4696L14.4544 27.7583L25.3321 19.1825L19.8926 23.4696ZM21.2545 27.3923L21.5436 27.026L10.6698 18.4453L10.3807 18.8117L21.2545 27.3923ZM14.1635 27.389L14.4532 27.7566L25.3321 19.1825L25.0424 18.8149L14.1635 27.389ZM19.3508 26.6726L19.9451 25.95L9.24675 17.1515L8.65241 17.8742L19.3508 26.6726ZM11.0131 23.9392H11.9476V10.0876H11.0131V23.9392ZM24.6361 24.5598V23.6253H10.7845V24.5598H24.6361ZM10.6685 18.447L10.0897 19.1809L20.9661 27.7583L21.5449 27.0244L10.6685 18.447ZM24.4075 10.0876H23.473V23.9392H24.4075V10.0876ZM13.8757 27.0244L14.4544 27.7583L25.3308 19.1809L24.7521 18.447L13.8757 27.0244ZM16.1067 22.7357L24.6864 11.8611L24.6778 11.8543L16.1067 22.7357ZM17.7103 14.7476L27.3183 4.76999L17.7103 -4.48222L8.10222 4.76999L17.7103 14.7476ZM17.3739 15.0716L7.39436 24.6776L7.4007 24.6842L17.3739 15.0716ZM18.0467 15.0716L28.0199 24.6842L28.024 24.68L18.0467 15.0716ZM19.8926 23.4696L28.4627 34.3518L28.472 34.3444L19.8926 23.4696ZM14.5959 21.5507L23.3992 10.8564L23.3944 10.8524L14.5959 21.5507ZM14.0016 22.2734L22.8031 11.5776L22.8 11.5751L14.0016 22.2734ZM11.6934 19.6761L-0.460096 26.3215L-0.458425 26.3245L11.6934 19.6761ZM12.5132 19.2276L24.665 12.5792L18.0166 0.427364L5.86484 7.07577L12.5132 19.2276ZM11.9476 17.0134L25.799 17.0922L25.7992 17.0528V17.0134H11.9476ZM13.7381 14.0772L7.97855 1.4798L7.97534 1.48127L13.7381 14.0772ZM18.0467 14.4243L27.65 24.4065L37.6308 14.8046L28.0303 4.8224L18.0467 14.4243ZM13.3493 13.2275L7.59022 0.62984L7.58619 0.631687L13.3493 13.2275ZM15.5279 23.4696L6.95197 34.3471L6.95792 34.3518L15.5279 23.4696ZM16.5372 24.1922L9.54041 36.1468L9.54841 36.1515L9.55641 36.1562L16.5372 24.1922ZM17.0088 23.3855L24.0145 11.4361L23.9989 11.4269L23.9833 11.4178L17.0088 23.3855ZM22.8083 20.9626L12.453 11.7628L12.4491 11.7673L22.8083 20.9626ZM22.1099 20.3421L32.4647 29.5425L32.4722 29.534L22.1099 20.3421ZM19.3139 22.7357L10.7389 11.8573L10.7342 11.8611L19.3139 22.7357ZM22.0713 13.2275L27.8322 0.630702L27.8303 0.629841L22.0713 13.2275ZM17.3739 14.4236L7.39612 4.81572L-2.21165 14.7933L7.7658 24.4012L17.3739 14.4236ZM21.6825 14.0772L27.4452 1.48127L27.442 1.4798L21.6825 14.0772ZM18.4118 23.3855L11.4373 11.4178L11.4258 11.4246L18.4118 23.3855ZM18.8834 24.1922L25.8642 36.1562L25.8708 36.1523L18.8834 24.1922ZM12.5132 19.2282L19.1545 31.3839L31.3807 24.7041L24.6303 12.5167L12.5132 19.2282ZM8.10222 4.76999L7.7658 5.09395L26.9819 25.0492L27.3183 24.7252L8.10222 4.76999ZM7.4007 24.6842C8.73639 26.07 10.3378 27.1723 12.1092 27.9252L22.9458 2.4294C24.6016 3.13317 26.0985 4.16354 27.347 5.45888L7.4007 24.6842ZM12.1092 27.9252C13.8806 28.6781 15.7856 29.0662 17.7103 29.0662V1.36292C19.5094 1.36292 21.29 1.72563 22.9458 2.4294L12.1092 27.9252ZM17.7103 29.0662C19.635 29.0662 21.54 28.6781 23.3114 27.9252L12.4747 2.4294C14.1305 1.72563 15.9112 1.36292 17.7103 1.36292V29.0662ZM23.3114 27.9252C25.0828 27.1723 26.6842 26.07 28.0199 24.6842L8.07353 5.45888C9.32206 4.16354 10.8189 3.13317 12.4747 2.4294L23.3114 27.9252ZM27.6548 5.09395L27.3183 4.76999L8.10222 24.7252L8.43864 25.0492L27.6548 5.09395ZM23.3944 10.8524C20.4612 8.44007 16.6898 7.29178 12.91 7.66011L15.5968 35.2328C12.0639 35.577 8.539 34.5038 5.79746 32.2491L23.3944 10.8524ZM12.91 7.66011C9.13007 8.02844 5.65136 9.88325 3.23907 12.8164L24.6358 30.4134C22.3811 33.1549 19.1297 34.8885 15.5968 35.2328L12.91 7.66011ZM3.23907 12.8164C0.826777 15.7496 -0.321541 19.521 0.0467914 23.3009L27.6194 20.614C27.9637 24.1469 26.8904 27.6718 24.6358 30.4134L3.23907 12.8164ZM0.0467914 23.3009C0.415122 27.0807 2.26991 30.5594 5.20312 32.9717L22.8 11.5751C25.5416 13.8297 27.2752 17.0811 27.6194 20.614L0.0467914 23.3009ZM-0.458425 26.3245C0.444106 27.9742 1.66272 29.4299 3.12784 30.6085L20.493 9.02331C21.8625 10.1251 23.0015 11.4858 23.8452 13.0277L-0.458425 26.3245ZM3.12784 30.6085C4.59296 31.7872 6.27589 32.6658 8.08054 33.1941L15.8635 6.60655C17.5504 7.10035 19.1235 7.92156 20.493 9.02331L3.12784 30.6085ZM8.08054 33.1941C9.88523 33.7223 11.7763 33.89 13.6457 33.6874L10.6616 6.14537C12.409 5.95605 14.1766 6.11274 15.8635 6.60655L8.08054 33.1941ZM13.6457 33.6874C15.5151 33.4849 17.3264 32.9161 18.976 32.0136L5.67918 7.70998C7.22113 6.86636 8.91416 6.3347 10.6616 6.14537L13.6457 33.6874ZM18.976 32.0136C20.6256 31.1111 22.0813 29.8925 23.26 28.4273L1.67477 11.0622C2.77654 9.69266 4.13725 8.55359 5.67918 7.70998L18.976 32.0136ZM23.26 28.4273C24.4387 26.9622 25.3172 25.2793 25.8455 23.4746L-0.741987 15.6916C-0.248188 14.0048 0.57303 12.4317 1.67477 11.0622L23.26 28.4273ZM25.8455 23.4746C26.3738 21.6699 26.5414 19.7789 26.3389 17.9095L-1.20317 20.8935C-1.39249 19.1461 -1.23579 17.3785 -0.741987 15.6916L25.8455 23.4746ZM26.3389 17.9095C26.1364 16.0401 25.5676 14.2288 24.665 12.5792L0.36144 25.876C-0.482193 24.334 -1.01384 22.641 -1.20317 20.8935L26.3389 17.9095ZM5.86484 7.07577L5.04497 7.52433L18.3418 31.8279L19.1616 31.3794L5.86484 7.07577ZM25.7992 17.0134C25.7992 20.8609 23.6035 24.7962 19.5008 26.6732L7.97534 1.48127C1.80546 4.30402 -1.90407 10.487 -1.90407 17.0134H25.7992ZM19.4976 26.6747C17.388 27.6392 14.8979 27.9731 12.4264 27.4199C9.97178 26.8705 8.30992 25.6288 7.39436 24.6776L27.3534 5.46546C22.5119 0.435752 14.9833 -1.72273 7.97855 1.4798L19.4976 26.6747ZM26.9771 25.0538L27.65 24.4065L8.44344 4.44204L7.7706 5.08933L26.9771 25.0538ZM28.0303 4.8224C22.9739 -0.435013 15.0304 -2.77149 7.59022 0.629841L19.1084 25.8251C17.1134 26.7371 14.8177 27.0016 12.6096 26.5036C10.4207 26.01 8.91587 24.9128 8.06313 24.0261L28.0303 4.8224ZM7.58619 0.631687C1.06664 3.61466 -2.83856 10.1418 -2.83856 17.0134H24.8647C24.8647 20.506 22.8733 24.1025 19.1124 25.8233L7.58619 0.631687ZM6.95792 34.3518C7.15936 34.5104 8.23558 35.3832 9.54041 36.1468L23.534 12.2376C23.7317 12.3534 23.8866 12.4535 23.9922 12.5243C24.0983 12.5954 24.1731 12.6494 24.2092 12.6758C24.2451 12.7021 24.258 12.7125 24.2363 12.6957C24.2116 12.6766 24.1763 12.6491 24.0979 12.5873L6.95792 34.3518ZM9.55641 36.1562C10.858 36.9156 13.7614 38.4114 17.7103 38.4114V10.7082C20.7994 10.7082 22.9104 11.8738 23.5179 12.2283L9.55641 36.1562ZM17.7103 9.77368C21.025 9.77368 23.304 11.0195 24.0145 11.4361L10.0031 35.3348C11.2768 36.0816 14.0093 37.4769 17.7103 37.4769V9.77368ZM23.9833 11.4178C24.4132 11.6684 24.6979 11.8757 24.7707 11.9292C24.8157 11.9622 24.8352 11.9776 24.8161 11.9628C24.7954 11.9468 24.7603 11.9194 24.6864 11.8611L7.52696 33.6102C7.72092 33.7632 8.76907 34.6157 10.0343 35.3531L23.9833 11.4178ZM28.472 34.3444C28.5417 34.2894 31.2093 32.364 33.1675 30.1579L12.4491 11.7673C12.6935 11.4919 12.8139 11.4165 12.5875 11.6014C12.4843 11.6858 12.3512 11.7905 12.1322 11.9596C11.9642 12.0894 11.611 12.3599 11.3133 12.5947L28.472 34.3444ZM33.1635 30.1624C35.6149 27.4031 38.2591 22.9992 38.2591 17.0134H10.5559C10.5559 15.8435 10.8151 14.684 11.266 13.6576C11.6917 12.6884 12.1889 12.0601 12.453 11.7628L33.1635 30.1624ZM9.62139 17.0134C9.62139 15.7232 9.90273 14.4378 10.4086 13.2853C10.8862 12.1971 11.4487 11.4872 11.7476 11.1502L32.4722 29.534C34.8129 26.8953 37.3246 22.7057 37.3246 17.0134H9.62139ZM11.7551 11.1418C12.0379 10.8235 12.2046 10.7079 12.0071 10.8689C11.914 10.9447 11.7885 11.0436 11.5657 11.2157C11.3859 11.3546 11.0458 11.6155 10.7389 11.8573L27.8888 33.614C28.0004 33.526 30.5767 31.6673 32.4647 29.5425L11.7551 11.1418ZM38.2591 17.0134C38.2591 10.1447 34.3569 3.61469 27.8322 0.630703L16.3103 25.8243C12.5455 24.1025 10.5559 20.503 10.5559 17.0134H38.2591ZM27.8303 0.629841C20.3881 -2.7724 12.4498 -0.432494 7.39612 4.81572L27.3516 24.0315C26.5017 24.9141 24.9991 26.0103 22.8108 26.5037C20.6022 27.0017 18.3064 26.7368 16.3122 25.8251L27.8303 0.629841ZM7.7658 24.4012L8.43864 25.0492L27.6548 5.09395L26.9819 4.44603L7.7658 24.4012ZM28.024 24.68C27.109 25.63 25.4485 26.8705 22.9958 27.4198C20.5258 27.9729 18.035 27.6403 15.923 26.6747L27.442 1.4798C20.4338 -1.72433 12.9072 0.43971 8.06944 5.46313L28.024 24.68ZM15.9198 26.6732C11.8184 24.7968 9.62139 20.8619 9.62139 17.0134H37.3246C37.3246 10.4849 33.6137 4.3034 27.4452 1.48127L15.9198 26.6732ZM10.7342 11.8611C10.6603 11.9194 10.6252 11.9468 10.6045 11.9628C10.5854 11.9776 10.6049 11.9622 10.6499 11.9292C10.7227 11.8757 11.0074 11.6684 11.4373 11.4178L25.3863 35.3531C26.6515 34.6157 27.6997 33.7632 27.8936 33.6102L10.7342 11.8611ZM11.4258 11.4246C12.1015 11.0299 14.383 9.77368 17.7103 9.77368V37.4769C21.4238 37.4769 24.1588 36.07 25.3978 35.3464L11.4258 11.4246ZM17.7103 38.4114C21.6592 38.4114 24.5626 36.9156 25.8642 36.1562L11.9026 12.2283C12.5102 11.8738 14.6211 10.7082 17.7103 10.7082V38.4114ZM25.8708 36.1523C27.1855 35.3842 28.271 34.5027 28.4627 34.3518L11.3226 12.5873C11.2421 12.6508 11.2068 12.6784 11.1813 12.6981C11.1591 12.7152 11.1725 12.7045 11.2092 12.6776C11.2461 12.6506 11.3224 12.5955 11.4305 12.5231C11.5381 12.4509 11.6953 12.3494 11.896 12.2322L25.8708 36.1523ZM24.6778 11.8543C23.7215 11.1011 23.807 11.192 23.3992 10.8564L5.79263 32.2451C6.40656 32.7505 7.50005 33.589 7.53558 33.617L24.6778 11.8543ZM5.20007 32.9692C5.62611 33.3198 6.0267 33.6316 6.31502 33.8544C6.66529 34.1251 6.79033 34.2196 6.95198 34.3471L24.1039 12.592C23.8033 12.355 23.4237 12.0643 23.2556 11.9344C23.0256 11.7566 22.8941 11.6525 22.8031 11.5776L5.20007 32.9692ZM24.6303 12.5167C25.4056 13.9165 25.8081 15.4921 25.799 17.0922L-1.90384 16.9347C-1.92174 20.0839 -1.12973 23.1848 0.396157 25.9397L24.6303 12.5167ZM-2.83856 17.0134C-2.83856 20.542 -1.90034 23.6875 -0.460095 26.3215L23.8468 13.0308C24.4498 14.1335 24.8647 15.5258 24.8647 17.0134H-2.83856ZM18.3347 31.8318L19.1545 31.3839L5.87195 7.0725L5.05208 7.52044L18.3347 31.8318Z" fill="#FFBFF5" mask="url(#path-3-inside-1_1559_25176)"/>
</svg>
