<svg width="32" height="40" viewBox="0 0 32 40" fill="none" xmlns="http://www.w3.org/2000/svg">
<path d="M25.9137 9.64564V4.41812H20.7635V0H10.5267V4.41812H5.37653V9.64564H0.495605V24.2464C0.495605 24.2464 1.58026 31.4559 8.4484 34.5198C15.079 37.4771 15.6134 39.8342 15.6451 39.9921V40C15.6451 40 15.6451 40 15.6451 39.9961V40V39.9921C15.6728 39.8342 16.2072 37.481 22.8418 34.5198C29.7099 31.4559 30.7946 24.2464 30.7946 24.2464V9.64564H25.9137Z" fill="#6651E6"/>
<path d="M15.6158 39.9708C21.0536 32.829 28.9057 33.6468 28.9708 33.6565L31.0234 30.5418C28.5049 29.9097 20.5486 29.1636 15.6028 34.256C11.3412 29.4145 2.70065 29.9097 0.182129 30.5418L2.23474 33.6565C2.2999 33.6468 10.2008 33.3992 15.5897 39.9708" fill="#FF675D"/>
<path d="M20.791 26.3511L18.6542 24.2326L17.0471 25.8398L16.5357 25.3284C16.2557 25.0484 16.1157 24.7014 16.1157 24.2874C16.1157 23.8735 16.2557 23.5265 16.5357 23.2464L19.6222 20.16C19.9022 19.88 20.2492 19.74 20.6632 19.74C21.0771 19.74 21.4241 19.88 21.7041 20.16L22.2155 20.6714L20.6084 22.2785L22.7269 24.4153C22.873 24.5614 22.946 24.7318 22.946 24.9266C22.946 25.1214 22.873 25.2919 22.7269 25.438L21.8137 26.3511C21.6676 26.4972 21.4972 26.5703 21.3024 26.5703C21.1076 26.5703 20.9371 26.4972 20.791 26.3511ZM22.946 14.882L14.6547 23.1734L14.746 23.2464C15.026 23.5265 15.166 23.8735 15.166 24.2874C15.166 24.7014 15.026 25.0484 14.746 25.3284L14.2346 25.8398L12.6275 24.2326L10.4907 26.3511C10.3446 26.4972 10.1742 26.5703 9.97936 26.5703C9.78455 26.5703 9.6141 26.4972 9.46799 26.3511L8.55485 25.438C8.40874 25.2919 8.33569 25.1214 8.33569 24.9266C8.33569 24.7318 8.40874 24.5614 8.55485 24.4153L10.6733 22.2785L9.06621 20.6714L9.57757 20.16C9.8576 19.88 10.2046 19.74 10.6186 19.74C11.0325 19.74 11.3795 19.88 11.6595 20.16L11.7326 20.2513L20.024 11.96H22.946V14.882ZM11.9517 18.4981L8.33569 14.882V11.96H11.2578L14.8738 15.576L13.8328 16.5987L10.6551 13.421H9.79673V14.2794L12.9745 17.4571L11.9517 18.4981ZM13.6319 22.1324L21.485 14.2794V13.421H20.6266L12.7736 21.274L13.6319 22.1324Z" fill="#250CB9"/>
</svg>
