<svg width="33" height="40" viewBox="0 0 33 40" fill="none" xmlns="http://www.w3.org/2000/svg">
<path d="M32.0124 7.63286C20.5452 5.29181 16.075 0.0423867 16.0392 0C16.0033 0.0423867 11.5331 5.29507 0.0659064 7.63612C0.0659064 7.63612 -1.92953 29.3642 16.0392 38.5262C34.0079 29.3642 32.0124 7.63286 32.0124 7.63286Z" fill="#FB615E"/>
<path d="M16.349 40C21.7908 32.853 29.6486 33.6714 29.7138 33.6811L31.7679 30.5641C29.2475 29.9316 21.2854 29.1849 16.3359 34.2811C12.0712 29.436 3.42428 29.9316 0.9039 30.5641L2.95802 33.6811C3.02323 33.6714 10.93 33.4236 16.3229 40" fill="white"/>
<path d="M21.4709 11.0273L20.0396 19.7851L18.5984 13.4629H16.127H16.1237H13.6555L12.2143 19.7851L10.7797 11.0273H6.27695L9.44617 25.0182H14.2196L16.127 17.4766L18.0311 25.0182H22.8045L25.9737 11.0273H21.4709Z" fill="#6341F0"/>
</svg>
