<svg width="38" height="36" viewBox="0 0 38 36" fill="none" xmlns="http://www.w3.org/2000/svg">
<path d="M25 29.75V26H8.75C6.67893 26 5 27.6789 5 29.75M11 33.5H21C22.4001 33.5 23.1002 33.5 23.635 33.2275C24.1054 32.9878 24.4878 32.6054 24.7275 32.135C25 31.6002 25 30.9001 25 29.5V12.5C25 11.0999 25 10.3998 24.7275 9.86502C24.4878 9.39462 24.1054 9.01217 23.635 8.77248C23.1002 8.5 22.4001 8.5 21 8.5H11C8.8998 8.5 7.8497 8.5 7.04754 8.90873C6.34193 9.26825 5.76825 9.84193 5.40873 10.5475C5 11.3497 5 12.3998 5 14.5V27.5C5 29.6002 5 30.6503 5.40873 31.4525C5.76825 32.1581 6.34193 32.7317 7.04754 33.0913C7.8497 33.5 8.8998 33.5 11 33.5Z" stroke="#AEADB3" stroke-width="2.5" stroke-linecap="round" stroke-linejoin="round"/>
<path fill-rule="evenodd" clip-rule="evenodd" d="M32.4999 0.000244141C31.8924 0.000244141 31.3999 0.513251 31.3999 1.14608V4.58358H28.0999C27.4924 4.58358 26.9999 5.09658 26.9999 5.72941C26.9999 6.36224 27.4924 6.87524 28.0999 6.87524H31.3999V10.3127C31.3999 10.9456 31.8924 11.4586 32.4999 11.4586C33.1074 11.4586 33.5999 10.9456 33.5999 10.3127V6.87524H36.8999C37.5074 6.87524 37.9999 6.36224 37.9999 5.72941C37.9999 5.09658 37.5074 4.58358 36.8999 4.58358H33.5999V1.14608C33.5999 0.513251 33.1074 0.000244141 32.4999 0.000244141Z" fill="#AEADB3"/>
</svg>
