<svg width="33" height="40" viewBox="0 0 33 40" fill="none" xmlns="http://www.w3.org/2000/svg">
<path d="M29.2972 17.3547C26.5488 11.1644 28.3077 5.96883 28.3077 5.96883C20.967 4.97791 16.4675 0.0388596 16.4327 0C16.4017 0.0388596 11.8984 4.97791 4.55768 5.96883C4.55768 5.96883 6.31651 11.1644 3.5681 17.3547C3.5681 17.3547 -0.146704 23.0204 3.01919 27.3027C8.72475 35.0241 16.3979 36.2521 16.4327 36.256C16.4675 36.2521 24.1406 35.0241 29.8461 27.3027C33.012 23.0204 29.2972 17.3547 29.2972 17.3547Z" fill="#C50B43"/>
<path d="M16.4516 40C21.9667 32.7566 29.9305 33.586 29.9965 33.5959L32.0783 30.4369C29.524 29.7958 21.4545 29.0391 16.4383 34.204C12.1161 29.2935 3.35269 29.7958 0.79834 30.4369L2.88015 33.5959C2.94623 33.586 10.9595 33.3349 16.4251 40" fill="#FF675D"/>
<path fill-rule="evenodd" clip-rule="evenodd" d="M19.4646 20.1441C19.4847 20.1509 19.5083 20.1543 19.5353 20.1543H19.5514C20.2353 20.1543 20.9086 20.0474 21.5712 19.8337C22.2338 19.6093 22.8323 19.2994 23.3666 18.9039C23.9116 18.5085 24.3445 18.0436 24.6651 17.5093C24.9857 16.9749 25.146 16.3872 25.146 15.7459C25.146 15.1475 25.0071 14.6559 24.7292 14.2711C24.4513 13.8864 24.088 13.5818 23.6391 13.3574C23.1903 13.1223 22.6933 12.9459 22.1483 12.8284C21.6033 12.7108 21.0582 12.636 20.5132 12.604C19.9788 12.5612 19.4872 12.5345 19.0384 12.5238C18.0872 12.5024 17.1414 12.5612 16.201 12.7001C15.2605 12.8284 14.3789 13.0261 13.556 13.2933C12.7437 13.5498 12.0437 13.8704 11.456 14.2551C10.8682 14.6398 10.4621 15.0727 10.2376 15.5536C10.1522 15.7246 10.1094 15.8742 10.1094 16.0024C10.1094 16.1948 10.2216 16.291 10.446 16.291C10.5957 16.291 10.7667 16.2482 10.959 16.1627C11.1621 16.0665 11.3277 15.9543 11.456 15.8261C11.7873 15.4948 12.2254 15.1956 12.7705 14.9284C13.3155 14.6612 13.9247 14.4368 14.5979 14.2551C15.2712 14.0627 15.9766 13.9185 16.714 13.8223C17.4514 13.7261 18.1781 13.678 18.8941 13.678C19.0734 13.678 19.2485 13.6814 19.4195 13.6883L19.3057 13.859C19.2822 13.8724 19.2625 13.8922 19.2468 13.9185C19.0972 14.1536 18.8941 14.4368 18.6376 14.7681C18.3918 15.0994 18.1246 15.452 17.8361 15.8261C17.5582 16.2001 17.2857 16.5581 17.0185 16.9001C16.7621 17.2421 16.5376 17.536 16.3453 17.7818C15.9285 18.3268 15.4476 18.8986 14.9025 19.4971C14.3575 20.0955 13.7697 20.6619 13.1392 21.1963C12.5193 21.72 11.8834 22.1474 11.2315 22.4787C10.5796 22.81 9.93841 22.9757 9.30788 22.9757C8.27124 22.9757 7.52315 22.7887 7.06361 22.4146C6.61476 22.0406 6.39033 21.5971 6.39033 21.0841C6.39033 20.7314 6.48651 20.3734 6.67888 20.01C6.88193 19.636 7.15979 19.294 7.51247 18.9841C7.86514 18.6742 8.28193 18.423 8.76284 18.2307C9.25444 18.0383 9.78879 17.9421 10.3659 17.9421C10.8468 17.9421 11.3117 18.0169 11.7605 18.1665C12.2094 18.3055 12.5888 18.4711 12.8987 18.6635C13.2086 18.8452 13.3796 19.0055 13.4117 19.1444C13.4544 19.3474 13.556 19.449 13.7163 19.449C13.8445 19.449 13.9674 19.3795 14.085 19.2406C14.2025 19.1016 14.256 18.9307 14.2453 18.7276C14.2239 18.3856 14.0689 18.0971 13.7804 17.862C13.5025 17.6268 13.1605 17.4398 12.7544 17.3009C12.3483 17.1513 11.9422 17.0444 11.5361 16.9803C11.1407 16.9162 10.8147 16.8841 10.5583 16.8841C9.69261 16.8841 8.91246 17.0177 8.21781 17.2849C7.53384 17.5413 6.94071 17.8887 6.43842 18.3268C5.94682 18.7543 5.56743 19.2245 5.30026 19.7375C5.04377 20.2505 4.91553 20.7635 4.91553 21.2764C4.91553 21.7787 5.0598 22.249 5.34835 22.6871C5.6369 23.1253 6.08575 23.478 6.69491 23.7451C7.31476 24.0123 8.10559 24.1459 9.06742 24.1459C10.1896 24.1459 11.2155 23.9375 12.1453 23.5207C13.0857 23.1039 13.9514 22.5482 14.7422 21.8535C15.3629 21.3 15.9473 20.7004 16.4955 20.0547L16.7916 20.0399C16.8012 20.3745 16.8314 20.7645 16.8529 20.9989C16.8458 21.0187 16.8422 21.0417 16.8422 21.0681V21.1001C16.8529 21.1001 16.8582 21.1055 16.8582 21.1161C16.9972 21.5543 17.1949 22.0032 17.4514 22.4627C17.7079 22.9222 18.0285 23.3497 18.4132 23.7451C18.8086 24.1406 19.2735 24.4558 19.8078 24.6909C20.3529 24.9367 20.9674 25.0596 21.6514 25.0596C22.2712 25.0596 22.8216 24.9635 23.3025 24.7711C23.7834 24.5787 24.2323 24.3169 24.649 23.9856C25.0765 23.665 25.4933 23.3123 25.8994 22.9276C25.932 22.9004 25.9508 22.8718 25.9558 22.8419C26.7573 22.1236 26.9728 21.5642 27.0625 21.3312C27.0772 21.2931 27.0885 21.2638 27.0985 21.2438C27.1721 21.0966 27.2458 20.7283 26.9512 20.4338C26.7469 20.2295 26.5648 20.2687 26.4719 20.3307C26.4206 20.3322 26.3794 20.3589 26.3483 20.4108C26.1345 20.71 25.846 21.0467 25.4826 21.4207C25.13 21.7948 24.7399 22.1581 24.3124 22.5108C23.8956 22.8528 23.4788 23.136 23.062 23.3604C22.6452 23.5848 22.2712 23.6971 21.9399 23.6971C21.5231 23.6971 21.133 23.5955 20.7697 23.3925C20.4063 23.1894 20.0804 22.9276 19.7918 22.607C19.514 22.2757 19.2895 21.9177 19.1185 21.5329C18.9475 21.1482 18.8353 20.7688 18.7819 20.3948C18.7807 20.3844 18.7791 20.3745 18.7769 20.3652V20.2128L19.4646 20.1441ZM24.2902 22.9426L24.3001 22.9376L24.3087 22.9283C24.3025 22.9331 24.2964 22.9378 24.2902 22.9426ZM21.2025 13.9185C21.0944 13.8927 20.9837 13.869 20.8706 13.8474L20.5439 14.1742L20.5292 14.1918C20.53 14.2222 20.5193 14.2539 20.4972 14.2872C19.9628 15.0994 19.4017 15.9597 18.814 16.8681C18.3102 17.6516 17.7698 18.423 17.1928 19.1822H17.6917C17.7165 19.1677 17.7486 19.1604 17.788 19.1604C18.4933 19.1284 19.1773 19.0322 19.8399 18.8719C20.5132 18.7116 21.117 18.4925 21.6514 18.2146C22.1964 17.9368 22.6239 17.6055 22.9338 17.2207C23.2544 16.8253 23.4147 16.3872 23.4147 15.9062C23.4147 15.3826 23.217 14.9604 22.8216 14.6398C22.4262 14.3085 21.8865 14.0681 21.2025 13.9185Z" fill="#CFA68F"/>
</svg>
