<svg width="25" height="25" viewBox="0 0 25 25" fill="none" xmlns="http://www.w3.org/2000/svg">
<path fill-rule="evenodd" clip-rule="evenodd" d="M12.5 20.7812C17.0736 20.7812 20.7812 17.0736 20.7812 12.5C20.7812 7.92639 17.0736 4.21875 12.5 4.21875C7.92639 4.21875 4.21875 7.92639 4.21875 12.5C4.21875 17.0736 7.92639 20.7812 12.5 20.7812ZM12.5 22.6562C18.1091 22.6562 22.6562 18.1091 22.6562 12.5C22.6562 6.89086 18.1091 2.34375 12.5 2.34375C6.89086 2.34375 2.34375 6.89086 2.34375 12.5C2.34375 18.1091 6.89086 22.6562 12.5 22.6562Z" fill="#C7C7D0"/>
<path fill-rule="evenodd" clip-rule="evenodd" d="M7.53516 12.5C7.53516 11.9822 7.95489 11.5625 8.47266 11.5625H16.5262C17.044 11.5625 17.4637 11.9822 17.4637 12.5C17.4637 13.0178 17.044 13.4375 16.5262 13.4375H8.47266C7.95489 13.4375 7.53516 13.0178 7.53516 12.5Z" fill="#C7C7D0"/>
</svg>
