<svg width="40" height="40" viewBox="0 0 40 40" fill="none" xmlns="http://www.w3.org/2000/svg">
<path d="M29.3874 0H10.098C10.098 0 11.4397 3.94965 6.17114 5.48907V25.1036C6.17114 25.1036 9.09267 34.9839 19.7407 36.2055C30.3886 34.9839 33.3102 25.1036 33.3102 25.1036V5.48907C28.0457 3.94965 29.3874 0 29.3874 0Z" fill="#B8896E"/>
<path d="M19.7594 40.0001C25.312 32.7076 33.3298 33.5426 33.3963 33.5526L35.4922 30.3721C32.9206 29.7267 24.7963 28.9648 19.7461 34.1647C15.3946 29.221 6.57168 29.7267 4 30.3721L6.09593 33.5526C6.16247 33.5426 14.2301 33.2898 19.7328 40.0001" fill="#FF675D"/>
<path d="M11.4193 13.0129L11.0686 12.1948C11.5638 12.2357 12.8223 12.338 13.6475 12.338H20.1669C20.0844 11.4177 20.0225 10.436 19.9606 9.37244C19.8987 8.61572 19.8781 7.61356 19.8368 7C22.23 7.22497 23.1172 7.40904 23.1172 7.75673C23.1172 7.89989 23.0759 8.00215 22.9934 8.10441C23.0759 8.10441 23.1791 8.10441 23.2822 8.12487C24.9327 8.32939 25.9024 9.33154 25.9024 10.3541C25.9024 10.5996 25.8405 10.845 25.7373 11.0495C25.7992 10.9882 25.8405 10.9268 25.8817 10.9268C26.0468 10.9268 26.2737 11.1313 27.3465 12.0517C27.5735 12.1744 27.8623 12.5016 27.8623 12.6652C27.8623 12.8288 27.7385 12.8902 27.4909 12.8902H22.5601C22.9108 17.1238 23.7774 19.8439 25.2009 21.8687C25.4691 22.2368 25.8611 22.9526 26.2531 22.9526C26.3975 22.9526 26.5832 22.8095 26.707 22.4209C26.9133 21.93 27.1608 20.9688 27.3465 20.2325C27.5322 19.7008 27.8004 19.4962 27.8004 20.0689C27.8004 20.1507 27.8004 20.2734 27.7798 20.3552C27.7179 21.2756 27.5322 22.789 27.5322 23.3208C27.5322 23.8321 27.7798 24.4661 27.7798 24.916C27.7798 25.591 27.264 25.7955 26.6244 25.7955C25.696 25.7955 23.963 24.4661 23.2822 23.423C22.3538 22.0936 21.6524 20.4984 21.1366 18.3918C21.0541 18.4532 20.9303 18.4941 20.8477 18.4941H18.1451V22.2777C19.2798 22.1141 20.3113 21.9709 21.0128 21.8482C21.1366 21.8278 21.2397 21.8278 21.281 21.8278C21.4667 21.8278 21.5492 21.8891 21.5492 21.9709C21.5492 22.0527 21.446 22.1755 21.1985 22.3186C19.1147 23.3821 15.3805 24.5888 12.5953 25.2024C12.5128 25.6319 12.2652 26 12.0795 26C11.8732 26 11.5638 25.9182 10.8623 22.8504C11.3781 22.8299 11.9764 22.8299 12.6159 22.789V17.6351C12.6159 16.3671 12.5128 15.4058 12.4509 15.099C14.2871 15.2217 15.6487 15.3649 15.6487 15.6921C15.6487 15.9989 15.3805 16.2034 14.9473 16.4284V22.6254L15.8344 22.5436V16.0194C15.8344 14.7309 15.7519 13.7901 15.69 13.5038C17.4849 13.6265 18.8672 13.7492 18.8672 14.0969C18.8672 14.3628 18.599 14.6082 18.1451 14.8332V17.901H18.4752C19.156 16.9193 19.3417 16.6329 19.4861 16.6329C19.6099 16.6329 20.0431 16.9397 20.5589 17.5124L21.0128 17.9419C20.6827 16.5102 20.4145 14.8536 20.2082 12.8902H13.7094C12.9873 12.8902 11.9558 12.9311 11.4193 13.0129ZM22.3538 8.51346C22.3744 9.9042 22.4157 11.1927 22.5189 12.338H24.7676C25.0565 11.929 25.2834 11.5813 25.4691 11.3563C25.3453 11.4586 25.139 11.4995 24.974 11.4995C24.6645 11.4995 24.0868 11.2131 23.963 10.62C23.8186 9.84284 23.5917 9.12702 22.9315 8.55436C22.8283 8.4521 22.7458 8.37029 22.7252 8.30893C22.6426 8.37029 22.5189 8.4521 22.3538 8.51346ZM12.4096 9.92465L12.0795 9.10657C12.5953 9.14747 13.1936 9.22928 14.0601 9.22928H17.0516C17.8356 8.24758 17.9594 7.96125 18.1038 7.96125C18.3514 7.96125 18.9291 8.65662 19.4448 9.14747C19.6099 9.31109 19.7543 9.47471 19.7543 9.61787C19.7543 9.74058 19.6099 9.80194 19.3829 9.80194H14.122C13.3999 9.80194 12.946 9.82239 12.4096 9.92465Z" fill="#180A3F"/>
</svg>
