<svg width="32" height="40" viewBox="0 0 32 40" fill="none" xmlns="http://www.w3.org/2000/svg">
<path d="M25.8822 0H6.59269C6.59269 0 7.93446 3.94965 2.66586 5.48907V25.1036C2.66586 25.1036 5.58739 34.9839 16.2354 36.2055C26.8834 34.9839 29.8049 25.1036 29.8049 25.1036V5.48907C24.5404 3.94965 25.8822 0 25.8822 0Z" fill="#B8896E"/>
<path d="M16.2542 40.0001C21.8067 32.7076 29.8245 33.5426 29.8911 33.5526L31.987 30.3721C29.4153 29.7267 21.2911 28.9648 16.2409 34.1647C11.8893 29.221 3.06643 29.7267 0.494751 30.3721L2.59068 33.5526C2.65722 33.5426 10.7249 33.2898 16.2276 40.0001" fill="#FF675D"/>
<path d="M7.91409 13.0129L7.56337 12.1948C8.05851 12.2357 9.31701 12.338 10.1423 12.338H16.6617C16.5791 11.4177 16.5173 10.436 16.4554 9.37244C16.3935 8.61572 16.3728 7.61356 16.3316 7C18.7248 7.22497 19.6119 7.40904 19.6119 7.75673C19.6119 7.89989 19.5706 8.00215 19.4881 8.10441C19.5706 8.10441 19.6738 8.10441 19.777 8.12487C21.4274 8.32939 22.3971 9.33154 22.3971 10.3541C22.3971 10.5996 22.3352 10.845 22.2321 11.0495C22.2939 10.9882 22.3352 10.9268 22.3765 10.9268C22.5415 10.9268 22.7685 11.1313 23.8413 12.0517C24.0682 12.1744 24.3571 12.5016 24.3571 12.6652C24.3571 12.8288 24.2333 12.8902 23.9857 12.8902H19.0549C19.4056 17.1238 20.2721 19.8439 21.6956 21.8687C21.9639 22.2368 22.3558 22.9526 22.7478 22.9526C22.8923 22.9526 23.0779 22.8095 23.2017 22.4209C23.408 21.93 23.6556 20.9688 23.8413 20.2325C24.027 19.7008 24.2952 19.4962 24.2952 20.0689C24.2952 20.1507 24.2952 20.2734 24.2745 20.3552C24.2126 21.2756 24.027 22.789 24.027 23.3208C24.027 23.8321 24.2745 24.4661 24.2745 24.916C24.2745 25.591 23.7588 25.7955 23.1192 25.7955C22.1908 25.7955 20.4578 24.4661 19.777 23.423C18.8486 22.0936 18.1471 20.4984 17.6313 18.3918C17.5488 18.4532 17.425 18.4941 17.3425 18.4941H14.6398V22.2777C15.7745 22.1141 16.8061 21.9709 17.5075 21.8482C17.6313 21.8278 17.7345 21.8278 17.7757 21.8278C17.9614 21.8278 18.044 21.8891 18.044 21.9709C18.044 22.0527 17.9408 22.1755 17.6932 22.3186C15.6095 23.3821 11.8753 24.5888 9.09007 25.2024C9.00754 25.6319 8.75997 26 8.57429 26C8.36798 26 8.05851 25.9182 7.35706 22.8504C7.87283 22.8299 8.47113 22.8299 9.1107 22.789V17.6351C9.1107 16.3671 9.00754 15.4058 8.94565 15.099C10.7818 15.2217 12.1435 15.3649 12.1435 15.6921C12.1435 15.9989 11.8753 16.2034 11.442 16.4284V22.6254L12.3291 22.5436V16.0194C12.3291 14.7309 12.2466 13.7901 12.1847 13.5038C13.9796 13.6265 15.3619 13.7492 15.3619 14.0969C15.3619 14.3628 15.0937 14.6082 14.6398 14.8332V17.901H14.9699C15.6507 16.9193 15.8364 16.6329 15.9808 16.6329C16.1046 16.6329 16.5379 16.9397 17.0537 17.5124L17.5075 17.9419C17.1774 16.5102 16.9092 14.8536 16.7029 12.8902H10.2041C9.48206 12.8902 8.4505 12.9311 7.91409 13.0129ZM18.8486 8.51346C18.8692 9.9042 18.9105 11.1927 19.0136 12.338H21.2624C21.5512 11.929 21.7782 11.5813 21.9639 11.3563C21.8401 11.4586 21.6338 11.4995 21.4687 11.4995C21.1592 11.4995 20.5816 11.2131 20.4578 10.62C20.3134 9.84284 20.0864 9.12702 19.4262 8.55436C19.3231 8.4521 19.2406 8.37029 19.2199 8.30893C19.1374 8.37029 19.0136 8.4521 18.8486 8.51346ZM8.90439 9.92465L8.57429 9.10657C9.09007 9.14747 9.68837 9.22928 10.5549 9.22928H13.5464C14.3304 8.24758 14.4541 7.96125 14.5986 7.96125C14.8461 7.96125 15.4238 8.65662 15.9396 9.14747C16.1046 9.31109 16.249 9.47471 16.249 9.61787C16.249 9.74058 16.1046 9.80194 15.8777 9.80194H10.6168C9.89468 9.80194 9.44079 9.82239 8.90439 9.92465Z" fill="#180A3F"/>
</svg>
