<svg width="25" height="25" viewBox="0 0 25 25" fill="none" xmlns="http://www.w3.org/2000/svg">
<path fill-rule="evenodd" clip-rule="evenodd" d="M12.7758 3.30211C12.5325 3.07238 12.2101 3.07004 12.0078 3.21849C10.3999 4.39858 8.37718 6.115 6.76729 7.99715C5.12313 9.91937 4.0625 11.8387 4.0625 13.4469C4.0625 18.3978 7.54902 21.8844 12.5 21.8844C14.9584 21.8844 17.0805 20.831 18.5958 19.4048C20.139 17.9523 20.9375 16.2294 20.9375 15.0094C20.9375 12.3543 20.0236 10.4944 18.5675 8.77505C17.8257 7.89918 16.9439 7.06136 15.9533 6.16908C15.6479 5.89396 15.3302 5.61198 15.004 5.32253C14.2881 4.68717 13.5316 4.01582 12.7758 3.30211ZM10.8984 1.70691C11.897 0.973977 13.2233 1.14586 14.0631 1.93886C14.7979 2.63268 15.5165 3.27037 16.2213 3.89585C16.5533 4.19039 16.8821 4.48222 17.2082 4.77593C18.212 5.68007 19.1714 6.5869 19.9983 7.5633C21.6795 9.5485 22.8125 11.8237 22.8125 15.0094C22.8125 16.9143 21.6578 19.0977 19.8808 20.7702C18.0758 22.469 15.5103 23.7594 12.5 23.7594C6.51348 23.7594 2.1875 19.4334 2.1875 13.4469C2.1875 11.1274 3.64533 8.7625 5.34242 6.7784C7.07378 4.75423 9.21511 2.94235 10.8984 1.70691Z" fill="#C7C7D0"/>
<path fill-rule="evenodd" clip-rule="evenodd" d="M12.7823 12.1773C12.529 11.9723 12.2445 11.9853 12.0782 12.101C11.3019 12.6415 10.431 13.3434 9.76533 14.0788C9.06273 14.8551 8.75 15.4929 8.75 15.9208C8.75 17.7328 10.1765 19.15 12.5 19.15C13.6254 19.15 14.5886 18.7212 15.2676 18.1532C15.9854 17.5526 16.25 16.9233 16.25 16.6153C16.25 15.6768 15.9203 15.0079 15.3386 14.3581C14.8573 13.8205 14.2542 13.3443 13.5218 12.7661C13.2885 12.582 13.0421 12.3874 12.7823 12.1773ZM11.007 10.5622C11.9564 9.90122 13.1581 10.0694 13.9617 10.7196C14.1683 10.8868 14.3804 11.054 14.5939 11.2222C15.3564 11.8231 16.1355 12.4371 16.7356 13.1075C17.5568 14.0248 18.125 15.1222 18.125 16.6153C18.125 17.6961 17.413 18.8029 16.4707 19.5913C15.4895 20.4121 14.109 21.025 12.5 21.025C9.35472 21.025 6.875 18.9699 6.875 15.9208C6.875 14.7507 7.61761 13.6576 8.37521 12.8206C9.16973 11.9428 10.1639 11.1491 11.007 10.5622Z" fill="#C7C7D0"/>
</svg>
