<svg width="19" height="19" viewBox="0 0 19 19" fill="none" xmlns="http://www.w3.org/2000/svg">
<path d="M14.5 13.875V12H6.375C5.33947 12 4.5 12.8395 4.5 13.875M7.5 15.75H12.5C13.2001 15.75 13.5501 15.75 13.8175 15.6138C14.0527 15.4939 14.2439 15.3027 14.3638 15.0675C14.5 14.8001 14.5 14.4501 14.5 13.75V5.25C14.5 4.54993 14.5 4.1999 14.3638 3.93251C14.2439 3.69731 14.0527 3.50608 13.8175 3.38624C13.5501 3.25 13.2001 3.25 12.5 3.25H7.5C6.4499 3.25 5.92485 3.25 5.52377 3.45436C5.17096 3.63413 4.88413 3.92096 4.70436 4.27377C4.5 4.67485 4.5 5.1999 4.5 6.25V12.75C4.5 13.8001 4.5 14.3251 4.70436 14.7262C4.88413 15.079 5.17096 15.3659 5.52377 15.5456C5.92485 15.75 6.4499 15.75 7.5 15.75Z" stroke="#52515F" stroke-width="1.2" stroke-linecap="round" stroke-linejoin="round"/>
</svg>
