<svg width="20" height="20" viewBox="0 0 20 20" fill="none" xmlns="http://www.w3.org/2000/svg">
<path d="M12.1859 12C11.6751 12 11.2695 11.8341 10.969 11.5023C10.6685 11.1705 10.5183 10.7419 10.5183 10.2166C10.5183 9.24885 10.8188 8.30876 11.4197 7.39631C12.0507 6.45622 12.8469 5.6129 13.8085 4.86636C14.8 4.09217 15.8216 3.48387 16.8732 3.04148C16.9333 3.01383 17.0085 3 17.0986 3C17.369 3 17.6094 3.09677 17.8197 3.29032C18.0601 3.45622 18.0601 3.58065 17.8197 3.6636C16.9784 4.02304 16.2272 4.53456 15.5662 5.19816C14.9052 5.86175 14.4094 6.51152 14.0789 7.14747C14.9803 7.23042 15.431 7.75576 15.431 8.7235C15.431 9.2765 15.2657 9.80184 14.9352 10.2995C14.6047 10.7972 14.184 11.212 13.6732 11.5438C13.1925 11.8479 12.6967 12 12.1859 12ZM3.66761 12C3.15681 12 2.75117 11.8341 2.4507 11.5023C2.15023 11.1705 2 10.7419 2 10.2166C2 9.24885 2.30047 8.30876 2.90141 7.39631C3.53239 6.45622 4.32864 5.6129 5.29014 4.86636C6.28169 4.09217 7.30329 3.48387 8.35493 3.04148C8.41502 3.01383 8.49014 3 8.58028 3C8.8507 3 9.09108 3.09677 9.30141 3.29032C9.54178 3.45622 9.54178 3.58065 9.30141 3.6636C8.46009 4.02304 7.70892 4.53456 7.04789 5.19816C6.38685 5.86175 5.89108 6.51152 5.56056 7.14747C6.46197 7.23042 6.91268 7.75576 6.91268 8.7235C6.91268 9.2765 6.74742 9.80184 6.4169 10.2995C6.08639 10.7972 5.66573 11.212 5.15493 11.5438C4.67418 11.8479 4.1784 12 3.66761 12Z" fill="#C7C7D0"/>
</svg>
