<svg width="40" height="40" viewBox="0 0 40 40" fill="none" xmlns="http://www.w3.org/2000/svg">
<path d="M34.4597 10.6032C34.4597 10.6032 30.6112 11.7377 27.3789 8.71951C24.662 6.18397 25.6133 2.53553 25.6133 2.53553L19.9415 0L14.2697 2.53553C14.2697 2.53553 15.2174 6.18397 12.5041 8.71951C9.2718 11.7377 5.42335 10.6032 5.42335 10.6032L4 11.9393C4 11.9393 4.09009 21.1955 9.07721 28.2258C14.0499 35.2382 19.9163 39.0775 19.9451 39.0955C19.9775 39.0739 25.8403 35.2346 30.813 28.2222C35.8001 21.1919 35.8902 11.9357 35.8902 11.9357L34.4669 10.5996L34.4597 10.6032Z" fill="#367AFF"/>
<mask id="path-2-inside-1_5263_5224" fill="white">
<path d="M19.9264 14.6634L19.5888 14.9885C19.6325 15.0338 19.685 15.0699 19.743 15.0946C19.801 15.1192 19.8633 15.1319 19.9264 15.1319C19.9894 15.1319 20.0517 15.1192 20.1097 15.0946C20.1677 15.0699 20.2202 15.0338 20.2639 14.9885L19.9264 14.6634ZM16.8016 21.4893C16.7054 21.4102 16.5818 21.3725 16.4579 21.3846C16.334 21.3967 16.22 21.4575 16.1409 21.5536C16.0618 21.6498 16.0242 21.7734 16.0362 21.8973C16.0483 22.0212 16.1091 22.1353 16.2053 22.2143L16.8016 21.4893ZM13.8894 19.6084C13.9189 19.6624 13.9588 19.7101 14.0068 19.7487C14.0548 19.7873 14.1099 19.816 14.169 19.8333C14.228 19.8506 14.29 19.8561 14.3512 19.8495C14.4124 19.8428 14.4717 19.8242 14.5257 19.7947C14.5797 19.7651 14.6274 19.7252 14.666 19.6772C14.7046 19.6293 14.7333 19.5742 14.7506 19.5151C14.7679 19.456 14.7734 19.3941 14.7668 19.3329C14.7601 19.2717 14.7415 19.2124 14.712 19.1583L13.8894 19.6084ZM14.1444 16.9368C14.1444 15.5929 14.9039 14.4653 15.9409 13.9908C16.9485 13.5302 18.3024 13.6521 19.5888 14.9885L20.2639 14.339C18.7387 12.7532 16.966 12.4913 15.5508 13.1382C14.1669 13.7714 13.2068 15.2416 13.2068 16.9368H14.1444ZM17.7367 23.4145C18.0574 23.667 18.4012 23.9358 18.7493 24.1396C19.0975 24.3427 19.495 24.5084 19.9264 24.5084V23.5708C19.7326 23.5708 19.505 23.4957 19.2225 23.3301C18.9394 23.1651 18.6462 22.9376 18.3174 22.6781L17.7367 23.4145ZM22.116 23.4145C23.0073 22.7113 24.1475 21.9062 25.0413 20.8992C25.9521 19.8741 26.6459 18.6033 26.6459 16.9368H25.7083C25.7083 18.3107 25.1457 19.369 24.3406 20.2766C23.5187 21.2017 22.4829 21.9312 21.5353 22.6781L22.116 23.4145ZM26.6459 16.9368C26.6459 15.2416 25.6864 13.7714 24.3019 13.1382C22.8867 12.4913 21.1152 12.7532 19.5888 14.3384L20.2639 14.9885C21.5503 13.6527 22.9042 13.5302 23.9118 13.9908C24.9488 14.4653 25.7083 15.5923 25.7083 16.9368H26.6459ZM21.5353 22.6781C21.2065 22.9376 20.9133 23.1651 20.6302 23.3301C20.3477 23.4951 20.1201 23.5708 19.9264 23.5708V24.5084C20.3577 24.5084 20.7552 24.3427 21.1034 24.1396C21.4522 23.9358 21.7953 23.667 22.116 23.4145L21.5353 22.6781ZM18.3174 22.6781C17.8198 22.2862 17.3142 21.9112 16.8016 21.4893L16.2053 22.2143C16.7241 22.6413 17.2729 23.0488 17.7367 23.4145L18.3174 22.6781ZM14.712 19.1583C14.3354 18.4785 14.14 17.7139 14.1444 16.9368H13.2068C13.2068 17.9607 13.4693 18.8402 13.8894 19.6084L14.712 19.1583Z"/>
</mask>
<path d="M19.9264 14.6634L19.5888 14.9885C19.6325 15.0338 19.685 15.0699 19.743 15.0946C19.801 15.1192 19.8633 15.1319 19.9264 15.1319C19.9894 15.1319 20.0517 15.1192 20.1097 15.0946C20.1677 15.0699 20.2202 15.0338 20.2639 14.9885L19.9264 14.6634ZM16.8016 21.4893C16.7054 21.4102 16.5818 21.3725 16.4579 21.3846C16.334 21.3967 16.22 21.4575 16.1409 21.5536C16.0618 21.6498 16.0242 21.7734 16.0362 21.8973C16.0483 22.0212 16.1091 22.1353 16.2053 22.2143L16.8016 21.4893ZM13.8894 19.6084C13.9189 19.6624 13.9588 19.7101 14.0068 19.7487C14.0548 19.7873 14.1099 19.816 14.169 19.8333C14.228 19.8506 14.29 19.8561 14.3512 19.8495C14.4124 19.8428 14.4717 19.8242 14.5257 19.7947C14.5797 19.7651 14.6274 19.7252 14.666 19.6772C14.7046 19.6293 14.7333 19.5742 14.7506 19.5151C14.7679 19.456 14.7734 19.3941 14.7668 19.3329C14.7601 19.2717 14.7415 19.2124 14.712 19.1583L13.8894 19.6084ZM14.1444 16.9368C14.1444 15.5929 14.9039 14.4653 15.9409 13.9908C16.9485 13.5302 18.3024 13.6521 19.5888 14.9885L20.2639 14.339C18.7387 12.7532 16.966 12.4913 15.5508 13.1382C14.1669 13.7714 13.2068 15.2416 13.2068 16.9368H14.1444ZM17.7367 23.4145C18.0574 23.667 18.4012 23.9358 18.7493 24.1396C19.0975 24.3427 19.495 24.5084 19.9264 24.5084V23.5708C19.7326 23.5708 19.505 23.4957 19.2225 23.3301C18.9394 23.1651 18.6462 22.9376 18.3174 22.6781L17.7367 23.4145ZM22.116 23.4145C23.0073 22.7113 24.1475 21.9062 25.0413 20.8992C25.9521 19.8741 26.6459 18.6033 26.6459 16.9368H25.7083C25.7083 18.3107 25.1457 19.369 24.3406 20.2766C23.5187 21.2017 22.4829 21.9312 21.5353 22.6781L22.116 23.4145ZM26.6459 16.9368C26.6459 15.2416 25.6864 13.7714 24.3019 13.1382C22.8867 12.4913 21.1152 12.7532 19.5888 14.3384L20.2639 14.9885C21.5503 13.6527 22.9042 13.5302 23.9118 13.9908C24.9488 14.4653 25.7083 15.5923 25.7083 16.9368H26.6459ZM21.5353 22.6781C21.2065 22.9376 20.9133 23.1651 20.6302 23.3301C20.3477 23.4951 20.1201 23.5708 19.9264 23.5708V24.5084C20.3577 24.5084 20.7552 24.3427 21.1034 24.1396C21.4522 23.9358 21.7953 23.667 22.116 23.4145L21.5353 22.6781ZM18.3174 22.6781C17.8198 22.2862 17.3142 21.9112 16.8016 21.4893L16.2053 22.2143C16.7241 22.6413 17.2729 23.0488 17.7367 23.4145L18.3174 22.6781ZM14.712 19.1583C14.3354 18.4785 14.14 17.7139 14.1444 16.9368H13.2068C13.2068 17.9607 13.4693 18.8402 13.8894 19.6084L14.712 19.1583Z" fill="#CCDDFF"/>
<path d="M18.3174 22.6781L59.9106 55.4796L-23.2659 -10.1358L18.3174 22.6781ZM22.116 23.4145L-19.4772 56.2159L63.7191 -9.37447L22.116 23.4145ZM59.6107 55.8597L59.9007 55.4921L-23.2659 -10.1358L-23.556 -9.76828L59.6107 55.8597ZM-19.7777 55.8346L-19.4871 56.2034L63.7191 -9.37447L63.4284 -9.74326L-19.7777 55.8346ZM57.1176 55.8612L57.7139 55.1361L-24.1108 -12.1576L-24.7071 -11.4325L57.1176 55.8612ZM-10.7127 -27.3123L-11.5353 -26.8622L39.314 66.079L40.1366 65.629L-10.7127 -27.3123ZM13.2068 69.9079H14.1444V-36.0342H13.2068V69.9079ZM72.8974 24.5084V23.5708H-33.0447V24.5084H72.8974ZM-23.2758 -10.1233L-23.8565 -9.38694L59.3299 56.2159L59.9106 55.4796L-23.2758 -10.1233ZM26.6459 -36.0342H25.7083V69.9079H26.6459V-36.0342ZM-20.0579 55.4796L-19.4772 56.2159L63.7092 -9.38698L63.1285 -10.1233L-20.0579 55.4796ZM18.3174 22.6781L83.9382 -60.4942L83.9052 -60.5202L83.8722 -60.5462L18.3174 22.6781ZM19.9264 14.6634L93.4122 -61.6488L19.9264 -132.413L-53.5595 -61.6488L19.9264 14.6634ZM19.5888 14.9885L-56.7379 88.4592L-56.7137 88.4844L-56.6895 88.5095L19.5888 14.9885ZM20.2639 14.9885L96.5422 88.5095L96.5578 88.4933L96.5735 88.477L20.2639 14.9885ZM22.116 23.4145L87.6624 106.645L87.6982 106.617L87.734 106.589L22.116 23.4145ZM16.8016 21.4893L84.1323 -60.305L84.1138 -60.3202L84.0953 -60.3354L16.8016 21.4893ZM16.2053 22.2143L83.5223 -59.5911L83.5107 -59.6007L83.499 -59.6103L16.2053 22.2143ZM13.8894 19.6084L-79.0646 70.4343L-79.0583 70.446L-79.0519 70.4577L13.8894 19.6084ZM14.712 19.1583L107.653 -31.691L107.521 -31.9325L107.388 -32.1733L14.712 19.1583ZM14.1444 16.9368L120.085 17.539L120.086 17.2379V16.9368H14.1444ZM15.9409 13.9908L-28.1098 -82.3588L-28.1221 -82.3532L-28.1344 -82.3476L15.9409 13.9908ZM20.2639 14.339L93.7131 90.6865L170.05 17.2477L96.6218 -59.0994L20.2639 14.339ZM15.5508 13.1382L-28.4966 -83.2129L-28.5121 -83.2059L-28.5275 -83.1988L15.5508 13.1382ZM17.7367 23.4145L-47.8552 106.61L-47.8324 106.628L-47.8097 106.645L17.7367 23.4145ZM18.7493 24.1396L-34.7644 115.573L-34.7033 115.608L-34.642 115.644L18.7493 24.1396ZM19.2225 23.3301L72.8047 -68.0629L72.6854 -68.1328L72.566 -68.2024L19.2225 23.3301ZM25.0413 20.8992L-54.1594 -49.4639L-54.1745 -49.4469L-54.1896 -49.4299L25.0413 20.8992ZM24.3406 20.2766L103.537 90.6441L103.566 90.6117L103.595 90.5793L24.3406 20.2766ZM21.5353 22.6781L-44.0488 -60.5231L-44.0671 -60.5087L-44.0855 -60.4942L21.5353 22.6781ZM24.3019 13.1382L68.3638 -83.2063L68.3565 -83.2096L68.3493 -83.2129L24.3019 13.1382ZM19.5888 14.3384L-56.7245 -59.1463L-130.208 17.1659L-53.897 90.6506L19.5888 14.3384ZM23.9118 13.9908L67.9871 -82.3476L67.9748 -82.3532L67.9625 -82.3588L23.9118 13.9908ZM20.6302 23.3301L-32.7133 -68.2024L-32.7573 -68.1768L-32.8013 -68.1511L20.6302 23.3301ZM21.1034 24.1396L74.4947 115.644L74.5202 115.629L74.5457 115.614L21.1034 24.1396ZM-53.5595 -61.6488L-53.897 -61.3238L93.0746 91.3007L93.4122 90.9757L-53.5595 -61.6488ZM-56.6895 88.5095C-46.7633 98.8079 -34.8626 107 -21.6983 112.595L61.1842 -82.4059C74.2325 -76.8599 86.0284 -68.7403 95.8671 -58.5326L-56.6895 88.5095ZM-21.6983 112.595C-8.53388 118.19 5.62306 121.074 19.9264 121.074V-90.8102C34.1036 -90.8102 48.1358 -87.952 61.1842 -82.4059L-21.6983 112.595ZM19.9264 121.074C34.2297 121.074 48.3867 118.19 61.551 112.595L-21.3315 -82.4059C-8.28321 -87.9519 5.74899 -90.8102 19.9264 -90.8102V121.074ZM61.551 112.595C74.7153 107 86.616 98.8079 96.5422 88.5095L-56.0144 -58.5326C-46.1757 -68.7403 -34.3798 -76.8599 -21.3315 -82.4059L61.551 112.595ZM93.7498 -61.3237L93.4122 -61.6488L-53.5595 90.9756L-53.222 91.3007L93.7498 -61.3237ZM84.0953 -60.3354C62.2978 -78.262 34.2718 -86.7952 6.18299 -84.058L26.7328 126.827C-1.10821 129.54 -28.8869 121.082 -50.4921 103.314L84.0953 -60.3354ZM6.18299 -84.058C-21.9063 -81.3209 -47.7575 -67.5373 -65.6838 -45.7401L97.9656 88.8474C80.1974 110.452 54.5743 124.114 26.7328 126.827L6.18299 -84.058ZM-65.6838 -45.7401C-83.6101 -23.9428 -92.1436 4.08302 -89.4064 32.1722L121.479 11.6224C124.192 39.4638 115.734 67.2424 97.9656 88.8474L-65.6838 -45.7401ZM-89.4064 32.1722C-86.6692 60.2613 -72.8858 86.1125 -51.0885 104.039L83.499 -59.6103C105.104 -41.842 118.766 -16.2189 121.479 11.6224L-89.4064 32.1722ZM-79.0519 70.4577C-72.3448 82.7167 -63.2888 93.5349 -52.4005 102.294L80.4141 -62.797C91.2064 -54.1147 100.183 -43.3919 106.831 -31.2409L-79.0519 70.4577ZM-52.4005 102.294C-41.5124 111.054 -29.0056 117.583 -15.5945 121.509L43.9324 -81.8419C57.2254 -77.9507 69.6219 -71.4793 80.4141 -62.797L-52.4005 102.294ZM-15.5945 121.509C-2.18301 125.435 11.8702 126.68 25.7627 125.175L2.93961 -85.4762C16.7097 -86.9681 30.6391 -85.7333 43.9324 -81.8419L-15.5945 121.509ZM25.7627 125.175C39.656 123.67 53.1162 119.443 65.375 112.736L-36.3236 -73.1466C-24.1728 -79.7944 -10.8312 -83.9842 2.93961 -85.4762L25.7627 125.175ZM65.375 112.736C77.6338 106.029 88.452 96.973 97.2117 86.0846L-67.8797 -46.7301C-59.1973 -57.5225 -48.4744 -66.4987 -36.3236 -73.1466L65.375 112.736ZM97.2117 86.0846C105.971 75.1965 112.5 62.6898 116.426 49.2786L-86.9246 -10.2484C-83.0333 -23.5415 -76.5619 -35.938 -67.8797 -46.7301L97.2117 86.0846ZM116.426 49.2786C120.352 35.8672 121.598 21.814 120.092 7.92131L-90.5589 30.7444C-92.0508 16.9742 -90.816 3.04481 -86.9246 -10.2484L116.426 49.2786ZM120.092 7.92131C118.587 -5.97151 114.36 -19.4318 107.653 -31.691L-78.2293 70.0076C-84.8773 57.8565 -89.0669 44.5148 -90.5589 30.7444L120.092 7.92131ZM120.086 16.9368C120.086 55.2646 98.2635 92.8309 60.0161 110.329L-28.1344 -82.3476C-68.4558 -63.9004 -91.7977 -24.0787 -91.7977 16.9368H120.086ZM59.9916 110.341C40.5205 119.243 17.5654 122.358 -5.47906 117.2C-28.3934 112.071 -45.4756 100.159 -56.7379 88.4592L95.9156 -58.4823C67.4058 -88.1003 18.7914 -103.802 -28.1098 -82.3588L59.9916 110.341ZM93.038 91.336L93.7131 90.6865L-53.1853 -62.0085L-53.8603 -61.3591L93.038 91.336ZM96.6218 -59.0994C68.0499 -88.8072 19.0361 -104.943 -28.4966 -83.2129L59.5983 109.489C39.654 118.607 16.8173 121.268 -5.44067 116.248C-27.5515 111.261 -44.5213 99.8101 -56.094 87.7774L96.6218 -59.0994ZM-28.5275 -83.1988C-69.2257 -64.5776 -92.7353 -24.3929 -92.7353 16.9368H119.149C119.149 54.8762 97.5595 92.1205 59.6292 109.475L-28.5275 -83.1988ZM-47.8097 106.645C-47.7328 106.706 -46.2268 107.902 -44.3834 109.253C-42.499 110.633 -39.1483 113.007 -34.7644 115.573L72.2631 -67.2935C76.2988 -64.9315 79.3035 -62.7943 80.8488 -61.662C82.3531 -60.5597 83.5269 -59.6245 83.2831 -59.8165L-47.8097 106.645ZM-34.642 115.644C-26.9932 120.107 -7.41977 130.45 19.9264 130.45V-81.4337C46.4099 -81.4337 65.1882 -71.4217 72.1407 -67.365L-34.642 115.644ZM19.9264 -82.3713C46.562 -82.3713 65.4991 -72.346 72.8047 -68.0629L-34.3596 114.723C-26.489 119.337 -7.09687 129.513 19.9264 129.513V-82.3713ZM72.566 -68.2024C76.7915 -65.7398 79.9233 -63.504 81.4721 -62.3672C82.3121 -61.7507 82.9667 -61.2493 83.3384 -60.9621C83.5326 -60.812 83.6862 -60.692 83.7808 -60.6179C83.8732 -60.5455 83.9363 -60.4957 83.9382 -60.4942L-47.3034 105.85C-47.161 105.963 -45.6998 107.124 -43.8979 108.446C-42.0496 109.803 -38.6296 112.235 -34.1209 114.863L72.566 -68.2024ZM87.734 106.589C87.3785 106.869 86.733 107.367 87.5704 106.721C88.0185 106.375 89.1915 105.468 90.5928 104.324C93.243 102.159 98.5485 97.6765 104.272 91.2283L-54.1896 -49.4299C-49.3597 -54.8712 -45.0712 -58.4479 -43.4374 -59.7823C-42.9622 -60.1704 -42.5774 -60.4759 -42.3289 -60.6715C-42.2027 -60.7708 -42.1018 -60.8496 -42.0351 -60.9014C-41.9695 -60.9525 -41.9272 -60.9851 -41.9236 -60.9879C-41.5785 -61.2544 -42.7009 -60.3921 -43.502 -59.76L87.734 106.589ZM104.242 91.2623C116.959 76.9477 132.588 51.681 132.588 16.9368H-79.2962C-79.2962 -14.4744 -65.0553 -37.1995 -54.1594 -49.4639L104.242 91.2623ZM-80.2338 16.9368C-80.2338 2.51917 -77.1505 -11.339 -71.6838 -23.7948C-66.433 -35.7588 -59.8662 -44.4431 -54.9137 -50.0261L103.595 90.5793C116.165 76.4084 131.65 51.3742 131.65 16.9368H-80.2338ZM-54.8562 -50.0909C-49.9716 -55.5884 -45.6207 -59.2123 -43.9514 -60.573C-43.0731 -61.2889 -42.4176 -61.7918 -42.5103 -61.7201C-42.5216 -61.7114 -42.5371 -61.6995 -42.6109 -61.6426C-42.6686 -61.5981 -42.7789 -61.513 -42.8997 -61.4197C-43.1386 -61.235 -43.5547 -60.9126 -44.0488 -60.5231L87.1194 105.879C86.8155 106.119 86.3043 106.513 87.026 105.956C87.4196 105.652 88.5631 104.769 89.9216 103.661C92.5512 101.518 97.8309 97.0668 103.537 90.6441L-54.8562 -50.0909ZM132.588 16.9368C132.588 -24.3703 109.097 -64.5774 68.3638 -83.2063L-19.76 109.483C-57.7244 92.1203 -79.2962 54.8535 -79.2962 16.9368H132.588ZM68.3493 -83.2129C20.8014 -104.95 -28.1816 -88.7879 -56.7245 -59.1463L95.9021 87.8231C84.3473 99.8227 67.3938 111.265 45.2886 116.249C23.0283 121.268 0.193489 118.605 -19.7456 109.489L68.3493 -83.2129ZM-53.897 90.6506L-53.2219 91.3007L93.7497 -61.3238L93.0747 -61.9738L-53.897 90.6506ZM96.5735 88.477C85.3159 100.167 68.2438 112.069 45.3441 117.197C22.3113 122.355 -0.649008 119.251 -20.1389 110.341L67.9625 -82.3588C21.0346 -103.814 -27.5649 -88.0742 -56.0457 -58.5001L96.5735 88.477ZM-20.1634 110.329C-58.4004 92.8357 -80.2338 55.2758 -80.2338 16.9368H131.65C131.65 -24.0912 108.298 -63.9051 67.9871 -82.3476L-20.1634 110.329ZM-44.0855 -60.4942C-44.0836 -60.4957 -44.0205 -60.5455 -43.9281 -60.6179C-43.8336 -60.6919 -43.68 -60.812 -43.4857 -60.962C-43.1141 -61.2492 -42.4594 -61.7507 -41.6195 -62.3672C-40.0707 -63.5039 -36.9388 -65.7398 -32.7133 -68.2024L73.9736 114.863C78.4824 112.235 81.9023 109.803 83.7507 108.446C85.5525 107.124 87.0137 105.963 87.1561 105.85L-44.0855 -60.4942ZM-32.8013 -68.1511C-25.7618 -72.2626 -6.80517 -82.3713 19.9264 -82.3713V129.513C47.0454 129.513 66.4571 119.253 74.0617 114.811L-32.8013 -68.1511ZM19.9264 130.45C47.2725 130.45 66.8459 120.107 74.4947 115.644L-32.288 -67.365C-25.3355 -71.4217 -6.55719 -81.4337 19.9264 -81.4337V130.45ZM74.5457 115.614C78.9757 113.026 82.3583 110.629 84.2551 109.239C86.1016 107.885 87.6211 106.678 87.6624 106.645L-43.4304 -59.8165C-43.7098 -59.5965 -42.5222 -60.5431 -41.0146 -61.6482C-39.4567 -62.7902 -36.4201 -64.9509 -32.3389 -67.3353L74.5457 115.614ZM83.8722 -60.5462C83.6115 -60.7515 83.3795 -60.9328 83.1875 -61.0821C82.997 -61.2304 82.8318 -61.3582 82.7115 -61.4512C82.6506 -61.4982 82.5959 -61.5404 82.5526 -61.5738C82.5135 -61.604 82.4682 -61.6389 82.4466 -61.6555C82.3868 -61.7017 82.3822 -61.7053 82.3918 -61.6978C82.4058 -61.687 82.4612 -61.6441 82.5425 -61.5807C82.6249 -61.5164 82.7441 -61.423 82.8907 -61.3072C83.182 -61.0769 83.611 -60.7341 84.1323 -60.305L-50.5291 103.284C-49.024 104.522 -47.7691 105.495 -47.2616 105.888C-47.1256 105.993 -47.0041 106.087 -46.938 106.138C-46.853 106.203 -46.8402 106.213 -46.826 106.224C-46.8037 106.241 -46.9795 106.106 -47.2374 105.902L83.8722 -60.5462ZM-51.1118 104.02C-49.5713 105.287 -48.2752 106.29 -47.7922 106.663C-47.6547 106.77 -47.5321 106.864 -47.4644 106.916C-47.4221 106.949 -47.4046 106.962 -47.3805 106.981C-47.371 106.988 -47.3642 106.993 -47.3594 106.997C-47.3546 107.001 -47.3525 107.002 -47.3525 107.002C-47.3525 107.002 -47.3552 107 -47.3602 106.996C-47.3651 106.993 -47.3728 106.987 -47.3828 106.979C-47.4024 106.964 -47.4337 106.939 -47.4742 106.908C-47.5526 106.847 -47.6852 106.744 -47.8552 106.61L83.3286 -59.7807C83.0427 -60.0061 82.7915 -60.2022 82.5923 -60.3571C82.394 -60.5112 82.2226 -60.6438 82.1019 -60.7369C82.0404 -60.7844 81.9849 -60.8271 81.9415 -60.8606C81.9023 -60.8908 81.8562 -60.9263 81.8346 -60.9429C81.7745 -60.9892 81.7679 -60.9943 81.7754 -60.9885C81.7868 -60.9797 81.8385 -60.9397 81.9156 -60.8797C81.9934 -60.819 82.1087 -60.7289 82.2518 -60.6159C82.3952 -60.5026 82.5757 -60.3593 82.7856 -60.1905C82.9955 -60.0217 83.2434 -59.8207 83.5223 -59.5911L-51.1118 104.02ZM107.388 -32.1733C115.804 -16.9779 120.184 0.139334 120.085 17.539L-91.796 16.3347C-91.9037 35.2886 -87.1333 53.935 -77.9637 70.49L107.388 -32.1733ZM-92.7353 16.9368C-92.7353 37.1438 -87.2981 55.3764 -79.0646 70.4343L106.843 -31.2175C114.237 -17.696 119.149 -1.22239 119.149 16.9368H-92.7353Z" fill="#CCDDFF" mask="url(#path-2-inside-1_5263_5224)"/>
<path d="M19.897 40C25.3569 32.8292 33.241 33.6503 33.3064 33.6601L35.3674 30.5326C32.8386 29.898 24.8498 29.1488 19.8839 34.262C15.6049 29.4007 6.92918 29.898 4.40039 30.5326L6.46136 33.6601C6.52679 33.6503 14.4599 33.4017 19.8708 40" fill="#FF675D"/>
</svg>
