<svg width="15" height="15" viewBox="0 0 15 15" fill="none" xmlns="http://www.w3.org/2000/svg">
<path d="M9.9345 2.77783C8.8865 2.77783 7.991 3.53779 7.499 4.06173C7.007 3.53779 6.1135 2.77783 5.066 2.77783C3.2605 2.77783 2 4.05817 2 5.89093C2 7.91038 3.5655 9.21564 5.08 10.4782C5.795 11.0749 6.535 11.6914 7.1025 12.375C7.198 12.4895 7.338 12.5556 7.485 12.5556H7.514C7.6615 12.5556 7.801 12.489 7.896 12.375C8.4645 11.6914 9.204 11.0743 9.9195 10.4782C11.4335 9.21615 13 7.91089 13 5.89093C13 4.05817 11.7395 2.77783 9.9345 2.77783Z" fill="#949399"/>
</svg>
