<svg width="12" height="12" viewBox="0 0 12 12" fill="none" xmlns="http://www.w3.org/2000/svg">
<path d="M7.49186 2C6.63441 2 5.90173 2.62179 5.49918 3.05046C5.09664 2.62179 4.36559 2 3.50855 2C2.03132 2 1 3.04755 1 4.54708C1 6.19936 2.28086 7.2673 3.52 8.30028C4.105 8.78847 4.71045 9.29289 5.17477 9.85225C5.25291 9.9459 5.36745 10 5.48773 10H5.51145C5.63214 10 5.74627 9.94548 5.824 9.85225C6.28914 9.29289 6.89418 8.78806 7.47959 8.30028C8.71832 7.26771 10 6.19977 10 4.54708C10 3.04755 8.96868 2 7.49186 2Z" fill="#6A5DFD"/>
</svg>
