<svg width="60" height="60" viewBox="0 0 60 60" fill="none" xmlns="http://www.w3.org/2000/svg">
<path d="M56.25 30C56.25 44.4972 44.4972 56.25 30 56.25C15.5028 56.25 3.75 44.4972 3.75 30C3.75 15.5028 15.5028 3.75 30 3.75C44.4972 3.75 56.25 15.5028 56.25 30Z" fill="#949399"/>
<path d="M30.0003 37.8528C28.9773 37.8528 28.0318 38.3986 27.5203 39.2846C27.0088 40.1706 27.0088 41.2624 27.5203 42.1483C28.0318 43.0343 28.9773 43.5801 30.0003 43.5801C31.5818 43.5801 32.8638 42.2981 32.8638 40.7166C32.8638 39.1351 31.5818 37.8528 30.0003 37.8528ZM30.0003 33.8366C28.8141 33.8366 27.8526 32.8751 27.8526 31.6889V19.7571C27.8526 18.5709 28.8141 17.6094 30.0003 17.6094C31.1866 17.6094 32.1481 18.5709 32.1481 19.7571V31.6889C32.1481 32.8751 31.1866 33.8366 30.0003 33.8366Z" fill="white"/>
</svg>
