<svg width="16" height="16" viewBox="0 0 16 16" fill="none" xmlns="http://www.w3.org/2000/svg">
<path fill-rule="evenodd" clip-rule="evenodd" d="M7.32999 1.57605C5.22362 3.12199 2 6.09229 2 8.60591C2 12.1059 4.5 14.6059 8 14.6059C11.5 14.6059 14 11.6059 14 9.60591C14 6.50651 12.1988 4.90809 9.99209 2.94979C9.53736 2.54624 9.06541 2.12742 8.58845 1.67703C8.24187 1.34976 7.71428 1.29401 7.32999 1.57605ZM7.38726 7.25216C6.35084 7.97367 5 9.16651 5 10.1892C5 11.7448 6.25 12.8559 8 12.8559C9.75 12.8559 11 11.5226 11 10.6337C11 9.25618 10.0994 8.54577 8.99605 7.67541C8.85296 7.56254 8.70647 7.44699 8.55809 7.32693C8.21987 7.05329 7.74432 7.00359 7.38726 7.25216Z" fill="#6341F0"/>
</svg>
