<svg width="21" height="20" viewBox="0 0 21 20" fill="none" xmlns="http://www.w3.org/2000/svg">
<g clip-path="url(#clip0_9959_18897)">
<path d="M7.8487 12.588C7.7487 12.488 7.63759 12.4102 7.50425 12.3547C7.37092 12.2991 7.23759 12.2769 7.09314 12.2769H6.50425C5.89314 12.2769 5.31536 12.0436 4.88203 11.5991C4.4487 11.1658 4.20425 10.588 4.20425 9.97691C4.20425 9.3658 4.4487 8.77691 4.88203 8.35469C5.31536 7.92135 5.89314 7.67691 6.50425 7.67691H8.89314C9.48203 7.67691 10.0376 7.89913 10.4709 8.29913C10.9043 8.69913 11.1598 9.24358 11.1931 9.83246C11.1931 9.97691 11.2376 10.1102 11.2931 10.2325C11.3487 10.3547 11.4376 10.4658 11.5487 10.5658C11.6598 10.6547 11.782 10.7325 11.9043 10.7769C12.0376 10.8214 12.182 10.8436 12.3154 10.8325C12.4598 10.8325 12.5931 10.788 12.7154 10.7325C12.8376 10.6769 12.9487 10.588 13.0487 10.4769C13.1487 10.3658 13.2154 10.2547 13.2598 10.1214C13.3043 9.98802 13.3265 9.84358 13.3154 9.71024C13.2487 8.57691 12.7598 7.53247 11.9265 6.75469C11.1043 5.98802 10.0265 5.55469 8.90425 5.55469H6.51536C5.33759 5.55469 4.22648 6.01024 3.39314 6.85469C2.53759 7.68802 2.08203 8.79913 2.08203 9.97691C2.08203 11.1547 2.53759 12.2658 3.38203 13.0991C4.21536 13.9325 5.32648 14.3991 6.50425 14.3991H7.09314C7.23759 14.3991 7.37092 14.3769 7.50425 14.3214C7.63759 14.2658 7.7487 14.188 7.8487 14.088C7.9487 13.988 8.02648 13.8658 8.08203 13.7436C8.13759 13.6102 8.15981 13.4769 8.15981 13.3325C8.15981 13.188 8.13759 13.0547 8.08203 12.9214C8.02648 12.788 7.9487 12.6769 7.8487 12.5769V12.588Z" fill="#6457FC"/>
<path d="M17.5455 6.85469C16.7122 6.02135 15.6011 5.55469 14.4233 5.55469H13.8344C13.5455 5.55469 13.2789 5.6658 13.0789 5.8658C12.8789 6.0658 12.7678 6.33247 12.7678 6.62135C12.7678 6.91024 12.8789 7.17691 13.0789 7.37691C13.2789 7.57691 13.5455 7.68802 13.8344 7.68802H14.4233C15.0233 7.68802 15.6233 7.93247 16.0455 8.3658C16.4789 8.79913 16.7233 9.37691 16.7233 9.98802C16.7233 10.5991 16.49 11.1769 16.0455 11.6102C15.6011 12.0436 15.0233 12.288 14.4233 12.288H12.0344C11.4455 12.288 10.89 12.0658 10.4567 11.6658C10.0233 11.2658 9.77887 10.7102 9.73443 10.1325C9.73443 9.98802 9.68998 9.85469 9.63443 9.73247C9.56776 9.61024 9.48998 9.49913 9.37887 9.39913C9.27887 9.31024 9.15665 9.23247 9.02332 9.18802C8.88998 9.14358 8.75665 9.12135 8.61221 9.13247C8.46776 9.13247 8.33443 9.17691 8.21221 9.23247C8.08998 9.29913 7.96776 9.37691 7.87887 9.48802C7.78998 9.58802 7.71221 9.71024 7.66776 9.84358C7.62332 9.97691 7.6011 10.1102 7.61221 10.2547C7.67887 11.388 8.16776 12.4325 8.98998 13.2102C9.81221 13.988 10.89 14.4102 12.0233 14.4102H14.4122C15.59 14.4102 16.7011 13.9436 17.5455 13.1102C18.3455 12.3102 18.8122 11.2102 18.8455 10.0769V9.98802C18.8455 8.81024 18.39 7.69913 17.5455 6.8658V6.85469Z" fill="#6457FC"/>
</g>
<defs>
<clipPath id="clip0_9959_18897">
<rect width="16.7667" height="8.84444" fill="white" transform="translate(2.08203 5.55469)"/>
</clipPath>
</defs>
</svg>
