<svg width="21" height="20" viewBox="0 0 21 20" fill="none" xmlns="http://www.w3.org/2000/svg">
<path fill-rule="evenodd" clip-rule="evenodd" d="M17.9687 9.1665C18.4289 9.1665 18.802 9.5396 18.802 9.99984C18.802 14.6022 15.0711 18.3332 10.4687 18.3332C7.78678 18.3332 5.34292 17.0544 3.80182 15.002L3.80204 17.4998C3.80204 17.9272 3.48034 18.2794 3.06589 18.3276L2.96871 18.3332C2.54135 18.3332 2.18912 18.0115 2.14098 17.597L2.13538 17.4998V12.4998C2.13538 12.0725 2.45708 11.7202 2.87153 11.6721L2.96871 11.6665H7.96871C8.42895 11.6665 8.80204 12.0396 8.80204 12.4998C8.80204 12.9272 8.48034 13.2794 8.06589 13.3276L7.96871 13.3332L4.69372 13.3341C5.86511 15.3617 8.04541 16.6665 10.4687 16.6665C14.1506 16.6665 17.1354 13.6817 17.1354 9.99984C17.1354 9.5396 17.5085 9.1665 17.9687 9.1665ZM17.9687 1.6665C18.3961 1.6665 18.7483 1.9882 18.7964 2.40265L18.802 2.49984V7.49984C18.802 7.9272 18.4803 8.27943 18.0659 8.32756L17.9687 8.33317H12.9687C12.5085 8.33317 12.1354 7.96007 12.1354 7.49984C12.1354 7.07247 12.4571 6.72025 12.8715 6.67211L12.9687 6.6665L16.2444 6.66642C15.0759 4.64315 12.8967 3.33317 10.4687 3.33317C6.78681 3.33317 3.80204 6.31794 3.80204 9.99984C3.80204 10.4601 3.42895 10.8332 2.96871 10.8332C2.50847 10.8332 2.13538 10.4601 2.13538 9.99984C2.13538 5.39746 5.86634 1.6665 10.4687 1.6665C13.1552 1.6665 15.5977 2.94943 17.1363 4.99841L17.1354 2.49984C17.1354 2.07247 17.4571 1.72025 17.8715 1.67211L17.9687 1.6665Z" fill="#1F1E2B"/>
</svg>
